<svg width="707" height="707" viewBox="0 0 707 707" fill="none" xmlns="http://www.w3.org/2000/svg">
<mask id="path-1-outside-1" maskUnits="userSpaceOnUse" x="0.757367" y="0.757359" width="705.693" height="705.693" fill="black">
<rect fill="white" x="0.757367" y="0.757359" width="705.693" height="705.693"/>
<path d="M31.2054 313.878C28.4142 308.654 26.5934 302.966 25.8314 297.092C25.5559 294.996 25.4142 292.884 25.4071 290.77C25.3853 284.289 26.6468 277.867 29.119 271.875C31.5911 265.884 35.2249 260.441 39.8109 255.86L255.86 39.8109C265.099 30.5907 277.619 25.4124 290.671 25.4124C303.724 25.4124 316.243 30.5907 325.482 39.8109L667.396 381.725C676.617 390.964 681.795 403.484 681.795 416.536C681.795 429.589 676.617 442.108 667.396 451.347L451.347 667.396C442.108 676.617 429.589 681.795 416.536 681.795C403.484 681.795 390.964 676.617 381.725 667.396L39.8109 325.482C36.3834 322.062 33.4832 318.151 31.2054 313.878V313.878ZM383.14 665.982C392.004 674.826 404.015 679.792 416.536 679.792C429.058 679.792 441.068 674.826 449.933 665.982L665.982 449.933C674.826 441.068 679.792 429.058 679.792 416.536C679.792 404.015 674.826 392.004 665.982 383.14L324.068 41.2251C315.203 32.3817 303.193 27.4153 290.671 27.4153C278.15 27.4153 266.139 32.3817 257.274 41.2251L41.2251 257.275C36.6895 261.806 33.1265 267.216 30.7544 273.172C28.3822 279.129 27.2508 285.507 27.4294 291.916C27.4506 292.63 27.486 293.344 27.5355 294.058C28.3342 305.384 33.1954 316.041 41.2251 324.068L383.14 665.982Z"/>
</mask>
<path d="M31.2054 313.878C28.4142 308.654 26.5934 302.966 25.8314 297.092C25.5559 294.996 25.4142 292.884 25.4071 290.77C25.3853 284.289 26.6468 277.867 29.119 271.875C31.5911 265.884 35.2249 260.441 39.8109 255.86L255.86 39.8109C265.099 30.5907 277.619 25.4124 290.671 25.4124C303.724 25.4124 316.243 30.5907 325.482 39.8109L667.396 381.725C676.617 390.964 681.795 403.484 681.795 416.536C681.795 429.589 676.617 442.108 667.396 451.347L451.347 667.396C442.108 676.617 429.589 681.795 416.536 681.795C403.484 681.795 390.964 676.617 381.725 667.396L39.8109 325.482C36.3834 322.062 33.4832 318.151 31.2054 313.878V313.878ZM383.14 665.982C392.004 674.826 404.015 679.792 416.536 679.792C429.058 679.792 441.068 674.826 449.933 665.982L665.982 449.933C674.826 441.068 679.792 429.058 679.792 416.536C679.792 404.015 674.826 392.004 665.982 383.14L324.068 41.2251C315.203 32.3817 303.193 27.4153 290.671 27.4153C278.15 27.4153 266.139 32.3817 257.274 41.2251L41.2251 257.275C36.6895 261.806 33.1265 267.216 30.7544 273.172C28.3822 279.129 27.2508 285.507 27.4294 291.916C27.4506 292.63 27.486 293.344 27.5355 294.058C28.3342 305.384 33.1954 316.041 41.2251 324.068L383.14 665.982Z" fill="#28166F"/>
<path d="M31.2054 313.878C28.4142 308.654 26.5934 302.966 25.8314 297.092C25.5559 294.996 25.4142 292.884 25.4071 290.77C25.3853 284.289 26.6468 277.867 29.119 271.875C31.5911 265.884 35.2249 260.441 39.8109 255.86L255.86 39.8109C265.099 30.5907 277.619 25.4124 290.671 25.4124C303.724 25.4124 316.243 30.5907 325.482 39.8109L667.396 381.725C676.617 390.964 681.795 403.484 681.795 416.536C681.795 429.589 676.617 442.108 667.396 451.347L451.347 667.396C442.108 676.617 429.589 681.795 416.536 681.795C403.484 681.795 390.964 676.617 381.725 667.396L39.8109 325.482C36.3834 322.062 33.4832 318.151 31.2054 313.878V313.878ZM383.14 665.982C392.004 674.826 404.015 679.792 416.536 679.792C429.058 679.792 441.068 674.826 449.933 665.982L665.982 449.933C674.826 441.068 679.792 429.058 679.792 416.536C679.792 404.015 674.826 392.004 665.982 383.14L324.068 41.2251C315.203 32.3817 303.193 27.4153 290.671 27.4153C278.15 27.4153 266.139 32.3817 257.274 41.2251L41.2251 257.275C36.6895 261.806 33.1265 267.216 30.7544 273.172C28.3822 279.129 27.2508 285.507 27.4294 291.916C27.4506 292.63 27.486 293.344 27.5355 294.058C28.3342 305.384 33.1954 316.041 41.2251 324.068L383.14 665.982Z" stroke="#28166F" stroke-width="6" mask="url(#path-1-outside-1)"/>
<mask id="path-2-outside-2" maskUnits="userSpaceOnUse" x="96.7815" y="96.4279" width="513.36" height="513.36" fill="black">
<rect fill="white" x="96.7815" y="96.4279" width="513.36" height="513.36"/>
<path d="M467.313 548.262C467.624 548.884 467.963 549.492 468.317 550.086L463.07 555.333C462.203 555.314 461.338 555.233 460.482 555.093L467.313 548.262ZM295.479 99.2563L607.313 411.09L411.798 606.605L99.9635 294.771L295.479 99.2563ZM411.798 603.777L604.484 411.09L295.479 102.085L102.792 294.771L411.798 603.777ZM467.313 548.262C467.624 548.884 467.963 549.492 468.317 550.086L463.07 555.333C462.203 555.314 461.338 555.233 460.482 555.093L467.313 548.262Z"/>
</mask>
<path d="M467.313 548.262C467.624 548.884 467.963 549.492 468.317 550.086L463.07 555.333C462.203 555.314 461.338 555.233 460.482 555.093L467.313 548.262ZM295.479 99.2563L607.313 411.09L411.798 606.605L99.9635 294.771L295.479 99.2563ZM411.798 603.777L604.484 411.09L295.479 102.085L102.792 294.771L411.798 603.777ZM467.313 548.262C467.624 548.884 467.963 549.492 468.317 550.086L463.07 555.333C462.203 555.314 461.338 555.233 460.482 555.093L467.313 548.262Z" fill="#28166F"/>
<path d="M467.313 548.262C467.624 548.884 467.963 549.492 468.317 550.086L463.07 555.333C462.203 555.314 461.338 555.233 460.482 555.093L467.313 548.262ZM295.479 99.2563L607.313 411.09L411.798 606.605L99.9635 294.771L295.479 99.2563ZM411.798 603.777L604.484 411.09L295.479 102.085L102.792 294.771L411.798 603.777ZM467.313 548.262C467.624 548.884 467.963 549.492 468.317 550.086L463.07 555.333C462.203 555.314 461.338 555.233 460.482 555.093L467.313 548.262Z" stroke="#28166F" stroke-width="4" mask="url(#path-2-outside-2)"/>
<g clip-path="url(#clip0)">
<path d="M407.676 426.395L422.449 411.624C424.331 409.741 424.588 406.912 422.984 405.328C422.984 405.328 398.235 382.896 374.121 361.017L357.05 378.084L401.361 426.969C402.944 428.532 405.795 428.274 407.676 426.395Z" fill="#28166F"/>
<path d="M285.18 409.346C283.635 410.891 283.635 413.364 285.18 414.891L297.137 426.849C297.89 427.605 298.919 428 299.909 428C300.899 428 301.929 427.624 302.681 426.849L354.394 375.136L371.166 358.364L388.312 341.218L370.81 323.696L352.793 341.712L337.746 356.759L285.18 409.346Z" fill="#28166F"/>
<path d="M360.257 307.5C361.186 308.431 362.434 308.906 363.663 308.906C364.892 308.906 366.119 308.431 367.069 307.5L368.872 305.699L374.594 311.422L372.791 313.223C371.644 314.372 371.188 315.975 371.465 317.459C371.583 318.153 371.861 318.825 372.296 319.418C372.434 319.618 372.611 319.815 372.791 320.013L373.643 320.864L391.165 338.386L392.551 339.771L393.183 340.404C393.462 340.681 393.74 340.9 394.035 341.077C394.807 341.572 395.698 341.808 396.59 341.808C397.819 341.808 399.043 341.333 399.997 340.402L400.591 339.808C410.451 353.114 409.817 362.338 411.838 362.338C412.767 362.338 414.293 360.317 417.737 355.803C427.733 342.557 424.054 329.47 419.38 321.015L420.41 319.986C422.291 318.105 422.291 315.056 420.41 313.194L399.993 292.809C399.063 291.878 397.816 291.403 396.586 291.403C395.358 291.403 394.133 291.878 393.179 292.809L391.378 294.61L385.639 288.93L387.46 287.108C389.343 285.227 389.343 282.178 387.46 280.316L386.55 279.406C385.623 278.475 384.375 278 383.147 278C381.92 278 380.691 278.475 379.741 279.406L359.347 299.799C357.464 301.679 357.464 304.729 359.347 306.59L360.257 307.5Z" fill="#28166F"/>
<path d="M335.588 353.594L350.279 338.902C339.191 328.864 331.429 321.835 331.429 321.835C327.411 317.737 328.104 311.737 324.994 307.263C322.283 303.363 317.669 301.362 313.748 298.967C307.511 295.165 301.254 291.364 295.017 287.562C294.187 287.047 293.097 287.186 292.403 287.879L284.542 295.739C283.849 296.432 283.712 297.521 284.226 298.353C287.889 304.372 291.552 310.371 295.194 316.39C297.451 320.073 299.63 325.518 303.312 327.973C307.965 331.081 314.341 330.705 318.459 334.706C318.499 334.746 318.518 334.785 318.577 334.825L335.588 353.594Z" fill="#28166F"/>
</g>
<g clip-path="url(#clip1)">
<path d="M51.7214 650.921L91.0657 625.253V603.085L51.7214 628.752V650.921Z" fill="#28166F"/>
<path d="M24.6721 641.711L49.2623 650.921V628.752L24.6721 619.546V641.711Z" fill="#28166F"/>
<path d="M50.4919 624.96L87.3773 601.125L63.2345 590.785L26.2092 615.321L50.4919 624.96Z" fill="#28166F"/>
<path d="M132.869 576.036L93.5247 601.703V623.871L132.869 598.204V576.036Z" fill="#28166F"/>
<path d="M129.18 574.076L105.038 563.736L68.0125 588.272L92.2953 597.911L129.18 574.076Z" fill="#28166F"/>
<path d="M32.0493 690.265L71.3936 664.597V642.429L32.0493 668.096V690.265Z" fill="#28166F"/>
<path d="M29.5902 668.096L5 658.89V681.055L29.5902 690.265V668.096Z" fill="#28166F"/>
<path d="M46.5647 654.594L23.89 644.883L6.53687 655.531L30.8195 664.305L46.5647 654.594Z" fill="#28166F"/>
<path d="M135.328 595.01L136.558 595.452L152.302 585.741L135.328 578.473V595.01Z" fill="#28166F"/>
<path d="M73.8525 663.215L113.197 637.548V615.38L73.8525 641.047V663.215Z" fill="#28166F"/>
<path d="M115.656 613.998V636.166L155 610.499V588.331L115.656 613.998Z" fill="#28166F"/>
</g>
<path d="M552.038 83.3718C552.019 83.4219 552 83.4782 552 83.5406V127.29C552 128.409 552.6 129.447 553.575 130.003L595.75 154.109V110.36L553.575 86.2532C552.512 85.6532 551.975 84.5094 552.038 83.3718Z" fill="#28166F"/>
<path d="M583.725 91.4469C584.306 92.3718 585.313 92.9094 586.369 92.9094C586.619 92.9094 586.875 92.8781 587.125 92.8157L682.056 69.0843C686.431 67.9907 689.487 64.0781 689.487 59.5467C689.487 55.8093 687.406 52.4466 684.063 50.7717L666.775 42.128L663.819 49.5216C663.056 51.4154 661.681 53.034 659.937 54.0779L628.687 72.8279C628.181 73.1279 627.631 73.2717 627.081 73.2717C626.018 73.2717 624.987 72.7341 624.4 71.753C623.512 70.2717 623.993 68.3531 625.468 67.4654L656.719 48.7154C657.3 48.3653 657.762 47.8215 658.018 47.1905L661.168 39.3155L663.825 32.6718L665.681 31.7405C666.594 32.2842 667.618 32.6405 668.719 32.6405C669.3 32.6405 669.887 32.5593 670.468 32.3906L694.556 25.5032C698.931 24.2531 701.987 20.1969 701.987 15.6468C702 10.0157 697.4 5.41577 691.75 5.41577H688.875C686.55 5.41577 684.275 6.21587 682.469 7.65962L664.944 21.6785C663.487 22.841 662.719 24.5223 662.662 26.2722L659.975 27.6161C659.294 27.9597 658.756 28.541 658.469 29.2535L655.563 36.5159L646.825 32.1471C640.163 28.8158 631.606 30.6158 626.85 36.3222L583.969 87.7845C583.106 88.8281 583.006 90.3032 583.725 91.4469Z" fill="#28166F"/>
<path d="M556.675 80.8343L577.763 92.8844C576.606 89.7218 577.069 86.3157 579.169 83.7968L583.475 78.6279C584.344 77.5841 584.438 76.0967 583.706 74.9468C582.975 73.7969 581.581 73.2531 580.269 73.6094L554.338 80.5281C555.1 80.328 555.938 80.4092 556.675 80.8343Z" fill="#28166F"/>
<path d="M602 110.834V154.584L699.806 124.022C701.112 123.622 702 122.409 702 121.041V79.4033L602 110.834Z" fill="#28166F"/>
<path d="M694.187 71.022C693.012 70.347 691.531 70.5157 690.525 71.4283C688.569 73.2222 686.169 74.5159 683.581 75.1596L588.656 98.8906C588.575 98.9094 588.463 98.922 588.356 98.9343L599.237 105.153L699.037 73.7905L694.187 71.022Z" fill="#28166F"/>
<defs>
<clipPath id="clip0">
<rect width="150" height="150" fill="white" transform="translate(279 278)"/>
</clipPath>
<clipPath id="clip1">
<rect width="150" height="150" fill="white" transform="translate(5 552)"/>
</clipPath>
</defs>
</svg>
