<svg width="707" height="707" viewBox="0 0 707 707" fill="none" xmlns="http://www.w3.org/2000/svg">
<mask id="path-1-outside-1" maskUnits="userSpaceOnUse" x="0.757367" y="0.757359" width="705.693" height="705.693" fill="black">
<rect fill="white" x="0.757367" y="0.757359" width="705.693" height="705.693"/>
<path d="M31.2054 313.878C28.4142 308.654 26.5934 302.966 25.8314 297.092C25.5559 294.996 25.4142 292.884 25.4071 290.77C25.3853 284.289 26.6468 277.867 29.119 271.875C31.5911 265.884 35.2249 260.441 39.8109 255.86L255.86 39.8109C265.099 30.5907 277.619 25.4124 290.671 25.4124C303.724 25.4124 316.243 30.5907 325.482 39.8109L667.396 381.725C676.617 390.964 681.795 403.484 681.795 416.536C681.795 429.589 676.617 442.108 667.396 451.347L451.347 667.396C442.108 676.617 429.589 681.795 416.536 681.795C403.484 681.795 390.964 676.617 381.725 667.396L39.8109 325.482C36.3834 322.062 33.4832 318.151 31.2054 313.878V313.878ZM383.14 665.982C392.004 674.826 404.015 679.792 416.536 679.792C429.058 679.792 441.068 674.826 449.933 665.982L665.982 449.933C674.826 441.068 679.792 429.058 679.792 416.536C679.792 404.015 674.826 392.004 665.982 383.14L324.068 41.2251C315.203 32.3817 303.193 27.4153 290.671 27.4153C278.15 27.4153 266.139 32.3817 257.274 41.2251L41.2251 257.275C36.6895 261.806 33.1265 267.216 30.7544 273.172C28.3822 279.129 27.2508 285.507 27.4294 291.916C27.4506 292.63 27.486 293.344 27.5355 294.058C28.3342 305.384 33.1954 316.041 41.2251 324.068L383.14 665.982Z"/>
</mask>
<path d="M31.2054 313.878C28.4142 308.654 26.5934 302.966 25.8314 297.092C25.5559 294.996 25.4142 292.884 25.4071 290.77C25.3853 284.289 26.6468 277.867 29.119 271.875C31.5911 265.884 35.2249 260.441 39.8109 255.86L255.86 39.8109C265.099 30.5907 277.619 25.4124 290.671 25.4124C303.724 25.4124 316.243 30.5907 325.482 39.8109L667.396 381.725C676.617 390.964 681.795 403.484 681.795 416.536C681.795 429.589 676.617 442.108 667.396 451.347L451.347 667.396C442.108 676.617 429.589 681.795 416.536 681.795C403.484 681.795 390.964 676.617 381.725 667.396L39.8109 325.482C36.3834 322.062 33.4832 318.151 31.2054 313.878V313.878ZM383.14 665.982C392.004 674.826 404.015 679.792 416.536 679.792C429.058 679.792 441.068 674.826 449.933 665.982L665.982 449.933C674.826 441.068 679.792 429.058 679.792 416.536C679.792 404.015 674.826 392.004 665.982 383.14L324.068 41.2251C315.203 32.3817 303.193 27.4153 290.671 27.4153C278.15 27.4153 266.139 32.3817 257.274 41.2251L41.2251 257.275C36.6895 261.806 33.1265 267.216 30.7544 273.172C28.3822 279.129 27.2508 285.507 27.4294 291.916C27.4506 292.63 27.486 293.344 27.5355 294.058C28.3342 305.384 33.1954 316.041 41.2251 324.068L383.14 665.982Z" fill="#28166F"/>
<path d="M31.2054 313.878C28.4142 308.654 26.5934 302.966 25.8314 297.092C25.5559 294.996 25.4142 292.884 25.4071 290.77C25.3853 284.289 26.6468 277.867 29.119 271.875C31.5911 265.884 35.2249 260.441 39.8109 255.86L255.86 39.8109C265.099 30.5907 277.619 25.4124 290.671 25.4124C303.724 25.4124 316.243 30.5907 325.482 39.8109L667.396 381.725C676.617 390.964 681.795 403.484 681.795 416.536C681.795 429.589 676.617 442.108 667.396 451.347L451.347 667.396C442.108 676.617 429.589 681.795 416.536 681.795C403.484 681.795 390.964 676.617 381.725 667.396L39.8109 325.482C36.3834 322.062 33.4832 318.151 31.2054 313.878V313.878ZM383.14 665.982C392.004 674.826 404.015 679.792 416.536 679.792C429.058 679.792 441.068 674.826 449.933 665.982L665.982 449.933C674.826 441.068 679.792 429.058 679.792 416.536C679.792 404.015 674.826 392.004 665.982 383.14L324.068 41.2251C315.203 32.3817 303.193 27.4153 290.671 27.4153C278.15 27.4153 266.139 32.3817 257.274 41.2251L41.2251 257.275C36.6895 261.806 33.1265 267.216 30.7544 273.172C28.3822 279.129 27.2508 285.507 27.4294 291.916C27.4506 292.63 27.486 293.344 27.5355 294.058C28.3342 305.384 33.1954 316.041 41.2251 324.068L383.14 665.982Z" stroke="#28166F" stroke-width="6" mask="url(#path-1-outside-1)"/>
<mask id="path-2-outside-2" maskUnits="userSpaceOnUse" x="96.7815" y="96.4279" width="513.36" height="513.36" fill="black">
<rect fill="white" x="96.7815" y="96.4279" width="513.36" height="513.36"/>
<path d="M467.313 548.262C467.624 548.884 467.963 549.492 468.317 550.086L463.07 555.333C462.203 555.314 461.338 555.233 460.482 555.093L467.313 548.262ZM295.479 99.2563L607.313 411.09L411.798 606.605L99.9635 294.771L295.479 99.2563ZM411.798 603.777L604.484 411.09L295.479 102.085L102.792 294.771L411.798 603.777ZM467.313 548.262C467.624 548.884 467.963 549.492 468.317 550.086L463.07 555.333C462.203 555.314 461.338 555.233 460.482 555.093L467.313 548.262Z"/>
</mask>
<path d="M467.313 548.262C467.624 548.884 467.963 549.492 468.317 550.086L463.07 555.333C462.203 555.314 461.338 555.233 460.482 555.093L467.313 548.262ZM295.479 99.2563L607.313 411.09L411.798 606.605L99.9635 294.771L295.479 99.2563ZM411.798 603.777L604.484 411.09L295.479 102.085L102.792 294.771L411.798 603.777ZM467.313 548.262C467.624 548.884 467.963 549.492 468.317 550.086L463.07 555.333C462.203 555.314 461.338 555.233 460.482 555.093L467.313 548.262Z" fill="#28166F"/>
<path d="M467.313 548.262C467.624 548.884 467.963 549.492 468.317 550.086L463.07 555.333C462.203 555.314 461.338 555.233 460.482 555.093L467.313 548.262ZM295.479 99.2563L607.313 411.09L411.798 606.605L99.9635 294.771L295.479 99.2563ZM411.798 603.777L604.484 411.09L295.479 102.085L102.792 294.771L411.798 603.777ZM467.313 548.262C467.624 548.884 467.963 549.492 468.317 550.086L463.07 555.333C462.203 555.314 461.338 555.233 460.482 555.093L467.313 548.262Z" stroke="#28166F" stroke-width="4" mask="url(#path-2-outside-2)"/>
<path d="M85.5159 624.042L91.019 603.516C91.3213 603.532 91.619 603.563 91.926 603.563C92.2331 603.563 92.5307 603.532 92.8331 603.516L98.3362 624.042C96.9903 624.273 95.6328 624.429 94.2698 624.511V622.313C94.2698 621.691 94.0228 621.095 93.5833 620.655C93.1438 620.216 92.5476 619.969 91.926 619.969C91.3044 619.969 90.7083 620.216 90.2687 620.655C89.8292 621.095 89.5823 621.691 89.5823 622.313V624.516C88.2192 624.432 86.8616 624.274 85.5159 624.042Z" fill="#28166F"/>
<path d="M103.645 587.156C103.645 589.474 102.957 591.74 101.67 593.667C100.382 595.594 98.5519 597.096 96.4106 597.983C94.2693 598.87 91.913 599.102 89.6398 598.65C87.3666 598.198 85.2785 597.082 83.6396 595.443C82.0007 593.804 80.8846 591.716 80.4325 589.442C79.9803 587.169 80.2124 584.813 81.0993 582.672C81.9863 580.53 83.4883 578.7 85.4154 577.412C87.3426 576.125 89.6083 575.438 91.926 575.438C95.0329 575.441 98.0114 576.677 100.208 578.874C102.405 581.071 103.641 584.049 103.645 587.156ZM91.926 580.125C90.5354 580.125 89.176 580.537 88.0197 581.31C86.8634 582.083 85.9622 583.181 85.43 584.466C84.8978 585.75 84.7586 587.164 85.0299 588.528C85.3012 589.892 85.9708 591.145 86.9542 592.128C87.9375 593.111 89.1904 593.781 90.5543 594.052C91.9182 594.324 93.332 594.184 94.6168 593.652C95.9016 593.12 96.9997 592.219 97.7723 591.063C98.5449 589.906 98.9573 588.547 98.9573 587.156C98.9573 585.291 98.2165 583.503 96.8979 582.184C95.5793 580.866 93.7908 580.125 91.926 580.125Z" fill="#28166F"/>
<path d="M91.926 589.5C90.6316 589.5 89.5823 588.451 89.5823 587.156C89.5823 585.862 90.6316 584.812 91.926 584.812C93.2204 584.812 94.2698 585.862 94.2698 587.156C94.2698 588.451 93.2204 589.5 91.926 589.5Z" fill="#28166F"/>
<path d="M87.2385 571.453V566.062C87.2385 564.819 87.7324 563.627 88.6115 562.748C89.4905 561.869 90.6828 561.375 91.926 561.375C93.1692 561.375 94.3615 561.869 95.2406 562.748C96.1197 563.627 96.6135 564.819 96.6135 566.062V571.453C93.5565 570.531 90.2955 570.531 87.2385 571.453V571.453Z" fill="#28166F"/>
<path d="M114.677 657.867H114.656C114.06 658.018 113.429 657.928 112.898 657.618C112.368 657.307 111.981 656.801 111.82 656.208L97.4385 602.578C98.9541 602.035 100.381 601.272 101.674 600.312L116.334 655.006C116.486 655.604 116.398 656.239 116.089 656.774C115.779 657.309 115.272 657.701 114.677 657.867V657.867Z" fill="#28166F"/>
<path d="M14.5823 681.398V680.906C14.5823 677.798 15.8169 674.818 18.0146 672.62C20.2123 670.422 23.193 669.188 26.301 669.188C29.409 669.188 32.3897 670.422 34.5874 672.62C36.7851 674.818 38.0198 677.798 38.0198 680.906C38.0198 681.528 38.2667 682.124 38.7062 682.564C39.1458 683.003 39.7419 683.25 40.3635 683.25C40.9851 683.25 41.5813 683.003 42.0208 682.564C42.4603 682.124 42.7073 681.528 42.7073 680.906V589.5H75.7002C76.0538 591.974 76.9712 594.334 78.3815 596.398L62.9901 653.791C62.6254 655.19 62.6996 656.668 63.2027 658.023C63.7058 659.379 64.6134 660.547 65.8026 661.369L63.869 668.58C63.7892 668.878 63.7688 669.188 63.809 669.493C63.8491 669.798 63.9489 670.093 64.1028 670.359C64.2567 670.626 64.4616 670.86 64.7058 671.047C64.95 671.234 65.2287 671.372 65.526 671.452C65.7279 671.505 65.9359 671.532 66.1448 671.531C66.6607 671.531 67.1622 671.361 67.5716 671.047C67.9809 670.733 68.2752 670.293 68.4088 669.795L70.3448 662.566C71.7949 662.478 73.1794 661.931 74.2981 661.004C75.4167 660.077 76.2115 658.819 76.5674 657.41L84.2807 628.641C86.0326 628.965 87.8034 629.177 89.5823 629.276V631.688C89.5823 632.309 89.8292 632.905 90.2687 633.345C90.7083 633.784 91.3044 634.031 91.926 634.031C92.5476 634.031 93.1438 633.784 93.5833 633.345C94.0228 632.905 94.2698 632.309 94.2698 631.688V629.276C96.0486 629.178 97.8193 628.968 99.5713 628.645L107.287 657.42C107.644 658.827 108.439 660.085 109.557 661.011C110.675 661.938 112.058 662.486 113.507 662.576L114.963 668.004C107.055 671.853 98.3773 673.86 89.5823 673.875C88.9607 673.875 88.3645 674.122 87.925 674.561C87.4855 675.001 87.2385 675.597 87.2385 676.219C87.2385 676.84 87.4855 677.436 87.925 677.876C88.3645 678.316 88.9607 678.562 89.5823 678.562C101.21 678.525 112.604 675.296 122.523 669.228C132.442 663.159 140.505 654.485 145.832 644.149V692.625H25.8088C22.8333 692.619 19.9813 691.434 17.8773 689.33C15.7732 687.226 14.5885 684.374 14.5823 681.398V681.398Z" fill="#28166F"/>
<path d="M14.5823 587.156C14.5823 584.048 15.8169 581.068 18.0146 578.87C20.2123 576.672 23.193 575.438 26.301 575.438C29.409 575.438 32.3897 576.672 34.5874 578.87C36.7851 581.068 38.0198 584.048 38.0198 587.156V669.422C36.4937 667.86 34.6709 666.619 32.6584 665.772C30.646 664.925 28.4845 664.489 26.301 664.489C24.1175 664.489 21.9561 664.925 19.9436 665.772C17.9312 666.619 16.1084 667.86 14.5823 669.422V587.156Z" fill="#28166F"/>
<path d="M145.832 589.5V631.622C141.639 645.974 132.111 658.177 119.205 665.726L118.033 661.366C119.225 660.549 120.135 659.384 120.641 658.03C121.147 656.676 121.223 655.199 120.86 653.801L105.466 596.398C106.878 594.335 107.797 591.975 108.152 589.5H145.832Z" fill="#28166F"/>
<path d="M70.9613 657.631C70.4255 657.939 69.7895 658.023 69.1918 657.865H69.1777C68.5833 657.696 68.0788 657.3 67.7722 656.764C67.4655 656.227 67.3812 655.592 67.5371 654.994L82.1809 600.323C83.4734 601.283 84.9005 602.047 86.416 602.59L72.0371 656.206C71.9616 656.503 71.8276 656.782 71.6429 657.026C71.4581 657.271 71.2264 657.477 70.9613 657.631V657.631Z" fill="#28166F"/>
<path d="M613.145 63.5938C605.378 63.5938 599.082 57.2978 599.082 49.5312C599.082 41.7647 605.378 35.4688 613.145 35.4688C620.911 35.4688 627.207 41.7647 627.207 49.5312C627.207 57.2978 620.911 63.5938 613.145 63.5938Z" fill="#28166F"/>
<path d="M669.395 75.5586V26.0938C669.395 22.9857 670.629 20.005 672.827 17.8073C675.025 15.6097 678.006 14.375 681.114 14.375C684.222 14.375 687.202 15.6097 689.4 17.8073C691.598 20.005 692.832 22.9857 692.832 26.0938V75.5586C691.306 73.9969 689.483 72.7561 687.471 71.9089C685.458 71.0617 683.297 70.6253 681.114 70.6253C678.93 70.6253 676.769 71.0617 674.756 71.9089C672.744 72.7561 670.921 73.9969 669.395 75.5586V75.5586Z" fill="#28166F"/>
<path d="M563.926 28.4375H578.042C577.76 28.8782 577.637 29.4017 577.691 29.922C577.746 30.4424 577.975 30.9288 578.342 31.3016L584.853 37.8125H575.645C575.023 37.8125 574.427 38.0594 573.987 38.499C573.548 38.9385 573.301 39.5346 573.301 40.1562V58.9062C573.301 59.5279 573.548 60.124 573.987 60.5635C574.427 61.0031 575.023 61.25 575.645 61.25H584.853L578.342 67.7609C577.903 68.2005 577.656 68.7965 577.656 69.418C577.656 70.0394 577.903 70.6355 578.342 71.075L591.601 84.3336C592.041 84.773 592.637 85.0198 593.258 85.0198C593.88 85.0198 594.476 84.773 594.915 84.3336L601.426 77.8227V87.0312C601.426 87.6529 601.673 88.249 602.112 88.6885C602.552 89.1281 603.148 89.375 603.77 89.375H622.52C623.141 89.375 623.738 89.1281 624.177 88.6885C624.617 88.249 624.864 87.6529 624.864 87.0312V77.8227L631.374 84.3336C631.814 84.773 632.41 85.0198 633.031 85.0198C633.653 85.0198 634.249 84.773 634.689 84.3336L647.947 71.075C648.387 70.6355 648.633 70.0394 648.633 69.418C648.633 68.7965 648.387 68.2005 647.947 67.7609L641.436 61.25H650.645C651.266 61.25 651.863 61.0031 652.302 60.5635C652.742 60.124 652.989 59.5279 652.989 58.9062V40.1562C652.989 39.5346 652.742 38.9385 652.302 38.499C651.863 38.0594 651.266 37.8125 650.645 37.8125H641.436L647.947 31.3016C648.314 30.9288 648.544 30.4424 648.598 29.922C648.653 29.4017 648.529 28.8782 648.247 28.4375H664.707V87.0312C664.707 87.6529 664.954 88.249 665.394 88.6885C665.833 89.1281 666.429 89.375 667.051 89.375C667.673 89.375 668.269 89.1281 668.708 88.6885C669.148 88.249 669.395 87.6529 669.395 87.0312C669.395 84.7135 670.082 82.4478 671.37 80.5207C672.657 78.5935 674.488 77.0915 676.629 76.2045C678.77 75.3176 681.127 75.0855 683.4 75.5377C685.673 75.9898 687.761 77.1059 689.4 78.7448C691.039 80.3837 692.155 82.4718 692.607 84.745C693.059 87.0182 692.827 89.3745 691.94 91.5158C691.053 93.6571 689.551 95.4874 687.624 96.775C685.697 98.0627 683.431 98.75 681.114 98.75H563.926C563.304 98.75 562.708 98.5031 562.269 98.0635C561.829 97.624 561.582 97.0279 561.582 96.4062V30.7812C561.582 30.1596 561.829 29.5635 562.269 29.124C562.708 28.6844 563.304 28.4375 563.926 28.4375Z" fill="#28166F"/>
<path d="M634.604 40.1305C634.705 40.3648 634.796 40.5992 634.888 40.8336C635.065 41.2983 635.372 41.7027 635.771 41.9995C636.171 42.2963 636.646 42.4732 637.142 42.5094H648.301V56.5719H637.142C636.672 56.5717 636.212 56.7134 635.822 56.9784C635.433 57.2435 635.133 57.6196 634.96 58.0578C634.796 58.4797 634.705 58.7141 634.604 58.9414C634.413 59.374 634.358 59.8541 634.445 60.3188C634.532 60.7836 634.757 61.2111 635.092 61.5453L642.976 69.4273L633.031 79.3719L625.149 71.4875C624.815 71.1531 624.388 70.9276 623.923 70.8406C623.458 70.7536 622.978 70.8091 622.546 71C622.311 71.1008 622.077 71.1922 621.842 71.2836C621.378 71.4613 620.973 71.7678 620.677 72.1671C620.38 72.5664 620.203 73.0421 620.167 73.5383V84.6875H606.104V73.5289C606.104 73.058 605.963 72.598 605.698 72.2088C605.433 71.8196 605.056 71.5192 604.618 71.3469C604.196 71.1828 603.962 71.0914 603.735 70.9906C603.302 70.7998 602.822 70.7442 602.357 70.8312C601.892 70.9182 601.465 71.1437 601.131 71.4781L593.249 79.3625L583.304 69.418L591.189 61.5359C591.523 61.2017 591.748 60.7742 591.835 60.3095C591.922 59.8447 591.867 59.3646 591.676 58.932C591.575 58.6977 591.484 58.4633 591.392 58.2289C591.214 57.7673 590.908 57.3658 590.511 57.0708C590.113 56.7759 589.641 56.5996 589.147 56.5625H577.989V42.5H589.147C589.618 42.5002 590.078 42.3585 590.467 42.0935C590.856 41.8284 591.157 41.4523 591.329 41.0141C591.493 40.5922 591.585 40.3578 591.685 40.1305C591.876 39.6979 591.932 39.2177 591.845 38.753C591.758 38.2883 591.532 37.8608 591.198 37.5266L583.314 29.6445L593.258 19.7L601.14 27.5844C601.474 27.9188 601.902 28.1443 602.367 28.2313C602.831 28.3183 603.311 28.2627 603.744 28.0719C603.978 27.9711 604.213 27.8797 604.447 27.7883C604.91 27.6091 605.313 27.302 605.608 26.9028C605.903 26.5036 606.078 26.0287 606.114 25.5336V14.375H620.176V25.5336C620.176 26.0045 620.318 26.4645 620.583 26.8537C620.848 27.2429 621.224 27.5433 621.662 27.7156C622.084 27.8797 622.318 27.9711 622.546 28.0719C622.978 28.2627 623.458 28.3183 623.923 28.2313C624.388 28.1443 624.815 27.9188 625.149 27.5844L633.031 19.7L642.976 29.6445L635.092 37.5266C634.757 37.8608 634.532 38.2883 634.445 38.753C634.358 39.2177 634.413 39.6979 634.604 40.1305V40.1305ZM613.145 30.7812C609.436 30.7812 605.811 31.8809 602.728 33.9412C599.644 36.0015 597.241 38.9298 595.822 42.3559C594.403 45.7821 594.032 49.552 594.755 53.1892C595.479 56.8263 597.264 60.1673 599.887 62.7895C602.509 65.4117 605.85 67.1975 609.487 67.921C613.124 68.6444 616.894 68.2731 620.32 66.854C623.746 65.4348 626.675 63.0316 628.735 59.9482C630.795 56.8648 631.895 53.2396 631.895 49.5312C631.889 44.5602 629.912 39.7943 626.397 36.2792C622.882 32.7641 618.116 30.7868 613.145 30.7812V30.7812Z" fill="#28166F"/>
<path d="M577.988 119.844H564.514C566.093 117.577 568.218 115.746 570.693 114.52C573.167 113.293 575.912 112.712 578.671 112.829C581.431 112.946 584.116 113.757 586.478 115.188C588.841 116.62 590.803 118.624 592.185 121.016C592.39 121.372 592.686 121.667 593.041 121.873C593.397 122.079 593.801 122.187 594.212 122.188H660.202C660.613 122.187 661.017 122.079 661.373 121.873C661.729 121.667 662.024 121.372 662.23 121.016C663.611 118.624 665.574 116.62 667.936 115.188C670.298 113.757 672.984 112.946 675.743 112.829C678.503 112.712 681.247 113.293 683.722 114.52C686.197 115.746 688.322 117.577 689.9 119.844H676.426C675.804 119.844 675.208 120.091 674.769 120.53C674.329 120.97 674.082 121.566 674.082 122.188V136.25C674.082 136.872 674.329 137.468 674.769 137.907C675.208 138.347 675.804 138.594 676.426 138.594H689.9C688.322 140.86 686.197 142.692 683.722 143.918C681.247 145.144 678.503 145.726 675.743 145.609C672.984 145.492 670.298 144.681 667.936 143.249C665.574 141.818 663.611 139.814 662.23 137.422C662.024 137.066 661.729 136.77 661.373 136.565C661.017 136.359 660.613 136.251 660.202 136.25H594.212C593.801 136.251 593.397 136.359 593.041 136.565C592.686 136.77 592.39 137.066 592.185 137.422C590.803 139.814 588.841 141.818 586.478 143.249C584.116 144.681 581.431 145.492 578.671 145.609C575.912 145.726 573.167 145.144 570.693 143.918C568.218 142.692 566.093 140.86 564.514 138.594H577.988C578.61 138.594 579.206 138.347 579.646 137.907C580.085 137.468 580.332 136.872 580.332 136.25V122.188C580.332 121.566 580.085 120.97 579.646 120.53C579.206 120.091 578.61 119.844 577.988 119.844ZM655.332 131.563H660.02V126.875H655.332V131.563ZM603.77 131.563H650.645V126.875H603.77V131.563ZM594.395 131.563H599.082V126.875H594.395V131.563Z" fill="#28166F"/>
<g clip-path="url(#clip0)">
<path d="M287.885 308.032V305.148L296.836 282.772C297.748 280.481 299.933 279 302.401 279C304.869 279 307.053 280.481 307.965 282.772L316.917 305.148V308.032H384.802C386.009 297.162 395.244 288.677 406.433 288.677C418.44 288.677 428.207 298.447 428.207 310.452V407.226C428.207 419.231 418.44 429 406.433 429H278.207V308.032H287.885ZM303.47 284.565V284.562C303.119 283.684 301.68 283.679 301.329 284.565L293.875 303.194H310.922L303.47 284.565ZM292.723 308.032V358.839H299.981V308.032H292.723ZM312.078 308.032H304.82V358.839H312.078V308.032ZM312.078 363.677H292.723V373.355C292.723 374.688 293.807 375.774 295.143 375.774H309.659C310.994 375.774 312.078 374.688 312.078 373.355V363.677ZM384.659 385.265C382.53 384.958 380.471 384.261 378.608 383.185L381.032 378.997C382.157 379.648 383.389 380.085 384.659 380.344V356.664C379.145 357.789 374.981 362.673 374.981 368.516C374.981 371.366 375.993 374.134 377.829 376.311L374.13 379.43C371.558 376.381 370.143 372.506 370.143 368.516C370.143 360.002 376.467 352.955 384.659 351.774V346.885C373.789 348.094 365.304 357.329 365.304 368.516C365.304 379.703 373.789 388.94 384.659 390.148V385.265ZM384.659 407.226V395.006C371.115 393.779 360.465 382.374 360.465 368.516C360.465 354.658 371.115 343.253 384.659 342.027V322.548H379.82V332.949L378.006 333.419C374.718 334.268 371.58 335.567 368.677 337.28L367.06 338.235L359.708 330.881L349.443 341.146L356.795 348.498L355.842 350.112C354.129 353.015 352.83 356.153 351.981 359.444L351.511 361.258H341.11V375.774H351.511L351.981 377.589C352.83 380.879 354.129 384.017 355.842 386.92L356.795 388.534L349.443 395.886L359.708 406.152L367.06 398.797L368.677 399.752C371.58 401.465 374.718 402.767 378.006 403.614L379.82 404.083V414.484H385.929C385.121 412.21 384.659 409.773 384.659 407.226ZM423.369 310.452C423.369 301.113 415.769 293.516 406.433 293.516C397.097 293.516 389.498 301.113 389.498 310.452V393.571C393.492 388.626 399.596 385.452 406.433 385.452C413.27 385.452 419.374 388.626 423.369 393.571V310.452ZM406.433 424.161C415.769 424.161 423.369 416.565 423.369 407.226C423.369 397.887 415.769 390.29 406.433 390.29C397.097 390.29 389.498 397.887 389.498 407.226C389.498 416.565 397.097 424.161 406.433 424.161ZM283.046 424.161H392.778C391.068 422.78 389.568 421.152 388.341 419.323H374.981V407.787C372.514 407.03 370.131 406.043 367.861 404.84L359.708 412.996L342.601 395.889L350.754 387.733C349.554 385.464 348.567 383.081 347.81 380.613H336.272V356.419H347.81C348.565 353.952 349.554 351.569 350.754 349.299L342.601 341.144L359.708 324.036L367.861 332.192C370.131 330.99 372.516 330.002 374.981 329.245V317.71H384.659V312.871H316.917V373.355C316.917 377.356 313.66 380.613 309.659 380.613H295.143C291.141 380.613 287.885 377.356 287.885 373.355V312.871H283.046V424.161Z" fill="#28166F"/>
<path d="M336.272 419.323H287.885V385.452H336.272V419.323ZM331.433 390.29H292.723V414.484H331.433V390.29Z" fill="#28166F"/>
<path d="M297.562 395.129H316.917V399.968H297.562V395.129Z" fill="#28166F"/>
<path d="M321.756 395.129H326.594V399.968H321.756V395.129Z" fill="#28166F"/>
<path d="M307.24 404.806H326.594V409.645H307.24V404.806Z" fill="#28166F"/>
<path d="M297.562 404.806H302.401V409.645H297.562V404.806Z" fill="#28166F"/>
<path d="M406.433 395.129C413.103 395.129 418.53 400.556 418.53 407.226C418.53 413.896 413.103 419.322 406.433 419.322V414.484C410.435 414.484 413.691 411.227 413.691 407.226C413.691 403.224 410.435 399.968 406.433 399.968C402.431 399.968 399.175 403.224 399.175 407.226H394.336C394.336 400.556 399.763 395.129 406.433 395.129Z" fill="#28166F"/>
</g>
<defs>
<clipPath id="clip0">
<rect width="150" height="150" fill="white" transform="matrix(-1 0 0 1 428.207 279)"/>
</clipPath>
</defs>
</svg>
