<svg width="707" height="707" viewBox="0 0 707 707" fill="none" xmlns="http://www.w3.org/2000/svg">
<g clip-path="url(#clip0)">
<path d="M546.881 568.177H542.496C541.283 568.177 540.299 569.161 540.299 570.375C540.299 571.589 541.283 572.572 542.496 572.572H546.881C548.094 572.572 549.078 571.589 549.078 570.375C549.078 569.161 548.094 568.177 546.881 568.177Z" fill="#28166F"/>
<path d="M546.881 584.355H542.496C541.283 584.355 540.299 585.338 540.299 586.552C540.299 587.766 541.283 588.75 542.496 588.75H546.881C548.094 588.75 549.078 587.766 549.078 586.552C549.078 585.338 548.094 584.355 546.881 584.355Z" fill="#28166F"/>
<path d="M546.881 600.532H542.496C541.283 600.532 540.299 601.516 540.299 602.729C540.299 603.943 541.283 604.927 542.496 604.927H546.881C548.094 604.927 549.078 603.943 549.078 602.729C549.078 601.516 548.094 600.532 546.881 600.532Z" fill="#28166F"/>
<path d="M546.881 616.71H542.496C541.283 616.71 540.299 617.693 540.299 618.907C540.299 620.121 541.283 621.104 542.496 621.104H546.881C548.094 621.104 549.078 620.121 549.078 618.907C549.078 617.693 548.094 616.71 546.881 616.71Z" fill="#28166F"/>
<path d="M546.881 632.887H542.496C541.283 632.887 540.299 633.871 540.299 635.085C540.299 636.298 541.283 637.282 542.496 637.282H546.881C548.094 637.282 549.078 636.298 549.078 635.085C549.078 633.871 548.094 632.887 546.881 632.887Z" fill="#28166F"/>
<path d="M546.881 649.065H542.496C541.283 649.065 540.299 650.048 540.299 651.262C540.299 652.476 541.283 653.459 542.496 653.459H546.881C548.094 653.459 549.078 652.476 549.078 651.262C549.078 650.048 548.094 649.065 546.881 649.065Z" fill="#28166F"/>
<path d="M546.881 665.242H542.496C541.283 665.242 540.299 666.226 540.299 667.439C540.299 668.653 541.283 669.637 542.496 669.637H546.881C548.094 669.637 549.078 668.653 549.078 667.439C549.078 666.226 548.094 665.242 546.881 665.242Z" fill="#28166F"/>
<path d="M546.881 681.428H542.496C541.283 681.428 540.299 682.411 540.299 683.625C540.299 684.839 541.283 685.823 542.496 685.823H546.881C548.094 685.823 549.078 684.839 549.078 683.625C549.078 682.411 548.094 681.428 546.881 681.428Z" fill="#28166F"/>
<path d="M642.132 680.099H605.07C603.856 680.099 602.873 681.083 602.873 682.296C602.873 683.51 603.856 684.494 605.07 684.494H641.364V699.803C641.364 701.017 642.347 702 643.561 702C644.774 702 645.758 701.017 645.758 699.803V683.725C645.758 681.726 644.132 680.099 642.132 680.099Z" fill="#28166F"/>
<path d="M594.93 680.099H557.859C555.86 680.099 554.233 681.726 554.233 683.725V699.803C554.233 701.017 555.217 702 556.431 702C557.644 702 558.628 701.017 558.628 699.803V684.494H594.93C596.143 684.494 597.127 683.51 597.127 682.296C597.127 681.083 596.143 680.099 594.93 680.099Z" fill="#28166F"/>
<path d="M599.996 659.538C618.75 659.538 634.007 644.284 634.007 625.534C634.007 606.78 618.75 591.522 599.996 591.522C581.246 591.522 565.993 606.78 565.993 625.534C565.992 644.284 581.246 659.538 599.996 659.538ZM599.996 595.916C616.327 595.916 629.613 609.203 629.613 625.534C629.613 641.861 616.327 655.144 599.996 655.144C583.67 655.144 570.387 641.861 570.387 625.534C570.387 609.203 583.67 595.916 599.996 595.916Z" fill="#28166F"/>
<path d="M583.498 643.671C584.771 644.408 586.184 644.784 587.616 644.784C588.332 644.784 589.052 644.69 589.762 644.5C591.898 643.929 593.684 642.559 594.789 640.645C594.789 640.644 594.789 640.644 594.789 640.643L594.79 640.643L599.998 631.621L605.206 640.636C605.206 640.637 605.207 640.638 605.207 640.639C605.207 640.64 605.208 640.64 605.208 640.641L605.209 640.643C605.21 640.644 605.21 640.644 605.21 640.644C606.31 642.555 608.087 643.923 610.217 644.497C610.931 644.689 611.657 644.784 612.378 644.784C613.81 644.784 615.224 644.409 616.498 643.673C620.445 641.395 621.801 636.327 619.521 632.377C618.42 630.465 616.639 629.098 614.506 628.526C612.373 627.955 610.144 628.249 608.231 629.353C607.043 630.038 606.066 630.986 605.359 632.116L602.535 627.226L613.45 608.321C614.056 607.27 613.696 605.926 612.645 605.32C611.594 604.713 610.251 605.073 609.644 606.124L599.997 622.833L590.346 606.123C589.739 605.073 588.395 604.712 587.345 605.32C586.294 605.927 585.934 607.27 586.541 608.321L597.46 627.227L594.635 632.12C593.928 630.989 592.95 630.041 591.76 629.354C587.819 627.073 582.755 628.427 580.469 632.375C578.191 636.325 579.551 641.393 583.498 643.671ZM608.625 635.508C608.892 634.511 609.533 633.676 610.428 633.159C611.325 632.641 612.369 632.503 613.369 632.771C614.367 633.038 615.199 633.677 615.714 634.572C616.784 636.425 616.15 638.8 614.302 639.867C613.404 640.385 612.359 640.522 611.36 640.253C610.363 639.985 609.532 639.345 609.015 638.444L609.014 638.443C608.497 637.549 608.358 636.507 608.625 635.508ZM584.275 634.574C584.993 633.334 586.297 632.64 587.634 632.64C588.29 632.64 588.954 632.806 589.561 633.158C589.561 633.158 589.562 633.159 589.563 633.159C590.462 633.678 591.105 634.515 591.372 635.516C591.639 636.512 591.501 637.552 590.984 638.446V638.446C590.465 639.345 589.628 639.988 588.627 640.255C587.631 640.522 586.592 640.384 585.697 639.867C583.846 638.798 583.209 636.423 584.275 634.574Z" fill="#28166F"/>
<path d="M657.496 568.177H653.119C651.906 568.177 650.922 569.161 650.922 570.375C650.922 571.589 651.906 572.572 653.119 572.572H657.496C658.709 572.572 659.693 571.589 659.693 570.375C659.693 569.161 658.709 568.177 657.496 568.177Z" fill="#28166F"/>
<path d="M657.496 584.355H653.119C651.906 584.355 650.922 585.338 650.922 586.552C650.922 587.766 651.906 588.75 653.119 588.75H657.496C658.709 588.75 659.693 587.766 659.693 586.552C659.693 585.338 658.709 584.355 657.496 584.355Z" fill="#28166F"/>
<path d="M657.496 600.532H653.119C651.906 600.532 650.922 601.516 650.922 602.729C650.922 603.943 651.906 604.927 653.119 604.927H657.496C658.709 604.927 659.693 603.943 659.693 602.729C659.693 601.516 658.709 600.532 657.496 600.532Z" fill="#28166F"/>
<path d="M657.496 616.71H653.119C651.906 616.71 650.922 617.693 650.922 618.907C650.922 620.121 651.906 621.104 653.119 621.104H657.496C658.709 621.104 659.693 620.121 659.693 618.907C659.693 617.693 658.709 616.71 657.496 616.71Z" fill="#28166F"/>
<path d="M657.496 632.887H653.119C651.906 632.887 650.922 633.871 650.922 635.085C650.922 636.298 651.906 637.282 653.119 637.282H657.496C658.709 637.282 659.693 636.298 659.693 635.085C659.693 633.871 658.709 632.887 657.496 632.887Z" fill="#28166F"/>
<path d="M657.496 649.065H653.119C651.906 649.065 650.922 650.048 650.922 651.262C650.922 652.476 651.906 653.459 653.119 653.459H657.496C658.709 653.459 659.693 652.476 659.693 651.262C659.693 650.048 658.709 649.065 657.496 649.065Z" fill="#28166F"/>
<path d="M657.496 665.242H653.119C651.906 665.242 650.922 666.226 650.922 667.439C650.922 668.653 651.906 669.637 653.119 669.637H657.496C658.709 669.637 659.693 668.653 659.693 667.439C659.693 666.226 658.709 665.242 657.496 665.242Z" fill="#28166F"/>
<path d="M657.496 681.428H653.119C651.906 681.428 650.922 682.411 650.922 683.625C650.922 684.839 651.906 685.823 653.119 685.823H657.496C658.709 685.823 659.693 684.839 659.693 683.625C659.693 682.411 658.709 681.428 657.496 681.428Z" fill="#28166F"/>
<path d="M642.132 580.394H557.859C555.86 580.394 554.233 582.02 554.233 584.019V667.049C554.233 669.048 555.86 670.675 557.859 670.675H642.132C644.131 670.675 645.758 669.048 645.758 667.049V584.019C645.758 582.02 644.131 580.394 642.132 580.394ZM641.363 666.28H558.628V584.788H641.363V666.28Z" fill="#28166F"/>
<path d="M667.054 552C665.84 552 664.857 552.983 664.857 554.197V699.803C664.857 701.017 665.84 702 667.054 702C668.267 702 669.251 701.017 669.251 699.803V554.197C669.251 552.983 668.267 552 667.054 552Z" fill="#28166F"/>
<path d="M532.946 552C531.732 552 530.749 552.983 530.749 554.197V699.803C530.749 701.017 531.732 702 532.946 702C534.159 702 535.143 701.017 535.143 699.803V554.197C535.143 552.983 534.159 552 532.946 552Z" fill="#28166F"/>
<path d="M557.859 573.901H594.93C596.143 573.901 597.127 572.917 597.127 571.704C597.127 570.49 596.143 569.506 594.93 569.506H558.628V554.197C558.628 552.983 557.644 552 556.431 552C555.217 552 554.233 552.983 554.233 554.197V570.267C554.233 572.271 555.86 573.901 557.859 573.901Z" fill="#28166F"/>
<path d="M643.561 552C642.347 552 641.364 552.983 641.364 554.197V569.506H605.07C603.856 569.506 602.873 570.49 602.873 571.704C602.873 572.917 603.856 573.901 605.07 573.901H642.132C644.132 573.901 645.758 572.271 645.758 570.267V554.197C645.758 552.983 644.774 552 643.561 552Z" fill="#28166F"/>
</g>
<path d="M136.008 24.5066H134.228C137.621 18.9833 136.368 11.5681 130.924 7.52847C125.057 3.17621 116.72 4.57716 112.626 10.6954L103.384 24.5069H23.9921C17.4663 24.5069 12.1572 29.8159 12.1572 36.3417V112.006C12.1572 118.532 17.4663 123.841 23.9921 123.841H69.9621L66.4887 138.43H58.9921C54.1063 138.43 50.1314 142.405 50.1314 147.29V149.14H40.8899C39.2718 149.14 37.9602 150.452 37.9602 152.07C37.9602 153.688 39.2718 155 40.8899 155H119.111C120.729 155 122.04 153.688 122.04 152.07C122.04 150.452 120.729 149.14 119.111 149.14H109.869V147.29C109.869 142.405 105.894 138.43 101.009 138.43H93.5119L90.0385 123.841H136.009C142.534 123.841 147.843 118.532 147.843 112.006V95.3573V36.3414C147.843 29.8156 142.534 24.5066 136.008 24.5066ZM94.0319 76.0092C89.4514 79.2156 80.8702 74.8572 72.6755 79.23C70.676 68.843 71.9366 59.0741 82.3441 56.9179C83.6891 56.6376 85.1373 56.5107 86.37 56.5353C89.8926 59.1489 93.4557 61.7923 96.9683 64.3988C98.506 68.8717 97.9289 73.2814 94.0319 76.0092ZM96.9844 44.607L105.277 50.7599L98.8998 58.5354C96.2742 56.5875 94.0173 54.9129 91.3917 52.9647C91.9369 52.15 96.4861 45.3515 96.9844 44.607ZM117.496 13.954C119.715 10.6374 124.24 9.86573 127.432 12.2343C130.626 14.6032 131.197 19.1576 128.667 22.2428C124.178 27.7163 113.504 40.73 108.997 46.2245L100.246 39.7318L117.496 13.954ZM104.01 147.29V149.14H55.9907V147.29C55.9907 145.636 57.3371 144.289 58.9921 144.289H101.008C102.663 144.289 104.01 145.636 104.01 147.29ZM87.4886 138.43H72.5117L75.9851 123.841H84.0152L87.4886 138.43ZM141.984 112.006C141.984 115.301 139.303 117.982 136.009 117.982C131.358 117.982 29.2212 117.982 23.9923 117.982C20.6974 117.982 18.0168 115.301 18.0168 112.006V98.287H26.3885C28.0065 98.287 29.3181 96.9751 29.3181 95.3573C29.3181 93.7396 28.0065 92.4277 26.3885 92.4277H18.0162V36.3414C18.0162 33.0464 20.6968 30.3658 23.9918 30.3658H99.4634C96.6569 34.5602 88.4688 46.7966 85.8752 50.6723C80.134 50.7241 74.4022 52.7242 70.6499 57.1046C65.5439 63.0649 64.6468 72.4303 67.9837 84.9404C68.5541 87.0797 71.2233 87.846 72.8384 86.3033C80.4135 79.0651 89.8481 86.9604 98.2969 80.1221C103.454 75.9473 104.675 69.3106 102.73 63.1044C105.359 59.8994 126.947 33.5785 129.582 30.3658H136.008C139.303 30.3658 141.984 33.0464 141.984 36.3414V92.4274H49.825C48.2069 92.4274 46.8953 93.7393 46.8953 95.357C46.8953 96.9748 48.2069 98.2867 49.825 98.2867H141.984V112.006Z" fill="#28166F"/>
<path d="M37.541 92.4842C36.1307 92.7725 35.1855 93.9915 35.1855 95.3585C35.1855 97.1911 36.861 98.5944 38.6865 98.2296C40.3087 97.9003 41.2969 96.3371 40.9863 94.7843C40.6603 93.1818 39.1058 92.1693 37.541 92.4842Z" fill="#28166F"/>
<g clip-path="url(#clip1)">
<path d="M414.384 336.614H329.977C328.532 334.85 326.88 333.262 325.059 331.887L407.997 301.146C408.512 300.955 408.931 300.567 409.161 300.067C409.39 299.567 409.412 298.996 409.221 298.48L402.501 280.354C402.104 279.28 400.911 278.732 399.836 279.13L292.895 318.769C291.821 319.167 291.274 320.36 291.672 321.434C291.672 321.434 293.678 327.916 293.678 328.225V359.902C293.678 361.048 294.607 361.976 295.752 361.976H300.447V426.926C300.447 428.072 301.376 429 302.521 429H412.197C413.342 429 414.271 428.072 414.271 426.926V360.094H414.384C415.53 360.094 416.458 359.165 416.458 358.02V338.688C416.458 337.543 415.53 336.614 414.384 336.614ZM412.31 355.946H396.162L411.346 340.762H412.31V355.946ZM346.232 355.946L361.416 340.762H369.016L353.832 355.946H346.232ZM374.881 340.762H392.015L376.831 355.946H359.698L374.881 340.762ZM397.881 340.762H405.48L390.296 355.946H382.697L397.881 340.762ZM355.55 340.762L340.367 355.946H336.416V354.626C336.416 349.595 335.099 344.868 332.8 340.762H355.55V340.762ZM385.579 305.032L369.514 310.986L349.999 302.026L366.064 296.071L385.579 305.032ZM371.565 294.032L378.69 291.391L398.205 300.352L391.08 302.993L371.565 294.032ZM364.013 313.025L356.888 315.666L337.374 306.706L344.498 304.065L364.013 313.025ZM351.387 317.705L335.322 323.659L315.808 314.7L331.872 308.745L351.387 317.705ZM329.821 325.698L322.696 328.339L303.182 319.379L310.307 316.739L329.821 325.698ZM404.61 297.978L403.706 298.313L384.19 289.353L399.332 283.74L404.61 297.978ZM297.68 321.418L307.993 326.153C307.976 326.153 307.959 326.151 307.942 326.151H297.845L296.282 321.937L297.68 321.418ZM297.826 330.3H307.942C321.355 330.3 332.268 341.212 332.268 354.626V357.828H297.826V330.3ZM410.123 424.852H304.595V361.976H334.342C335.423 361.976 336.31 361.15 336.406 360.094H410.123V424.852H410.123Z" fill="#28166F"/>
<path d="M402.042 380.868H312.226V385.016H402.042V380.868Z" fill="#28166F"/>
<path d="M402.042 404.111H312.226V408.26H402.042V404.111Z" fill="#28166F"/>
<path d="M344.434 368.161H340.286V379.223H344.434V368.161Z" fill="#28166F"/>
<path d="M376.236 368.161H372.088V379.223H376.236V368.161Z" fill="#28166F"/>
<path d="M306.04 333.915C302.99 333.915 300.509 336.396 300.509 339.446C300.509 342.495 302.99 344.977 306.04 344.977C309.089 344.977 311.571 342.495 311.571 339.446C311.571 336.396 309.089 333.915 306.04 333.915ZM306.04 340.828C305.277 340.828 304.657 340.208 304.657 339.446C304.657 338.683 305.277 338.063 306.04 338.063C306.802 338.063 307.423 338.683 307.423 339.446C307.423 340.208 306.802 340.828 306.04 340.828Z" fill="#28166F"/>
</g>
<mask id="path-34-outside-1" maskUnits="userSpaceOnUse" x="0.757353" y="0.757359" width="705.693" height="705.693" fill="black">
<rect fill="white" x="0.757353" y="0.757359" width="705.693" height="705.693"/>
<path d="M676.002 313.878C678.793 308.654 680.614 302.966 681.376 297.092C681.651 294.996 681.793 292.884 681.8 290.77C681.822 284.289 680.56 277.867 678.088 271.875C675.616 265.884 671.982 260.441 667.396 255.86L451.347 39.8109C442.108 30.5907 429.589 25.4124 416.536 25.4124C403.484 25.4124 390.964 30.5907 381.725 39.8109L39.8108 381.725C30.5907 390.964 25.4124 403.484 25.4124 416.536C25.4124 429.589 30.5907 442.108 39.8109 451.347L255.86 667.396C265.099 676.617 277.619 681.795 290.671 681.795C303.724 681.795 316.243 676.617 325.482 667.396L667.396 325.482C670.824 322.062 673.724 318.151 676.002 313.878ZM324.068 665.982C315.203 674.826 303.193 679.792 290.671 679.792C278.15 679.792 266.139 674.826 257.274 665.982L41.2251 449.933C32.3817 441.068 27.4153 429.058 27.4153 416.536C27.4153 404.015 32.3817 392.004 41.2251 383.14L383.139 41.2251C392.004 32.3817 404.015 27.4153 416.536 27.4153C429.058 27.4153 441.068 32.3817 449.933 41.2251L665.982 257.275C670.518 261.806 674.081 267.216 676.453 273.172C678.825 279.129 679.956 285.507 679.778 291.916C679.757 292.63 679.721 293.344 679.672 294.058C678.873 305.384 674.012 316.041 665.982 324.068L324.068 665.982Z"/>
</mask>
<path d="M676.002 313.878C678.793 308.654 680.614 302.966 681.376 297.092C681.651 294.996 681.793 292.884 681.8 290.77C681.822 284.289 680.56 277.867 678.088 271.875C675.616 265.884 671.982 260.441 667.396 255.86L451.347 39.8109C442.108 30.5907 429.589 25.4124 416.536 25.4124C403.484 25.4124 390.964 30.5907 381.725 39.8109L39.8108 381.725C30.5907 390.964 25.4124 403.484 25.4124 416.536C25.4124 429.589 30.5907 442.108 39.8109 451.347L255.86 667.396C265.099 676.617 277.619 681.795 290.671 681.795C303.724 681.795 316.243 676.617 325.482 667.396L667.396 325.482C670.824 322.062 673.724 318.151 676.002 313.878ZM324.068 665.982C315.203 674.826 303.193 679.792 290.671 679.792C278.15 679.792 266.139 674.826 257.274 665.982L41.2251 449.933C32.3817 441.068 27.4153 429.058 27.4153 416.536C27.4153 404.015 32.3817 392.004 41.2251 383.14L383.139 41.2251C392.004 32.3817 404.015 27.4153 416.536 27.4153C429.058 27.4153 441.068 32.3817 449.933 41.2251L665.982 257.275C670.518 261.806 674.081 267.216 676.453 273.172C678.825 279.129 679.956 285.507 679.778 291.916C679.757 292.63 679.721 293.344 679.672 294.058C678.873 305.384 674.012 316.041 665.982 324.068L324.068 665.982Z" fill="#28166F"/>
<path d="M676.002 313.878C678.793 308.654 680.614 302.966 681.376 297.092C681.651 294.996 681.793 292.884 681.8 290.77C681.822 284.289 680.56 277.867 678.088 271.875C675.616 265.884 671.982 260.441 667.396 255.86L451.347 39.8109C442.108 30.5907 429.589 25.4124 416.536 25.4124C403.484 25.4124 390.964 30.5907 381.725 39.8109L39.8108 381.725C30.5907 390.964 25.4124 403.484 25.4124 416.536C25.4124 429.589 30.5907 442.108 39.8109 451.347L255.86 667.396C265.099 676.617 277.619 681.795 290.671 681.795C303.724 681.795 316.243 676.617 325.482 667.396L667.396 325.482C670.824 322.062 673.724 318.151 676.002 313.878ZM324.068 665.982C315.203 674.826 303.193 679.792 290.671 679.792C278.15 679.792 266.139 674.826 257.274 665.982L41.2251 449.933C32.3817 441.068 27.4153 429.058 27.4153 416.536C27.4153 404.015 32.3817 392.004 41.2251 383.14L383.139 41.2251C392.004 32.3817 404.015 27.4153 416.536 27.4153C429.058 27.4153 441.068 32.3817 449.933 41.2251L665.982 257.275C670.518 261.806 674.081 267.216 676.453 273.172C678.825 279.129 679.956 285.507 679.778 291.916C679.757 292.63 679.721 293.344 679.672 294.058C678.873 305.384 674.012 316.041 665.982 324.068L324.068 665.982Z" stroke="#28166F" stroke-width="6" mask="url(#path-34-outside-1)"/>
<mask id="path-35-outside-2" maskUnits="userSpaceOnUse" x="97.0662" y="96.4279" width="513.36" height="513.36" fill="black">
<rect fill="white" x="97.0662" y="96.4279" width="513.36" height="513.36"/>
<path d="M239.895 548.262C239.584 548.884 239.244 549.492 238.891 550.086L244.137 555.333C245.005 555.314 245.869 555.233 246.725 555.093L239.895 548.262ZM411.729 99.2563L99.8947 411.09L295.41 606.605L607.244 294.771L411.729 99.2563ZM295.41 603.777L102.723 411.09L411.729 102.085L604.415 294.771L295.41 603.777ZM239.895 548.262C239.584 548.884 239.244 549.492 238.891 550.086L244.137 555.333C245.005 555.314 245.869 555.233 246.725 555.093L239.895 548.262Z"/>
</mask>
<path d="M239.895 548.262C239.584 548.884 239.244 549.492 238.891 550.086L244.137 555.333C245.005 555.314 245.869 555.233 246.725 555.093L239.895 548.262ZM411.729 99.2563L99.8947 411.09L295.41 606.605L607.244 294.771L411.729 99.2563ZM295.41 603.777L102.723 411.09L411.729 102.085L604.415 294.771L295.41 603.777ZM239.895 548.262C239.584 548.884 239.244 549.492 238.891 550.086L244.137 555.333C245.005 555.314 245.869 555.233 246.725 555.093L239.895 548.262Z" fill="#28166F"/>
<path d="M239.895 548.262C239.584 548.884 239.244 549.492 238.891 550.086L244.137 555.333C245.005 555.314 245.869 555.233 246.725 555.093L239.895 548.262ZM411.729 99.2563L99.8947 411.09L295.41 606.605L607.244 294.771L411.729 99.2563ZM295.41 603.777L102.723 411.09L411.729 102.085L604.415 294.771L295.41 603.777ZM239.895 548.262C239.584 548.884 239.244 549.492 238.891 550.086L244.137 555.333C245.005 555.314 245.869 555.233 246.725 555.093L239.895 548.262Z" stroke="#28166F" stroke-width="4" mask="url(#path-35-outside-2)"/>
<defs>
<clipPath id="clip0">
<rect width="150" height="150" fill="white" transform="translate(525 552)"/>
</clipPath>
<clipPath id="clip1">
<rect width="150" height="150" fill="white" transform="translate(279 279)"/>
</clipPath>
</defs>
</svg>
