<svg width="707" height="707" viewBox="0 0 707 707" fill="none" xmlns="http://www.w3.org/2000/svg">
<mask id="path-1-outside-1" maskUnits="userSpaceOnUse" x="0.757359" y="0.757367" width="705.693" height="705.693" fill="black">
<rect fill="white" x="0.757359" y="0.757367" width="705.693" height="705.693"/>
<path d="M313.878 31.2054C308.654 28.4142 302.966 26.5934 297.092 25.8314C294.996 25.5559 292.884 25.4142 290.77 25.4071C284.289 25.3853 277.867 26.6468 271.875 29.119C265.884 31.5911 260.441 35.2249 255.86 39.8109L39.8109 255.86C30.5907 265.099 25.4124 277.619 25.4124 290.671C25.4124 303.724 30.5907 316.243 39.8109 325.482L381.725 667.396C390.964 676.617 403.484 681.795 416.536 681.795C429.589 681.795 442.108 676.617 451.347 667.396L667.396 451.347C676.617 442.108 681.795 429.589 681.795 416.536C681.795 403.484 676.617 390.964 667.396 381.725L325.482 39.8109C322.062 36.3834 318.151 33.4832 313.878 31.2054ZM665.982 383.14C674.826 392.004 679.792 404.015 679.792 416.536C679.792 429.058 674.826 441.068 665.982 449.933L449.933 665.982C441.068 674.826 429.058 679.792 416.536 679.792C404.015 679.792 392.004 674.826 383.14 665.982L41.2251 324.068C32.3817 315.203 27.4153 303.193 27.4153 290.671C27.4153 278.15 32.3817 266.139 41.2251 257.274L257.275 41.2251C261.806 36.6895 267.216 33.1265 273.172 30.7544C279.129 28.3822 285.507 27.2508 291.916 27.4294C292.63 27.4507 293.344 27.486 294.058 27.5355C305.384 28.3342 316.041 33.1954 324.068 41.2251L665.982 383.14Z"/>
</mask>
<path d="M313.878 31.2054C308.654 28.4142 302.966 26.5934 297.092 25.8314C294.996 25.5559 292.884 25.4142 290.77 25.4071C284.289 25.3853 277.867 26.6468 271.875 29.119C265.884 31.5911 260.441 35.2249 255.86 39.8109L39.8109 255.86C30.5907 265.099 25.4124 277.619 25.4124 290.671C25.4124 303.724 30.5907 316.243 39.8109 325.482L381.725 667.396C390.964 676.617 403.484 681.795 416.536 681.795C429.589 681.795 442.108 676.617 451.347 667.396L667.396 451.347C676.617 442.108 681.795 429.589 681.795 416.536C681.795 403.484 676.617 390.964 667.396 381.725L325.482 39.8109C322.062 36.3834 318.151 33.4832 313.878 31.2054ZM665.982 383.14C674.826 392.004 679.792 404.015 679.792 416.536C679.792 429.058 674.826 441.068 665.982 449.933L449.933 665.982C441.068 674.826 429.058 679.792 416.536 679.792C404.015 679.792 392.004 674.826 383.14 665.982L41.2251 324.068C32.3817 315.203 27.4153 303.193 27.4153 290.671C27.4153 278.15 32.3817 266.139 41.2251 257.274L257.275 41.2251C261.806 36.6895 267.216 33.1265 273.172 30.7544C279.129 28.3822 285.507 27.2508 291.916 27.4294C292.63 27.4507 293.344 27.486 294.058 27.5355C305.384 28.3342 316.041 33.1954 324.068 41.2251L665.982 383.14Z" fill="#28166F"/>
<path d="M313.878 31.2054C308.654 28.4142 302.966 26.5934 297.092 25.8314C294.996 25.5559 292.884 25.4142 290.77 25.4071C284.289 25.3853 277.867 26.6468 271.875 29.119C265.884 31.5911 260.441 35.2249 255.86 39.8109L39.8109 255.86C30.5907 265.099 25.4124 277.619 25.4124 290.671C25.4124 303.724 30.5907 316.243 39.8109 325.482L381.725 667.396C390.964 676.617 403.484 681.795 416.536 681.795C429.589 681.795 442.108 676.617 451.347 667.396L667.396 451.347C676.617 442.108 681.795 429.589 681.795 416.536C681.795 403.484 676.617 390.964 667.396 381.725L325.482 39.8109C322.062 36.3834 318.151 33.4832 313.878 31.2054ZM665.982 383.14C674.826 392.004 679.792 404.015 679.792 416.536C679.792 429.058 674.826 441.068 665.982 449.933L449.933 665.982C441.068 674.826 429.058 679.792 416.536 679.792C404.015 679.792 392.004 674.826 383.14 665.982L41.2251 324.068C32.3817 315.203 27.4153 303.193 27.4153 290.671C27.4153 278.15 32.3817 266.139 41.2251 257.274L257.275 41.2251C261.806 36.6895 267.216 33.1265 273.172 30.7544C279.129 28.3822 285.507 27.2508 291.916 27.4294C292.63 27.4507 293.344 27.486 294.058 27.5355C305.384 28.3342 316.041 33.1954 324.068 41.2251L665.982 383.14Z" stroke="#28166F" stroke-width="6" mask="url(#path-1-outside-1)"/>
<mask id="path-2-outside-2" maskUnits="userSpaceOnUse" x="96.4279" y="96.7815" width="513.36" height="513.36" fill="black">
<rect fill="white" x="96.4279" y="96.7815" width="513.36" height="513.36"/>
<path d="M548.262 467.313C548.884 467.624 549.492 467.963 550.086 468.317L555.333 463.07C555.314 462.203 555.233 461.338 555.093 460.482L548.262 467.313ZM99.2563 295.479L411.09 607.313L606.605 411.798L294.771 99.9635L99.2563 295.479ZM603.777 411.798L411.09 604.484L102.085 295.479L294.771 102.792L603.777 411.798ZM548.262 467.313C548.884 467.624 549.492 467.963 550.086 468.317L555.333 463.07C555.314 462.203 555.233 461.338 555.093 460.482L548.262 467.313Z"/>
</mask>
<path d="M548.262 467.313C548.884 467.624 549.492 467.963 550.086 468.317L555.333 463.07C555.314 462.203 555.233 461.338 555.093 460.482L548.262 467.313ZM99.2563 295.479L411.09 607.313L606.605 411.798L294.771 99.9635L99.2563 295.479ZM603.777 411.798L411.09 604.484L102.085 295.479L294.771 102.792L603.777 411.798ZM548.262 467.313C548.884 467.624 549.492 467.963 550.086 468.317L555.333 463.07C555.314 462.203 555.233 461.338 555.093 460.482L548.262 467.313Z" fill="#28166F"/>
<path d="M548.262 467.313C548.884 467.624 549.492 467.963 550.086 468.317L555.333 463.07C555.314 462.203 555.233 461.338 555.093 460.482L548.262 467.313ZM99.2563 295.479L411.09 607.313L606.605 411.798L294.771 99.9635L99.2563 295.479ZM603.777 411.798L411.09 604.484L102.085 295.479L294.771 102.792L603.777 411.798ZM548.262 467.313C548.884 467.624 549.492 467.963 550.086 468.317L555.333 463.07C555.314 462.203 555.233 461.338 555.093 460.482L548.262 467.313Z" stroke="#28166F" stroke-width="4" mask="url(#path-2-outside-2)"/>
<g clip-path="url(#clip0)">
<path d="M364.394 429H343.606C338.531 429 334.212 425.531 333.1 420.569L330.462 408.863C326.169 407.044 322.081 404.669 318.25 401.775L306.862 405.369C301.975 406.875 296.662 404.806 294.212 400.444L283.85 382.519C281.369 378.081 282.206 372.613 285.862 369.175L294.687 361.062C294.419 358.688 294.281 356.319 294.281 354C294.281 351.681 294.412 349.312 294.681 346.938L285.9 338.862C282.206 335.387 281.362 329.925 283.819 325.544L294.244 307.512C296.669 303.2 301.975 301.112 306.85 302.631L318.25 306.225C322.081 303.331 326.175 300.956 330.462 299.137L333.1 287.425C334.212 282.469 338.531 279 343.606 279H364.394C369.469 279 373.787 282.469 374.9 287.431L377.537 299.137C381.831 300.956 385.919 303.331 389.75 306.225L401.137 302.631C406.012 301.106 411.331 303.194 413.787 307.556L424.15 325.481C426.631 329.919 425.794 335.387 422.137 338.825L413.312 346.938C413.581 349.312 413.712 351.681 413.712 354C413.712 356.319 413.581 358.688 413.312 361.062L422.1 369.137C422.112 369.15 422.125 369.163 422.137 369.175C425.794 372.613 426.637 378.075 424.181 382.456L413.756 400.487C411.325 404.8 406.019 406.888 401.15 405.369L389.744 401.769C385.912 404.662 381.819 407.037 377.531 408.856L374.894 420.569C373.787 425.531 369.469 429 364.394 429ZM319.212 391.869C320.287 391.869 321.344 392.237 322.2 392.938C326.481 396.469 331.169 399.188 336.125 401.019C337.612 401.569 338.725 402.838 339.075 404.388L342.256 418.512C342.4 419.156 342.975 419.625 343.619 419.625H364.406C365.05 419.625 365.619 419.156 365.769 418.519L368.95 404.394C369.3 402.844 370.406 401.575 371.9 401.025C376.856 399.194 381.544 396.469 385.825 392.944C387.05 391.931 388.694 391.606 390.219 392.088L403.975 396.431C404.625 396.631 405.325 396.406 405.631 395.85L416.056 377.825C416.369 377.269 416.256 376.506 415.75 376.019L405.2 366.319C404.05 365.262 403.506 363.713 403.744 362.169C404.156 359.419 404.369 356.669 404.369 354C404.369 351.331 404.162 348.587 403.744 345.831C403.512 344.287 404.056 342.738 405.2 341.681L415.775 331.956C416.25 331.506 416.375 330.737 416.025 330.119L405.662 312.2C405.325 311.606 404.65 311.375 403.962 311.575L390.225 315.913C388.7 316.394 387.056 316.069 385.831 315.056C381.55 311.525 376.862 308.806 371.906 306.975C370.419 306.425 369.306 305.156 368.956 303.606L365.775 289.481C365.606 288.844 365.037 288.375 364.394 288.375H343.606C342.962 288.375 342.394 288.844 342.244 289.481L339.062 303.612C338.719 305.162 337.606 306.425 336.119 306.981C331.162 308.813 326.475 311.531 322.194 315.062C320.969 316.075 319.325 316.394 317.8 315.919L304.044 311.575C303.394 311.375 302.694 311.606 302.387 312.156L291.962 330.175C291.644 330.737 291.769 331.506 292.281 331.994L302.825 341.681C303.975 342.738 304.519 344.287 304.281 345.831C303.869 348.581 303.656 351.331 303.656 354C303.656 356.669 303.862 359.413 304.281 362.169C304.512 363.713 303.969 365.262 302.825 366.319L292.25 376.044C291.775 376.494 291.65 377.262 292 377.881L302.362 395.8C302.706 396.4 303.387 396.644 304.062 396.425L317.8 392.088C318.262 391.938 318.737 391.869 319.212 391.869Z" fill="#28166F"/>
<path d="M349.319 379C348.962 379 348.612 378.963 348.256 378.881C345.737 378.3 344.162 375.781 344.744 373.263L354.119 332.638C354.7 330.106 357.25 328.55 359.737 329.119C362.256 329.7 363.831 332.219 363.25 334.738L353.875 375.363C353.375 377.538 351.45 379 349.319 379Z" fill="#28166F"/>
<path d="M374.313 372.75C373.031 372.75 371.756 372.231 370.825 371.2C369.094 369.275 369.25 366.313 371.175 364.575L382.931 354L371.175 343.425C369.25 341.694 369.094 338.731 370.825 336.8C372.563 334.881 375.525 334.725 377.45 336.45L393.075 350.513C394.063 351.406 394.625 352.675 394.625 354C394.625 355.325 394.063 356.594 393.075 357.488L377.45 371.55C376.55 372.356 375.431 372.75 374.313 372.75Z" fill="#28166F"/>
<path d="M333.687 372.75C332.569 372.75 331.45 372.356 330.55 371.55L314.925 357.487C313.937 356.594 313.375 355.325 313.375 354C313.375 352.675 313.937 351.406 314.925 350.512L330.55 336.45C332.475 334.719 335.431 334.875 337.175 336.8C338.906 338.725 338.75 341.687 336.825 343.425L325.069 354L336.825 364.575C338.75 366.306 338.906 369.269 337.175 371.2C336.244 372.231 334.969 372.75 333.687 372.75Z" fill="#28166F"/>
</g>
<g clip-path="url(#clip1)">
<path d="M701.07 77.7477L662.787 39.4652C661.597 38.2748 659.491 38.2748 658.3 39.4652L650.001 47.7649C648.761 49.0045 648.761 51.0139 650.001 52.2536L677.741 79.9905L650.002 107.732C648.762 108.972 648.762 110.981 650.002 112.221L658.302 120.52C658.897 121.116 659.705 121.452 660.546 121.452C661.386 121.452 662.195 121.116 662.79 120.52L701.07 82.2396C702.309 80.9984 702.309 78.9873 701.07 77.7477Z" fill="#28166F"/>
<path d="M603.996 107.732L576.261 79.9937L604.001 52.2567C604.596 51.6615 604.931 50.8552 604.931 50.0124C604.931 49.1712 604.598 48.3632 604.001 47.768L595.701 39.4684C595.106 38.8732 594.298 38.5383 593.457 38.5383C592.616 38.5383 591.808 38.8732 591.213 39.4684L552.929 77.7477C551.689 78.9873 551.689 80.9968 552.929 82.238L591.211 120.519C591.806 121.114 592.614 121.451 593.455 121.451C594.297 121.451 595.104 121.114 595.7 120.519L603.999 112.219C605.239 110.981 605.239 108.972 603.996 107.732Z" fill="#28166F"/>
<path d="M648.769 26.5864C648.366 25.8467 647.686 25.2975 646.88 25.0595L640.152 23.0738C638.472 22.5754 636.704 23.5389 636.209 25.2198L604.974 130.998C604.736 131.806 604.828 132.674 605.229 133.412C605.631 134.153 606.312 134.701 607.118 134.941L613.847 136.926C614.146 137.015 614.45 137.058 614.746 137.058C616.116 137.058 617.381 136.163 617.789 134.78L649.024 29.0006C649.262 28.1927 649.172 27.3244 648.769 26.5864Z" fill="#28166F"/>
</g>
<g clip-path="url(#clip2)">
<path d="M94.859 655.209C74.7254 656.451 46.4379 654.982 32 648.719V673.85C32 675.554 32.9418 677.134 34.4662 677.896C43.3102 682.321 70.0493 686.122 98.2556 683.804C94.0419 674.598 93.0691 664.498 94.859 655.209Z" fill="#28166F"/>
<path d="M129.668 618.444V608.673C108.406 617.907 53.1842 617.863 32 608.673V638.228C36.4369 643.136 65.5941 648.415 97.6971 645.877C103.342 632.49 115.116 622.091 129.668 618.444Z" fill="#28166F"/>
<path d="M129.668 598.182V569.832C108.531 579.013 53.3455 579.069 32 569.832V598.182C42.2608 609.469 120.203 608.688 129.668 598.182Z" fill="#28166F"/>
<path d="M126.995 558.428C110.306 549.91 51.4091 549.803 34.6561 558.432C33.5678 558.992 33.5678 560.559 34.655 561.122C51.456 569.811 110.394 569.568 126.995 561.121C128.089 560.564 128.089 558.987 126.995 558.428Z" fill="#28166F"/>
<path d="M141.127 626.139C109.883 626.139 91.9522 662.057 110.659 686.922C110.813 676.814 116.51 667.627 125.358 662.886C123.149 659.397 122.166 655.285 122.567 651.138C123.457 641.789 131.407 634.293 141.131 634.293C151.412 634.293 159.778 642.66 159.778 652.945C159.778 656.597 158.722 660.008 156.901 662.886C165.513 667.501 171.426 676.525 171.6 686.922C176.471 680.435 179.146 672.521 179.146 664.158C179.146 643.193 162.092 626.139 141.127 626.139Z" fill="#28166F"/>
<path d="M149.511 669.601C144.254 672.258 138.01 672.266 132.746 669.601C125.219 672.011 119.76 679.083 119.76 687.396V695.604C128.635 704.263 153.944 704 162.498 695.604V687.396C162.498 679.078 157.037 672.014 149.511 669.601Z" fill="#28166F"/>
<path d="M141.131 662.488C146.389 662.488 150.672 658.204 150.672 652.944C150.672 647.681 146.392 643.401 141.131 643.401C135.884 643.401 131.586 647.666 131.586 652.944C131.586 658.188 135.85 662.488 141.131 662.488Z" fill="#28166F"/>
</g>
<defs>
<clipPath id="clip0">
<rect width="150" height="150" fill="white" transform="translate(279 279)"/>
</clipPath>
<clipPath id="clip1">
<rect width="150" height="150" fill="white" transform="translate(552 5)"/>
</clipPath>
<clipPath id="clip2">
<rect width="150" height="150" fill="white" transform="translate(32 552)"/>
</clipPath>
</defs>
</svg>
