<svg width="707" height="707" viewBox="0 0 707 707" fill="none" xmlns="http://www.w3.org/2000/svg">
<mask id="path-1-outside-1" maskUnits="userSpaceOnUse" x="0.757359" y="0.757367" width="705.693" height="705.693" fill="black">
<rect fill="white" x="0.757359" y="0.757367" width="705.693" height="705.693"/>
<path d="M313.878 31.2054C308.654 28.4142 302.966 26.5934 297.092 25.8314C294.996 25.5559 292.884 25.4142 290.77 25.4071C284.289 25.3853 277.867 26.6468 271.875 29.119C265.884 31.5911 260.441 35.2249 255.86 39.8109L39.8109 255.86C30.5907 265.099 25.4124 277.619 25.4124 290.671C25.4124 303.724 30.5907 316.243 39.8109 325.482L381.725 667.396C390.964 676.617 403.484 681.795 416.536 681.795C429.589 681.795 442.108 676.617 451.347 667.396L667.396 451.347C676.617 442.108 681.795 429.589 681.795 416.536C681.795 403.484 676.617 390.964 667.396 381.725L325.482 39.8109C322.062 36.3834 318.151 33.4832 313.878 31.2054ZM665.982 383.14C674.826 392.004 679.792 404.015 679.792 416.536C679.792 429.058 674.826 441.068 665.982 449.933L449.933 665.982C441.068 674.826 429.058 679.792 416.536 679.792C404.015 679.792 392.004 674.826 383.14 665.982L41.2251 324.068C32.3817 315.203 27.4153 303.193 27.4153 290.671C27.4153 278.15 32.3817 266.139 41.2251 257.274L257.275 41.2251C261.806 36.6895 267.216 33.1265 273.172 30.7544C279.129 28.3822 285.507 27.2508 291.916 27.4294C292.63 27.4507 293.344 27.486 294.058 27.5355C305.384 28.3342 316.041 33.1954 324.068 41.2251L665.982 383.14Z"/>
</mask>
<path d="M313.878 31.2054C308.654 28.4142 302.966 26.5934 297.092 25.8314C294.996 25.5559 292.884 25.4142 290.77 25.4071C284.289 25.3853 277.867 26.6468 271.875 29.119C265.884 31.5911 260.441 35.2249 255.86 39.8109L39.8109 255.86C30.5907 265.099 25.4124 277.619 25.4124 290.671C25.4124 303.724 30.5907 316.243 39.8109 325.482L381.725 667.396C390.964 676.617 403.484 681.795 416.536 681.795C429.589 681.795 442.108 676.617 451.347 667.396L667.396 451.347C676.617 442.108 681.795 429.589 681.795 416.536C681.795 403.484 676.617 390.964 667.396 381.725L325.482 39.8109C322.062 36.3834 318.151 33.4832 313.878 31.2054ZM665.982 383.14C674.826 392.004 679.792 404.015 679.792 416.536C679.792 429.058 674.826 441.068 665.982 449.933L449.933 665.982C441.068 674.826 429.058 679.792 416.536 679.792C404.015 679.792 392.004 674.826 383.14 665.982L41.2251 324.068C32.3817 315.203 27.4153 303.193 27.4153 290.671C27.4153 278.15 32.3817 266.139 41.2251 257.274L257.275 41.2251C261.806 36.6895 267.216 33.1265 273.172 30.7544C279.129 28.3822 285.507 27.2508 291.916 27.4294C292.63 27.4507 293.344 27.486 294.058 27.5355C305.384 28.3342 316.041 33.1954 324.068 41.2251L665.982 383.14Z" fill="#28166F"/>
<path d="M313.878 31.2054C308.654 28.4142 302.966 26.5934 297.092 25.8314C294.996 25.5559 292.884 25.4142 290.77 25.4071C284.289 25.3853 277.867 26.6468 271.875 29.119C265.884 31.5911 260.441 35.2249 255.86 39.8109L39.8109 255.86C30.5907 265.099 25.4124 277.619 25.4124 290.671C25.4124 303.724 30.5907 316.243 39.8109 325.482L381.725 667.396C390.964 676.617 403.484 681.795 416.536 681.795C429.589 681.795 442.108 676.617 451.347 667.396L667.396 451.347C676.617 442.108 681.795 429.589 681.795 416.536C681.795 403.484 676.617 390.964 667.396 381.725L325.482 39.8109C322.062 36.3834 318.151 33.4832 313.878 31.2054ZM665.982 383.14C674.826 392.004 679.792 404.015 679.792 416.536C679.792 429.058 674.826 441.068 665.982 449.933L449.933 665.982C441.068 674.826 429.058 679.792 416.536 679.792C404.015 679.792 392.004 674.826 383.14 665.982L41.2251 324.068C32.3817 315.203 27.4153 303.193 27.4153 290.671C27.4153 278.15 32.3817 266.139 41.2251 257.274L257.275 41.2251C261.806 36.6895 267.216 33.1265 273.172 30.7544C279.129 28.3822 285.507 27.2508 291.916 27.4294C292.63 27.4507 293.344 27.486 294.058 27.5355C305.384 28.3342 316.041 33.1954 324.068 41.2251L665.982 383.14Z" stroke="#28166F" stroke-width="6" mask="url(#path-1-outside-1)"/>
<mask id="path-2-outside-2" maskUnits="userSpaceOnUse" x="96.4279" y="96.7815" width="513.36" height="513.36" fill="black">
<rect fill="white" x="96.4279" y="96.7815" width="513.36" height="513.36"/>
<path d="M548.262 467.313C548.884 467.624 549.492 467.963 550.086 468.317L555.333 463.07C555.314 462.203 555.233 461.338 555.093 460.482L548.262 467.313ZM99.2563 295.479L411.09 607.313L606.605 411.798L294.771 99.9635L99.2563 295.479ZM603.777 411.798L411.09 604.484L102.085 295.479L294.771 102.792L603.777 411.798ZM548.262 467.313C548.884 467.624 549.492 467.963 550.086 468.317L555.333 463.07C555.314 462.203 555.233 461.338 555.093 460.482L548.262 467.313Z"/>
</mask>
<path d="M548.262 467.313C548.884 467.624 549.492 467.963 550.086 468.317L555.333 463.07C555.314 462.203 555.233 461.338 555.093 460.482L548.262 467.313ZM99.2563 295.479L411.09 607.313L606.605 411.798L294.771 99.9635L99.2563 295.479ZM603.777 411.798L411.09 604.484L102.085 295.479L294.771 102.792L603.777 411.798ZM548.262 467.313C548.884 467.624 549.492 467.963 550.086 468.317L555.333 463.07C555.314 462.203 555.233 461.338 555.093 460.482L548.262 467.313Z" fill="#28166F"/>
<path d="M548.262 467.313C548.884 467.624 549.492 467.963 550.086 468.317L555.333 463.07C555.314 462.203 555.233 461.338 555.093 460.482L548.262 467.313ZM99.2563 295.479L411.09 607.313L606.605 411.798L294.771 99.9635L99.2563 295.479ZM603.777 411.798L411.09 604.484L102.085 295.479L294.771 102.792L603.777 411.798ZM548.262 467.313C548.884 467.624 549.492 467.963 550.086 468.317L555.333 463.07C555.314 462.203 555.233 461.338 555.093 460.482L548.262 467.313Z" stroke="#28166F" stroke-width="4" mask="url(#path-2-outside-2)"/>
<g clip-path="url(#clip0)">
<path d="M685.887 104.184C678.525 104.184 672.306 109.148 670.388 115.903H654.832V98.7483H670.715C687.966 98.7483 702 84.714 702 67.4631C702 53.6317 692.827 41.4812 679.804 37.5237C675.867 21.7608 661.638 10.4555 645.159 10.4555C638.771 10.4555 632.651 12.1028 627.25 15.2502C621.531 10.0195 614.031 7.08105 606.151 7.08105C589.249 7.08105 575.434 20.555 574.883 37.3251C561.506 41.0643 552 53.3124 552 67.4631C552 84.714 566.034 98.7483 583.285 98.7483H599.168V115.903H583.612C581.694 109.148 575.475 104.184 568.113 104.184C559.228 104.184 552 111.413 552 120.298C552 129.183 559.228 136.411 568.113 136.411C575.475 136.411 581.694 131.447 583.612 124.692H603.562C605.989 124.692 607.957 122.725 607.957 120.298V98.7483H622.605V125.306C615.85 127.224 610.887 133.444 610.887 140.805C610.887 149.69 618.115 156.919 627 156.919C635.885 156.919 643.113 149.69 643.113 140.805C643.113 133.444 638.15 127.225 631.395 125.306V98.7483H646.043V120.298C646.043 122.725 648.011 124.692 650.438 124.692H670.388C672.306 131.447 678.525 136.411 685.887 136.411C694.772 136.411 702 129.183 702 120.298C702 111.413 694.772 104.184 685.887 104.184ZM568.113 127.622C564.075 127.622 560.789 124.336 560.789 120.298C560.789 116.259 564.075 112.973 568.113 112.973C572.152 112.973 575.438 116.259 575.438 120.298C575.438 124.336 572.152 127.622 568.113 127.622ZM634.324 140.805C634.324 144.844 631.039 148.13 627 148.13C622.961 148.13 619.676 144.844 619.676 140.805C619.676 136.767 622.961 133.481 627 133.481C631.039 133.481 634.324 136.767 634.324 140.805ZM583.285 89.9593C570.881 89.9593 560.789 79.8677 560.789 67.4631C560.789 56.3763 569.053 46.807 580.011 45.2045C582.323 44.8664 583.966 42.7775 583.75 40.4508C583.687 39.7644 583.655 39.063 583.655 38.366C583.655 25.962 593.747 15.8704 606.151 15.8704C612.769 15.8704 619.01 18.7474 623.273 23.7636C624.77 25.5246 627.375 25.8252 629.234 24.4518C633.843 21.0451 639.35 19.2445 645.158 19.2445C658.526 19.2445 669.643 29.0528 671.721 41.8119C672.015 43.616 673.395 45.0498 675.186 45.4125C685.63 47.5269 693.211 56.8002 693.211 67.4631C693.211 79.8677 683.119 89.9593 670.714 89.9593H583.285ZM685.887 127.622C681.848 127.622 678.562 124.336 678.562 120.298C678.562 116.259 681.848 112.973 685.887 112.973C689.925 112.973 693.211 116.259 693.211 120.298C693.211 124.336 689.925 127.622 685.887 127.622Z" fill="#28166F"/>
</g>
<g clip-path="url(#clip1)">
<path d="M127.021 623.048H139.459C139.956 624.902 141.11 626.511 142.706 627.576C144.302 628.642 146.23 629.091 148.133 628.84C150.035 628.589 151.781 627.655 153.046 626.212C154.311 624.77 155.008 622.916 155.008 620.998C155.008 619.079 154.311 617.226 153.046 615.783C151.781 614.34 150.035 613.406 148.133 613.155C146.23 612.904 144.302 613.354 142.706 614.419C141.11 615.485 139.956 617.094 139.459 618.947H127.021V609.014H136.25C136.576 609.014 136.897 608.936 137.187 608.787C137.477 608.638 137.728 608.422 137.918 608.157L144.316 599.219C146.111 599.89 148.089 599.885 149.881 599.206C151.673 598.527 153.157 597.219 154.056 595.527C154.956 593.835 155.21 591.874 154.771 590.009C154.332 588.143 153.23 586.501 151.671 585.388C150.111 584.274 148.2 583.766 146.293 583.957C144.386 584.148 142.614 585.025 141.306 586.426C139.998 587.826 139.244 589.654 139.183 591.57C139.123 593.485 139.761 595.357 140.979 596.837L135.195 604.912H127.02V597.308C127.02 596.764 126.804 596.243 126.42 595.858C126.035 595.473 125.513 595.257 124.97 595.257C121.798 595.257 118.707 594.254 116.138 592.393L127.453 578.448C129.211 579.237 131.197 579.359 133.039 578.793C134.882 578.226 136.455 577.008 137.466 575.367C138.477 573.726 138.857 571.774 138.535 569.873C138.213 567.973 137.211 566.255 135.715 565.038C134.22 563.822 132.333 563.191 130.407 563.263C128.481 563.335 126.647 564.105 125.246 565.43C123.846 566.754 122.975 568.542 122.795 570.462C122.616 572.381 123.14 574.3 124.271 575.861L113.151 589.571C110.992 586.891 109.815 583.552 109.816 580.11C109.816 579.566 109.6 579.044 109.215 578.66C108.83 578.275 108.309 578.059 107.765 578.059H52.2336C51.6898 578.059 51.1683 578.275 50.7838 578.66C50.3993 579.044 50.1831 579.566 50.1828 580.11C50.1837 583.552 49.0068 586.891 46.8476 589.571L35.7277 575.859C36.8538 574.302 37.3755 572.389 37.1956 570.476C37.0157 568.563 36.1464 566.78 34.7497 565.46C33.3531 564.141 31.5242 563.374 29.604 563.302C27.6837 563.231 25.803 563.86 24.3122 565.072C22.8213 566.285 21.8221 567.998 21.5006 569.892C21.1792 571.787 21.5574 573.734 22.5648 575.37C23.5722 577.006 25.1401 578.221 26.9764 578.787C28.8127 579.353 30.7922 579.232 32.5461 578.447L43.8605 592.392C41.292 594.253 38.2012 595.256 35.0293 595.256C34.4854 595.256 33.9638 595.472 33.5792 595.857C33.1946 596.241 32.9785 596.763 32.9785 597.307V604.911H24.8047L19.0226 596.836C20.2579 595.343 20.9078 593.451 20.8509 591.513C20.794 589.576 20.0342 587.726 18.7134 586.307C17.3925 584.889 15.6008 584 13.6725 583.805C11.7442 583.611 9.81096 584.125 8.23352 585.251C6.65609 586.377 5.54217 588.038 5.0996 589.925C4.65703 591.812 4.91603 593.795 5.82828 595.505C6.74054 597.215 8.24373 598.535 10.0574 599.218C11.8711 599.901 13.8714 599.901 15.6851 599.218L22.0836 608.156C22.2732 608.421 22.5233 608.637 22.8131 608.786C23.1029 608.936 23.4241 609.014 23.75 609.014H32.9785V618.947H20.5414C20.0439 617.094 18.8898 615.485 17.2941 614.419C15.6983 613.354 13.7697 612.904 11.8674 613.155C9.96514 613.406 8.21889 614.34 6.95393 615.783C5.68897 617.226 4.99154 619.079 4.99154 620.998C4.99154 622.916 5.68897 624.77 6.95393 626.212C8.21889 627.655 9.96514 628.589 11.8674 628.84C13.7697 629.091 15.6983 628.642 17.2941 627.576C18.8898 626.511 20.0439 624.902 20.5414 623.048H32.9785V634.609C32.9785 635.123 33.0078 635.633 33.0254 636.145H22.8711C22.4908 636.145 22.118 636.251 21.7944 636.451C21.4707 636.651 21.209 636.936 21.0383 637.276L14.5039 650.297C12.6139 649.898 10.6435 650.201 8.96014 651.148C7.27677 652.095 5.99531 653.622 5.3547 655.445C4.7141 657.267 4.75807 659.26 5.47842 661.052C6.19877 662.844 7.54633 664.313 9.26984 665.185C10.9933 666.057 12.9752 666.272 14.8457 665.791C16.7163 665.31 18.348 664.164 19.4365 662.569C20.5251 660.973 20.9962 659.036 20.762 657.119C20.5278 655.202 19.6043 653.435 18.1637 652.148L24.1367 640.242H33.3594C34.5881 649.557 38.8415 658.211 45.466 664.874L32.1699 676.25C30.5788 675.154 28.6432 674.673 26.7239 674.898C24.8046 675.123 23.0327 676.039 21.7386 677.474C20.4445 678.909 19.7165 680.766 19.6903 682.698C19.6642 684.63 20.3417 686.506 21.5965 687.976C22.8514 689.445 24.5979 690.408 26.5104 690.685C28.4229 690.962 30.3708 690.534 31.9909 689.481C33.6111 688.427 34.7929 686.821 35.3159 684.96C35.8389 683.1 35.6675 681.113 34.8336 679.37L48.5293 667.651C49.5512 668.498 50.6035 669.316 51.7121 670.072L78.8445 688.588C79.1859 688.818 79.5882 688.941 80 688.941C80.4117 688.941 80.8141 688.818 81.1554 688.588L108.288 670.072C109.396 669.316 110.449 668.498 111.471 667.651L125.166 679.37C124.342 681.102 124.175 683.074 124.696 684.92C125.218 686.766 126.393 688.359 128.002 689.403C129.611 690.447 131.545 690.871 133.443 690.595C135.341 690.319 137.074 689.363 138.32 687.904C139.566 686.446 140.238 684.584 140.213 682.666C140.188 680.748 139.467 678.905 138.184 677.479C136.9 676.053 135.143 675.143 133.238 674.917C131.333 674.691 129.411 675.165 127.83 676.25L114.534 664.874C121.159 658.211 125.412 649.557 126.641 640.242H135.862L141.839 652.144C140.428 653.415 139.526 655.154 139.302 657.04C139.078 658.926 139.546 660.828 140.619 662.395C141.693 663.961 143.298 665.084 145.138 665.556C146.977 666.027 148.925 665.814 150.619 664.957C152.314 664.1 153.639 662.656 154.349 660.895C155.059 659.134 155.105 657.175 154.479 655.382C153.853 653.59 152.598 652.085 150.946 651.149C149.294 650.213 147.358 649.908 145.498 650.292L138.964 637.271C138.793 636.932 138.532 636.646 138.208 636.446C137.884 636.247 137.512 636.141 137.131 636.141H126.977C126.995 635.628 127.024 635.119 127.024 634.604L127.021 623.048ZM147.09 617.189C147.843 617.189 148.579 617.412 149.206 617.831C149.832 618.249 150.32 618.844 150.609 619.54C150.897 620.236 150.972 621.002 150.825 621.741C150.678 622.479 150.316 623.158 149.783 623.691C149.25 624.223 148.572 624.586 147.833 624.733C147.094 624.88 146.328 624.805 145.632 624.516C144.936 624.228 144.342 623.74 143.923 623.114C143.505 622.487 143.281 621.751 143.281 620.998C143.282 619.988 143.684 619.02 144.398 618.306C145.112 617.592 146.08 617.19 147.09 617.189ZM147.09 588.009C147.843 588.009 148.579 588.233 149.206 588.651C149.832 589.07 150.32 589.665 150.609 590.36C150.897 591.056 150.972 591.822 150.825 592.561C150.678 593.3 150.316 593.978 149.783 594.511C149.25 595.044 148.572 595.406 147.833 595.553C147.094 595.7 146.328 595.625 145.632 595.337C144.936 595.048 144.342 594.56 143.923 593.934C143.505 593.308 143.281 592.571 143.281 591.818C143.283 590.809 143.685 589.842 144.399 589.128C145.113 588.415 146.081 588.014 147.09 588.013V588.009ZM9.10154 591.821C9.10154 591.068 9.32491 590.332 9.74341 589.706C10.1619 589.079 10.7567 588.591 11.4527 588.303C12.1486 588.015 12.9144 587.939 13.6532 588.086C14.392 588.233 15.0706 588.596 15.6032 589.128C16.1359 589.661 16.4986 590.34 16.6455 591.078C16.7925 591.817 16.7171 592.583 16.4288 593.279C16.1406 593.975 15.6524 594.57 15.0261 594.988C14.3998 595.407 13.6634 595.63 12.9101 595.63C11.9004 595.629 10.9324 595.227 10.2184 594.513C9.50444 593.799 9.10278 592.831 9.10154 591.821ZM12.9101 624.806C12.1569 624.806 11.4205 624.583 10.7942 624.164C10.1679 623.746 9.67972 623.151 9.39145 622.455C9.10319 621.759 9.02777 620.993 9.17472 620.255C9.32168 619.516 9.68441 618.837 10.2171 618.305C10.7497 617.772 11.4283 617.409 12.1671 617.262C12.9059 617.115 13.6717 617.191 14.3676 617.479C15.0636 617.767 15.6584 618.255 16.0769 618.882C16.4954 619.508 16.7187 620.244 16.7187 620.998C16.7175 622.007 16.3158 622.975 15.6018 623.689C14.8879 624.403 13.9199 624.805 12.9101 624.806ZM12.9101 661.854C12.1569 661.854 11.4205 661.631 10.7942 661.212C10.1679 660.794 9.67972 660.199 9.39145 659.503C9.10319 658.807 9.02777 658.041 9.17472 657.302C9.32168 656.563 9.68441 655.885 10.2171 655.352C10.7497 654.82 11.4283 654.457 12.1671 654.31C12.9059 654.163 13.6717 654.238 14.3676 654.527C15.0636 654.815 15.6584 655.303 16.0769 655.929C16.4954 656.556 16.7187 657.292 16.7187 658.045C16.7175 659.055 16.3158 660.023 15.6018 660.737C14.8879 661.451 13.9199 661.853 12.9101 661.854ZM150.898 658.045C150.898 658.799 150.675 659.535 150.257 660.161C149.838 660.788 149.243 661.276 148.547 661.564C147.851 661.852 147.086 661.928 146.347 661.781C145.608 661.634 144.929 661.271 144.397 660.738C143.864 660.206 143.501 659.527 143.354 658.788C143.207 658.05 143.283 657.284 143.571 656.588C143.859 655.892 144.348 655.297 144.974 654.879C145.6 654.46 146.337 654.237 147.09 654.237C148.1 654.238 149.068 654.64 149.782 655.354C150.496 656.068 150.897 657.036 150.898 658.045ZM130.672 567.42C131.425 567.42 132.161 567.643 132.788 568.061C133.414 568.48 133.902 569.075 134.191 569.771C134.479 570.467 134.554 571.232 134.407 571.971C134.26 572.71 133.898 573.389 133.365 573.921C132.832 574.454 132.154 574.817 131.415 574.964C130.676 575.11 129.91 575.035 129.214 574.747C128.518 574.459 127.924 573.97 127.505 573.344C127.087 572.718 126.863 571.981 126.863 571.228C126.865 570.218 127.266 569.25 127.98 568.536C128.694 567.822 129.662 567.421 130.672 567.42ZM25.5195 571.228C25.5195 570.475 25.7429 569.738 26.1614 569.112C26.5799 568.486 27.1747 567.998 27.8706 567.709C28.5666 567.421 29.3323 567.346 30.0711 567.493C30.8099 567.64 31.4885 568.002 32.0212 568.535C32.5538 569.068 32.9166 569.746 33.0635 570.485C33.2105 571.224 33.135 571.99 32.8468 572.686C32.5585 573.382 32.0704 573.976 31.444 574.395C30.8177 574.813 30.0814 575.037 29.3281 575.037C28.3184 575.035 27.3504 574.634 26.6364 573.92C25.9224 573.206 25.5208 572.238 25.5195 571.228ZM27.7027 686.58C26.9494 686.58 26.2131 686.357 25.5868 685.939C24.9605 685.52 24.4723 684.925 24.184 684.229C23.8958 683.533 23.8203 682.768 23.9673 682.029C24.1143 681.29 24.477 680.611 25.0096 680.079C25.5423 679.546 26.2209 679.183 26.9597 679.036C27.6985 678.889 28.4643 678.965 29.1602 679.253C29.8561 679.541 30.451 680.03 30.8694 680.656C31.2879 681.282 31.5113 682.019 31.5113 682.772C31.5101 683.782 31.1084 684.75 30.3944 685.464C29.6804 686.178 28.7124 686.579 27.7027 686.58ZM105.976 666.686L80 684.409L54.0242 666.686C48.8006 663.124 44.5263 658.339 41.5733 652.749C38.6202 647.159 37.0777 640.931 37.0801 634.609V599.25C41.4389 598.742 45.4987 596.778 48.6017 593.675C51.7047 590.572 53.669 586.512 54.1765 582.153H105.823C106.331 586.512 108.295 590.572 111.398 593.675C114.501 596.778 118.561 598.742 122.92 599.25V634.609C122.922 640.931 121.38 647.159 118.427 652.749C115.474 658.339 111.199 663.124 105.976 666.686ZM136.106 682.772C136.106 683.525 135.882 684.261 135.464 684.888C135.045 685.514 134.451 686.002 133.755 686.291C133.059 686.579 132.293 686.654 131.554 686.507C130.815 686.36 130.137 685.998 129.604 685.465C129.072 684.932 128.709 684.254 128.562 683.515C128.415 682.776 128.49 682.01 128.779 681.314C129.067 680.618 129.555 680.024 130.181 679.605C130.808 679.187 131.544 678.963 132.297 678.963C133.307 678.965 134.275 679.366 134.989 680.08C135.703 680.794 136.105 681.762 136.106 682.772Z" fill="#28166F"/>
<path d="M115.303 606.545C115.303 606.148 115.188 605.76 114.972 605.427C114.756 605.094 114.448 604.831 114.085 604.67C107.987 601.961 103.111 597.086 100.402 590.988C100.241 590.625 99.9782 590.317 99.6454 590.101C99.3126 589.885 98.9242 589.77 98.5274 589.771H61.4715C61.0747 589.77 60.6863 589.885 60.3535 590.101C60.0207 590.317 59.7577 590.625 59.5965 590.988C56.8881 597.086 52.0127 601.962 45.9148 604.671C45.5523 604.832 45.2444 605.095 45.0283 605.428C44.8122 605.761 44.6972 606.149 44.6973 606.546V634.609C44.6948 639.692 45.9346 644.699 48.3089 649.194C50.6832 653.689 54.1201 657.535 58.3203 660.398L78.8469 674.404C79.1882 674.635 79.5906 674.758 80.0024 674.758C80.4141 674.758 80.8165 674.635 81.1578 674.404L101.68 660.398C105.878 657.535 109.314 653.69 111.688 649.197C114.062 644.704 115.302 639.699 115.3 634.617L115.303 606.545ZM111.201 634.609C111.202 639.022 110.125 643.369 108.063 647.272C106.001 651.174 103.017 654.514 99.3699 657L80 670.222L60.6289 657C56.9825 654.513 53.9987 651.174 51.937 647.271C49.8752 643.369 48.798 639.022 48.7988 634.609V607.846C54.856 604.836 59.7634 599.929 62.7734 593.872H97.2266C100.237 599.929 105.144 604.836 111.201 607.846V634.609Z" fill="#28166F"/>
</g>
<g clip-path="url(#clip2)">
<path d="M308.248 392.626C308.248 391.413 307.264 390.429 306.051 390.429C293.006 390.429 282.395 379.824 282.395 366.79C282.395 357.544 287.839 349.094 296.264 345.263C297.369 344.76 297.857 343.458 297.355 342.353C296.853 341.248 295.549 340.76 294.445 341.262C284.455 345.805 278 355.825 278 366.79C278 382.248 290.583 394.823 306.051 394.823C307.264 394.823 308.248 393.839 308.248 392.626Z" fill="#28166F"/>
<path d="M324.011 346.725C327.179 329.032 342.556 316.19 360.575 316.19C374.353 316.19 386.932 323.751 393.402 335.922C393.972 336.993 395.302 337.4 396.374 336.831C397.445 336.261 397.852 334.931 397.282 333.859C396.052 331.544 394.624 329.379 393.025 327.379V298.089L398.341 291.755C399.06 292.025 399.837 292.172 400.65 292.172C404.284 292.172 407.241 289.218 407.241 285.586C407.241 281.954 404.284 279 400.65 279C397.015 279 394.058 281.954 394.058 285.586C394.058 286.806 394.392 287.95 394.973 288.931L389.145 295.876C388.813 296.272 388.631 296.772 388.631 297.289V322.678C384.773 319.146 380.284 316.378 375.403 314.518V299.182C377.96 298.276 379.797 295.834 379.797 292.972C379.797 289.34 376.84 286.386 373.205 286.386C369.571 286.386 366.614 289.34 366.614 292.972C366.614 295.834 368.451 298.276 371.008 299.182V313.118C367.648 312.25 364.147 311.796 360.575 311.796C358.756 311.796 356.96 311.913 355.197 312.14V291.796C357.755 290.89 359.592 288.448 359.592 285.586C359.592 281.954 356.635 279 353 279C349.365 279 346.408 281.954 346.408 285.586C346.408 288.448 348.245 290.89 350.803 291.796V312.95C344.976 314.35 339.6 316.979 334.992 320.572V299.182C337.549 298.276 339.386 295.834 339.386 292.972C339.386 289.34 336.429 286.386 332.794 286.386C329.16 286.386 326.203 289.34 326.203 292.972C326.203 295.834 328.04 298.276 330.597 299.182V324.532C325.808 329.51 322.237 335.709 320.402 342.696C319.376 342.082 318.317 341.538 317.23 341.065V297.289C317.23 296.772 317.048 296.272 316.716 295.877L310.887 288.932C311.469 287.95 311.803 286.806 311.803 285.586C311.803 281.954 308.846 279 305.211 279C301.576 279 298.619 281.954 298.619 285.586C298.619 289.218 301.576 292.172 305.211 292.172C306.023 292.172 306.801 292.025 307.52 291.755L312.835 298.089V339.576C310.642 339.034 308.369 338.757 306.05 338.757C304.837 338.757 303.853 339.741 303.853 340.955C303.853 342.168 304.837 343.152 306.05 343.152C311.336 343.152 316.334 344.855 320.504 348.077C320.895 348.379 321.369 348.535 321.848 348.535C322.114 348.535 322.382 348.487 322.638 348.388C323.355 348.112 323.875 347.481 324.011 346.725ZM400.65 283.395C401.861 283.395 402.847 284.377 402.847 285.586C402.847 286.794 401.861 287.777 400.65 287.777C399.438 287.777 398.452 286.794 398.452 285.586C398.452 284.377 399.438 283.395 400.65 283.395ZM373.205 290.78C374.417 290.78 375.403 291.763 375.403 292.972C375.403 294.18 374.417 295.163 373.205 295.163C371.994 295.163 371.008 294.18 371.008 292.972C371.008 291.763 371.994 290.78 373.205 290.78ZM353 283.395C354.212 283.395 355.197 284.377 355.197 285.586C355.197 286.794 354.212 287.777 353 287.777C351.788 287.777 350.803 286.794 350.803 285.586C350.803 284.377 351.788 283.395 353 283.395ZM332.794 290.78C334.006 290.78 334.992 291.763 334.992 292.972C334.992 294.18 334.006 295.163 332.794 295.163C331.583 295.163 330.597 294.18 330.597 292.972C330.597 291.763 331.583 290.78 332.794 290.78ZM303.014 285.586C303.014 284.377 303.999 283.395 305.211 283.395C306.423 283.395 307.408 284.377 307.408 285.586C307.408 286.794 306.423 287.777 305.211 287.777C303.999 287.777 303.014 286.794 303.014 285.586Z" fill="#28166F"/>
<path d="M406.839 352.526C405.235 352.526 403.655 352.703 402.114 353.054C402.096 349.995 401.742 346.946 401.064 343.99C400.792 342.807 399.613 342.068 398.431 342.34C397.248 342.611 396.509 343.79 396.781 344.973C397.404 347.69 397.721 350.495 397.721 353.31C397.721 354.168 397.69 355.044 397.63 355.911C397.578 356.665 397.917 357.392 398.527 357.838C399.137 358.283 399.933 358.384 400.635 358.104C402.608 357.319 404.695 356.92 406.838 356.92C416.084 356.92 423.605 364.436 423.605 373.675C423.605 382.913 416.084 390.429 406.838 390.429H399.632C398.419 390.429 397.435 391.413 397.435 392.626C397.435 393.84 398.419 394.824 399.632 394.824H406.838C418.507 394.824 428 385.336 428 373.675C428 362.013 418.507 352.526 406.839 352.526Z" fill="#28166F"/>
<path d="M382.157 390.428H361.793C360.58 390.428 359.596 391.412 359.596 392.626C359.596 393.839 360.58 394.823 361.793 394.823H371.008V416.204C368.45 417.11 366.613 419.552 366.613 422.414C366.613 426.046 369.57 429 373.205 429C376.84 429 379.797 426.046 379.797 422.414C379.797 419.552 377.96 417.11 375.402 416.204V394.823H382.157C383.37 394.823 384.354 393.839 384.354 392.626C384.354 391.412 383.37 390.428 382.157 390.428ZM373.205 424.605C371.993 424.605 371.008 423.622 371.008 422.414C371.008 421.205 371.993 420.223 373.205 420.223C374.417 420.223 375.402 421.206 375.402 422.414C375.402 423.622 374.417 424.605 373.205 424.605Z" fill="#28166F"/>
<path d="M344.2 390.428H324.192C322.979 390.428 321.995 391.412 321.995 392.626C321.995 393.839 322.979 394.823 324.192 394.823H330.598V416.204C328.04 417.11 326.203 419.552 326.203 422.414C326.203 426.046 329.16 429 332.795 429C336.43 429 339.387 426.046 339.387 422.414C339.387 419.552 337.55 417.11 334.992 416.204V394.823H344.2C345.414 394.823 346.398 393.839 346.398 392.626C346.398 391.412 345.414 390.428 344.2 390.428ZM332.795 424.605C331.583 424.605 330.598 423.622 330.598 422.414C330.598 421.205 331.583 420.223 332.795 420.223C334.007 420.223 334.992 421.206 334.992 422.414C334.992 423.622 334.007 424.605 332.795 424.605Z" fill="#28166F"/>
<path d="M315.172 371.472C311.537 371.472 308.58 374.426 308.58 378.058C308.58 380.92 310.417 383.361 312.975 384.268V414.3L303.667 425.39C302.887 426.32 303.008 427.706 303.938 428.486C304.349 428.831 304.851 429 305.349 429C305.976 429 306.599 428.733 307.033 428.215L316.855 416.512C317.187 416.116 317.369 415.616 317.369 415.099V384.267C319.927 383.361 321.764 380.92 321.764 378.058C321.764 374.426 318.807 371.472 315.172 371.472ZM315.172 380.249C313.96 380.249 312.975 379.266 312.975 378.058C312.975 376.849 313.96 375.866 315.172 375.866C316.384 375.866 317.369 376.85 317.369 378.058C317.369 379.266 316.384 380.249 315.172 380.249Z" fill="#28166F"/>
<path d="M353 371.472C349.365 371.472 346.408 374.426 346.408 378.058C346.408 380.92 348.245 383.361 350.803 384.268V426.803C350.803 428.016 351.787 429 353 429C354.213 429 355.197 428.016 355.197 426.803V384.268C357.755 383.361 359.592 380.92 359.592 378.058C359.592 374.426 356.635 371.472 353 371.472ZM353 380.249C351.788 380.249 350.803 379.266 350.803 378.058C350.803 376.849 351.788 375.866 353 375.866C354.212 375.866 355.197 376.85 355.197 378.058C355.197 379.266 354.212 380.249 353 380.249Z" fill="#28166F"/>
<path d="M393.025 414.3V384.268C395.583 383.361 397.42 380.92 397.42 378.058C397.42 374.426 394.463 371.472 390.828 371.472C387.193 371.472 384.236 374.426 384.236 378.058C384.236 380.92 386.073 383.361 388.631 384.268V415.1C388.631 415.616 388.813 416.117 389.145 416.512L398.967 428.215C399.402 428.733 400.024 429 400.651 429C401.149 429 401.651 428.831 402.062 428.486C402.992 427.706 403.113 426.32 402.333 425.39L393.025 414.3ZM390.828 375.866C392.04 375.866 393.025 376.85 393.025 378.058C393.025 379.266 392.04 380.249 390.828 380.249C389.616 380.249 388.631 379.266 388.631 378.058C388.631 376.849 389.616 375.866 390.828 375.866Z" fill="#28166F"/>
</g>
<defs>
<clipPath id="clip0">
<rect width="150" height="150" fill="white" transform="translate(552 7)"/>
</clipPath>
<clipPath id="clip1">
<rect width="150" height="150" fill="white" transform="translate(5 552)"/>
</clipPath>
<clipPath id="clip2">
<rect width="150" height="150" fill="white" transform="translate(278 279)"/>
</clipPath>
</defs>
</svg>
