<svg width="707" height="707" viewBox="0 0 707 707" fill="none" xmlns="http://www.w3.org/2000/svg">
<mask id="path-1-outside-1" maskUnits="userSpaceOnUse" x="0.757353" y="0.757359" width="705.693" height="705.693" fill="black">
<rect fill="white" x="0.757353" y="0.757359" width="705.693" height="705.693"/>
<path d="M676.002 313.878C678.793 308.654 680.614 302.966 681.376 297.092C681.651 294.996 681.793 292.884 681.8 290.77C681.822 284.289 680.56 277.867 678.088 271.875C675.616 265.884 671.982 260.441 667.396 255.86L451.347 39.8109C442.108 30.5907 429.589 25.4124 416.536 25.4124C403.484 25.4124 390.964 30.5907 381.725 39.8109L39.8108 381.725C30.5907 390.964 25.4124 403.484 25.4124 416.536C25.4124 429.589 30.5907 442.108 39.8109 451.347L255.86 667.396C265.099 676.617 277.619 681.795 290.671 681.795C303.724 681.795 316.243 676.617 325.482 667.396L667.396 325.482C670.824 322.062 673.724 318.151 676.002 313.878V313.878ZM324.068 665.982C315.203 674.826 303.193 679.792 290.671 679.792C278.15 679.792 266.139 674.826 257.274 665.982L41.2251 449.933C32.3817 441.068 27.4153 429.058 27.4153 416.536C27.4153 404.015 32.3817 392.004 41.2251 383.14L383.139 41.2251C392.004 32.3817 404.015 27.4153 416.536 27.4153C429.058 27.4153 441.068 32.3817 449.933 41.2251L665.982 257.275C670.518 261.806 674.081 267.216 676.453 273.172C678.825 279.129 679.956 285.507 679.778 291.916C679.757 292.63 679.721 293.344 679.672 294.058C678.873 305.384 674.012 316.041 665.982 324.068L324.068 665.982Z"/>
</mask>
<path d="M676.002 313.878C678.793 308.654 680.614 302.966 681.376 297.092C681.651 294.996 681.793 292.884 681.8 290.77C681.822 284.289 680.56 277.867 678.088 271.875C675.616 265.884 671.982 260.441 667.396 255.86L451.347 39.8109C442.108 30.5907 429.589 25.4124 416.536 25.4124C403.484 25.4124 390.964 30.5907 381.725 39.8109L39.8108 381.725C30.5907 390.964 25.4124 403.484 25.4124 416.536C25.4124 429.589 30.5907 442.108 39.8109 451.347L255.86 667.396C265.099 676.617 277.619 681.795 290.671 681.795C303.724 681.795 316.243 676.617 325.482 667.396L667.396 325.482C670.824 322.062 673.724 318.151 676.002 313.878V313.878ZM324.068 665.982C315.203 674.826 303.193 679.792 290.671 679.792C278.15 679.792 266.139 674.826 257.274 665.982L41.2251 449.933C32.3817 441.068 27.4153 429.058 27.4153 416.536C27.4153 404.015 32.3817 392.004 41.2251 383.14L383.139 41.2251C392.004 32.3817 404.015 27.4153 416.536 27.4153C429.058 27.4153 441.068 32.3817 449.933 41.2251L665.982 257.275C670.518 261.806 674.081 267.216 676.453 273.172C678.825 279.129 679.956 285.507 679.778 291.916C679.757 292.63 679.721 293.344 679.672 294.058C678.873 305.384 674.012 316.041 665.982 324.068L324.068 665.982Z" fill="#28166F"/>
<path d="M676.002 313.878C678.793 308.654 680.614 302.966 681.376 297.092C681.651 294.996 681.793 292.884 681.8 290.77C681.822 284.289 680.56 277.867 678.088 271.875C675.616 265.884 671.982 260.441 667.396 255.86L451.347 39.8109C442.108 30.5907 429.589 25.4124 416.536 25.4124C403.484 25.4124 390.964 30.5907 381.725 39.8109L39.8108 381.725C30.5907 390.964 25.4124 403.484 25.4124 416.536C25.4124 429.589 30.5907 442.108 39.8109 451.347L255.86 667.396C265.099 676.617 277.619 681.795 290.671 681.795C303.724 681.795 316.243 676.617 325.482 667.396L667.396 325.482C670.824 322.062 673.724 318.151 676.002 313.878V313.878ZM324.068 665.982C315.203 674.826 303.193 679.792 290.671 679.792C278.15 679.792 266.139 674.826 257.274 665.982L41.2251 449.933C32.3817 441.068 27.4153 429.058 27.4153 416.536C27.4153 404.015 32.3817 392.004 41.2251 383.14L383.139 41.2251C392.004 32.3817 404.015 27.4153 416.536 27.4153C429.058 27.4153 441.068 32.3817 449.933 41.2251L665.982 257.275C670.518 261.806 674.081 267.216 676.453 273.172C678.825 279.129 679.956 285.507 679.778 291.916C679.757 292.63 679.721 293.344 679.672 294.058C678.873 305.384 674.012 316.041 665.982 324.068L324.068 665.982Z" stroke="#28166F" stroke-width="6" mask="url(#path-1-outside-1)"/>
<mask id="path-2-outside-2" maskUnits="userSpaceOnUse" x="97.0662" y="96.4279" width="513.36" height="513.36" fill="black">
<rect fill="white" x="97.0662" y="96.4279" width="513.36" height="513.36"/>
<path d="M239.895 548.262C239.584 548.884 239.244 549.492 238.891 550.086L244.137 555.333C245.005 555.314 245.869 555.233 246.725 555.093L239.895 548.262ZM411.729 99.2563L99.8947 411.09L295.41 606.605L607.244 294.771L411.729 99.2563ZM295.41 603.777L102.723 411.09L411.729 102.085L604.415 294.771L295.41 603.777ZM239.895 548.262C239.584 548.884 239.244 549.492 238.891 550.086L244.137 555.333C245.005 555.314 245.869 555.233 246.725 555.093L239.895 548.262Z"/>
</mask>
<path d="M239.895 548.262C239.584 548.884 239.244 549.492 238.891 550.086L244.137 555.333C245.005 555.314 245.869 555.233 246.725 555.093L239.895 548.262ZM411.729 99.2563L99.8947 411.09L295.41 606.605L607.244 294.771L411.729 99.2563ZM295.41 603.777L102.723 411.09L411.729 102.085L604.415 294.771L295.41 603.777ZM239.895 548.262C239.584 548.884 239.244 549.492 238.891 550.086L244.137 555.333C245.005 555.314 245.869 555.233 246.725 555.093L239.895 548.262Z" fill="#28166F"/>
<path d="M239.895 548.262C239.584 548.884 239.244 549.492 238.891 550.086L244.137 555.333C245.005 555.314 245.869 555.233 246.725 555.093L239.895 548.262ZM411.729 99.2563L99.8947 411.09L295.41 606.605L607.244 294.771L411.729 99.2563ZM295.41 603.777L102.723 411.09L411.729 102.085L604.415 294.771L295.41 603.777ZM239.895 548.262C239.584 548.884 239.244 549.492 238.891 550.086L244.137 555.333C245.005 555.314 245.869 555.233 246.725 555.093L239.895 548.262Z" stroke="#28166F" stroke-width="4" mask="url(#path-2-outside-2)"/>
<path d="M381.198 326.766C382.079 324.776 382.824 322.728 383.43 320.638C387.737 305.439 384.372 290.6 376.085 288.227C367.811 285.91 357.137 296.75 352.827 311.946C351.793 315.605 351.189 319.372 351.027 323.171C354.171 321.521 362.33 319.786 381.198 326.766Z" fill="#28166F"/>
<path d="M343.342 297.109L297.11 278H279V282.074L339.372 307.044C340.425 303.63 341.753 300.308 343.342 297.109Z" fill="#28166F"/>
<path d="M397.023 325.312C392.882 339.902 384.536 351.484 374.893 357.246L384 358.127C385.025 357.272 385.985 356.342 386.871 355.344C392.624 348.448 397.183 340.64 400.361 332.241C404.43 322.976 407.034 313.134 408.078 303.069C408.385 299.712 408.204 296.329 407.542 293.024L394.835 286.673C399.945 296.638 401.124 310.821 397.023 325.312Z" fill="#28166F"/>
<path d="M344.012 390.728C343.713 392.362 343.504 394.01 343.385 395.667C347.678 395.557 351.921 394.715 355.931 393.179C352.125 391.694 348.095 390.865 344.012 390.728Z" fill="#28166F"/>
<path d="M413.416 303.521C412.329 314.14 409.591 324.524 405.303 334.298C401.859 343.229 396.987 351.54 390.876 358.906C390.372 359.472 389.684 360.203 388.862 360.982L394.205 361.036H394.283C397.468 361.036 400.677 356.544 402.809 353.56C403.146 353.091 403.462 352.647 403.754 352.25C408.327 345.895 411.996 338.935 414.656 331.572C417.705 323.982 419.619 315.984 420.337 307.837C420.654 304.67 420.521 301.473 419.941 298.344C419.912 298.253 419.885 298.162 419.863 298.076C419.616 296.516 418.655 295.16 417.265 294.409C417.249 294.409 417.238 294.388 417.222 294.382C417.205 294.381 417.188 294.381 417.171 294.382L412.929 292.464C413.586 296.112 413.75 299.831 413.416 303.521Z" fill="#28166F"/>
<path d="M342.394 335.126C343.429 333.08 344.569 331.089 345.809 329.161C345.284 322.873 345.92 316.543 347.684 310.486C352.945 291.883 366.07 279.843 377.547 283.089C389.025 286.336 393.857 303.497 388.586 322.103C387.708 325.21 386.551 328.232 385.13 331.132C385.098 331.202 385.071 331.274 385.039 331.344C382.3 337.343 378.088 342.553 372.796 346.488C370.215 348.171 367.82 350.123 365.652 352.312C364.557 353.471 363.495 354.644 362.464 355.831C374.472 355.044 386.775 341.809 391.872 323.852C397.837 302.774 391.95 282.58 378.747 278.852C372.554 277.1 365.582 279.254 359.092 284.924C351.74 291.772 346.493 300.574 343.966 310.298C341.594 318.353 341.057 326.837 342.394 335.126Z" fill="#28166F"/>
<path d="M393.761 409.25L369.632 380.734C369.123 380.132 368.374 379.785 367.586 379.786H347.229C346.477 381.639 345.821 383.528 345.263 385.448C352.645 386.086 362.036 387.929 362.036 393.179C362.036 399.722 347.456 400.946 340.923 401.15C340.819 401.178 340.714 401.2 340.607 401.214C340.526 401.202 340.446 401.186 340.366 401.166C339.563 401.19 338.759 401.214 337.929 401.214C336.228 401.214 334.714 401.158 333.284 401.07C333.055 401.152 332.815 401.201 332.571 401.214C332.184 401.208 331.803 401.116 331.454 400.946C324.49 400.411 313.821 398.718 313.821 393.179C313.821 387.929 323.282 386.112 330.319 385.488C330.44 383.56 330.587 381.659 330.758 379.786H308.271C307.482 379.784 306.732 380.131 306.222 380.734L282.096 409.25H393.761Z" fill="#28166F"/>
<path d="M408.062 355.44L407.167 356.678C406.489 357.623 405.726 358.689 404.874 359.758C413.922 357.883 422.944 347.394 426.771 333.894C429.662 324.845 429.319 315.072 425.802 306.248C425.764 306.99 425.721 307.649 425.684 308.193C424.929 316.865 422.902 325.378 419.668 333.46C416.833 341.287 412.927 348.684 408.062 355.44Z" fill="#28166F"/>
<path d="M396.857 414.607H279V428H396.857V414.607Z" fill="#28166F"/>
<path d="M344.242 343.984C338.537 358.218 335.55 375.663 335.298 395.804C336.191 395.834 337.114 395.847 338.068 395.844C338.504 389.019 340.16 382.327 342.956 376.087L342.978 376.038C346.122 368.999 350.165 362.398 355.007 356.399C357.08 353.787 359.352 351.173 361.757 348.631C364.182 346.165 366.865 343.966 369.758 342.071C373.518 339.29 376.618 335.713 378.836 331.596C358.631 324.221 353.322 328.03 353.178 328.14C352.299 329.153 351.493 330.227 350.767 331.354C348.162 335.328 345.975 339.56 344.242 343.984Z" fill="#28166F"/>
<path d="M330.032 390.902C326.566 391.118 323.157 391.888 319.934 393.181C323.129 394.467 326.511 395.23 329.949 395.439C329.97 393.92 329.978 392.391 330.032 390.902Z" fill="#28166F"/>
<path d="M316.5 358.357C320.938 358.357 324.536 354.76 324.536 350.322C324.536 345.884 320.938 342.286 316.5 342.286C312.062 342.286 308.464 345.884 308.464 350.322C308.464 354.76 312.062 358.357 316.5 358.357ZM316.5 347.643C317.979 347.643 319.179 348.842 319.179 350.322C319.179 351.801 317.979 353 316.5 353C315.021 353 313.821 351.801 313.821 350.322C313.821 348.842 315.021 347.643 316.5 347.643Z" fill="#28166F"/>
<path d="M300.429 339.607C301.908 339.607 303.107 338.408 303.107 336.929C303.107 335.449 301.908 334.25 300.429 334.25C298.949 334.25 297.75 335.449 297.75 336.929C297.75 338.408 298.949 339.607 300.429 339.607Z" fill="#28166F"/>
<path d="M308.464 326.214C309.944 326.214 311.143 325.015 311.143 323.536C311.143 322.056 309.944 320.857 308.464 320.857C306.985 320.857 305.786 322.056 305.786 323.536C305.786 325.015 306.985 326.214 308.464 326.214Z" fill="#28166F"/>
<g clip-path="url(#clip0)">
<path d="M690.83 593.489H686.043V563.17C686.043 556.947 681.096 552 674.872 552H579.128C572.904 552 567.957 556.947 567.957 563.17V593.489H563.17C557.904 593.489 553.596 597.798 553.596 603.064C553.596 608.33 557.904 612.638 563.17 612.638H567.957V665.138C567.957 672.16 570.032 678.862 573.862 684.606L574.979 686.362C581.521 696.096 592.372 702 604.181 702H649.819C661.628 702 672.479 696.096 679.021 686.362L680.138 684.606C683.968 678.862 686.043 672.16 686.043 665.138V612.638H690.83C696.096 612.638 700.404 608.33 700.404 603.064C700.404 597.798 696.096 593.489 690.83 593.489ZM567.957 609.447H563.17C559.66 609.447 556.787 606.574 556.787 603.064C556.787 599.553 559.66 596.681 563.17 596.681H567.957V609.447ZM585.511 571.149C585.511 570.191 586.149 569.553 587.106 569.553H666.894C667.851 569.553 668.489 570.191 668.489 571.149V579.128C668.489 580.085 667.851 580.723 666.894 580.723C665.936 580.723 665.298 580.085 665.298 579.128V572.745H588.702V579.128C588.702 580.085 588.064 580.723 587.106 580.723C586.149 580.723 585.511 580.085 585.511 579.128V571.149ZM588.702 666.894C588.702 667.851 588.064 668.489 587.106 668.489C586.149 668.489 585.511 667.851 585.511 666.894V642.957C585.511 642 586.149 641.362 587.106 641.362C588.064 641.362 588.702 642 588.702 642.957V666.894ZM668.489 666.894C668.489 667.851 667.851 668.489 666.894 668.489C665.936 668.489 665.298 667.851 665.298 666.894V642.957C665.298 642 665.936 641.362 666.894 641.362C667.851 641.362 668.489 642 668.489 642.957V666.894ZM670.085 634.979C670.085 636.734 668.649 638.17 666.894 638.17H587.106C585.351 638.17 583.915 636.734 583.915 634.979V587.106C583.915 585.351 585.351 583.915 587.106 583.915H666.894C668.649 583.915 670.085 585.351 670.085 587.106V634.979ZM690.83 609.447H686.043V596.681H690.83C694.34 596.681 697.213 599.553 697.213 603.064C697.213 606.574 694.34 609.447 690.83 609.447Z" fill="#28166F"/>
<path d="M590.298 590.298V631.787H663.702V590.298H590.298ZM593.968 609.926L609.926 593.968C610.564 593.33 611.521 593.33 612.16 593.968C612.798 594.606 612.798 595.564 612.16 596.202L596.202 612.16C595.883 612.479 595.564 612.638 595.085 612.638C594.606 612.638 594.287 612.479 593.968 612.16C593.33 611.521 593.33 610.564 593.968 609.926ZM628.117 596.202L596.202 628.117C595.883 628.436 595.564 628.596 595.085 628.596C594.606 628.596 594.287 628.436 593.968 628.117C593.33 627.479 593.33 626.521 593.968 625.883L625.883 593.968C626.521 593.33 627.479 593.33 628.117 593.968C628.755 594.606 628.755 595.564 628.117 596.202Z" fill="#28166F"/>
</g>
<g clip-path="url(#clip1)">
<path d="M152.414 144.655H139.483V136.897C139.483 135.468 138.325 134.31 136.897 134.31H117.914C118.019 133.953 118.105 133.59 118.173 133.224C117.836 133.328 117.474 133.431 117.138 133.509C114.008 134.15 110.814 134.42 107.621 134.31H85.1725C83.7442 134.31 82.5863 135.468 82.5863 136.897V144.655H69.6553C68.227 144.655 67.0691 145.813 67.0691 147.241V152.414C67.0691 153.842 68.227 155 69.6553 155H152.414C153.842 155 155 153.842 155 152.414V147.241C155 145.813 153.842 144.655 152.414 144.655Z" fill="#28166F"/>
<path d="M137.31 106.095C136.707 102.047 135.117 98.2104 132.681 94.9222C132.626 95.4526 132.504 95.974 132.319 96.474C132.19 97.0171 132.034 97.5343 131.879 98.0774C131.569 99.1378 131.207 100.198 130.793 101.233C129.055 105.206 125.916 108.4 121.974 110.207C124.896 100.845 126.319 89.2067 120.371 80.6723C119.927 80.0454 119.452 79.4412 118.948 78.8619C112.641 72.0101 104.411 67.2234 95.3361 65.1292C96.1378 65.2843 97.6637 67.5602 98.2068 68.2067C99.3032 69.4717 100.322 70.8017 101.258 72.1895C103.102 74.7954 104.274 77.8155 104.672 80.9826C104.796 84.3081 103.971 87.6 102.293 90.474C101.431 92.4353 100.437 94.3362 99.3188 96.1636C99.2936 96.221 99.2586 96.2735 99.2154 96.3188C99.2023 94.1751 98.9946 92.037 98.5947 89.9309C98.0257 86.724 96.9913 81.7326 94.1464 79.6895C94.0409 82.3819 93.6771 85.058 93.0602 87.6809C92.0887 90.7587 90.5638 93.6333 88.5602 96.1636C85.0448 100.272 82.9495 105.406 82.5861 110.802C82.4852 123.903 94.5525 134.008 107.083 134.295C105.549 134.168 99.2102 133.082 99.1119 124.172C99.0085 113 109.508 103.948 110.181 103.405C108.5 106.224 109.819 112.043 115.379 118.043C119.879 122.879 118.793 130.405 118.172 133.224C120.648 132.558 122.998 131.493 125.129 130.069C132.81 124.793 138.707 115.689 137.31 106.095Z" fill="#28166F"/>
<path d="M74.8871 80.7577C75.897 81.7673 77.5341 81.7673 78.544 80.7577L85.8526 73.4491C86.8622 72.4392 86.8622 70.8021 85.8526 69.7922L74.8794 58.8189C85.974 47.6992 85.974 29.6972 74.8794 18.5776C73.9066 17.6121 72.8698 16.7135 71.7759 15.8879C66.4376 11.9358 59.892 9.96121 53.2587 10.3017C49.9935 10.4549 46.7807 11.1815 43.7673 12.4482C40.3794 13.8448 37.6121 16.1207 33.9656 16.9741C30.2372 17.8748 26.3311 17.7136 22.6897 16.5086C20.4802 15.8096 18.3815 14.7995 16.4569 13.5086C13.6845 11.6982 11.2354 10.0017 9.08367 8.44221C8.29536 7.88239 7.26061 7.80905 6.40122 8.25208C5.54183 8.69512 5.00133 9.58052 5.00005 10.5474V16.8965C4.99489 17.7431 5.40943 18.5373 6.10694 19.0172C7.55522 20.0155 9.10436 21.0707 10.7621 22.1595C14.8353 24.9031 19.4493 26.7418 24.2932 27.5517C25.8653 27.8169 27.4574 27.9467 29.0518 27.9396C30.9955 27.939 32.9349 27.7572 34.8449 27.3965C37.3871 26.8911 39.855 26.0655 42.1897 24.9396C44.3785 23.6922 46.6316 22.5613 48.9397 21.5517C56.9097 18.8423 65.6956 21.9841 70.1404 29.1329C74.5852 36.2816 73.516 45.5509 67.5604 51.5L58.4207 42.3603C57.4111 41.3524 55.776 41.3524 54.7664 42.3603L47.4397 49.6689C46.9533 50.1541 46.6799 50.8129 46.6799 51.5C46.6799 52.187 46.9533 52.8458 47.4397 53.331L56.5949 62.4655C53.2035 65.8679 48.5971 67.7803 43.7932 67.7803C38.9892 67.7803 34.3828 65.8679 30.9914 62.4655C26.2387 57.7714 24.4939 50.8221 26.4656 44.4396C26.897 42.8231 27.6344 41.3042 28.638 39.9655C29.8933 38.5701 31.043 37.0833 32.0776 35.5172C32.5756 34.6634 33.0079 33.7729 33.3707 32.8534C31.9379 33.0297 30.4954 33.1161 29.0518 33.112C27.1626 33.1188 25.2763 32.963 23.4138 32.6465C22.7673 32.5431 22.1466 32.4138 21.5 32.2844C21.0345 32.8276 20.5949 33.3448 20.1552 33.8879C18.2045 36.5938 16.8392 39.6766 16.1466 42.9396C13.1223 55.3365 18.7227 68.2306 29.8468 74.4822C40.9709 80.7339 54.8969 78.8135 63.9138 69.7844L74.8871 80.7577Z" fill="#28166F"/>
<path d="M26.5174 4.99986H20.1295C19.3583 5.00124 18.628 5.3467 18.1377 5.94199C17.6475 6.53729 17.4485 7.32031 17.595 8.07745C18.1639 8.43952 18.7071 8.82745 19.276 9.18952C20.8124 10.2098 22.4837 11.0107 24.2415 11.5688C25.8261 12.0969 27.4851 12.3676 29.1553 12.3706C30.1282 12.3797 31.0993 12.2843 32.0519 12.0861C31.085 10.0151 29.9519 8.02587 28.6639 6.13779C28.1867 5.4201 27.3792 4.99204 26.5174 4.99986Z" fill="#28166F"/>
<path d="M64.483 126.552C67.3396 126.552 69.6554 124.236 69.6554 121.379C69.6554 118.523 67.3396 116.207 64.483 116.207C61.6263 116.207 59.3105 118.523 59.3105 121.379C59.3105 124.236 61.6263 126.552 64.483 126.552Z" fill="#28166F"/>
<path d="M48.9656 111.034C50.3939 111.034 51.5518 109.877 51.5518 108.448C51.5518 107.02 50.3939 105.862 48.9656 105.862C47.5373 105.862 46.3794 107.02 46.3794 108.448C46.3794 109.877 47.5373 111.034 48.9656 111.034Z" fill="#28166F"/>
<path d="M56.7241 98.1033C58.1525 98.1033 59.3104 96.9454 59.3104 95.5171C59.3104 94.0888 58.1525 92.9309 56.7241 92.9309C55.2958 92.9309 54.1379 94.0888 54.1379 95.5171C54.1379 96.9454 55.2958 98.1033 56.7241 98.1033Z" fill="#28166F"/>
<path d="M142.069 74.8275C144.926 74.8275 147.242 72.5117 147.242 69.6551C147.242 66.7984 144.926 64.4827 142.069 64.4827C139.213 64.4827 136.897 66.7984 136.897 69.6551C136.897 72.5117 139.213 74.8275 142.069 74.8275Z" fill="#28166F"/>
<path d="M121.379 48.9654C122.808 48.9654 123.966 47.8075 123.966 46.3792C123.966 44.9509 122.808 43.793 121.379 43.793C119.951 43.793 118.793 44.9509 118.793 46.3792C118.793 47.8075 119.951 48.9654 121.379 48.9654Z" fill="#28166F"/>
<path d="M134.31 25.6895C135.739 25.6895 136.897 24.5316 136.897 23.1033C136.897 21.675 135.739 20.5171 134.31 20.5171C132.882 20.5171 131.724 21.675 131.724 23.1033C131.724 24.5316 132.882 25.6895 134.31 25.6895Z" fill="#28166F"/>
<path d="M144.655 48.9654C146.083 48.9654 147.241 47.8075 147.241 46.3792C147.241 44.9509 146.083 43.793 144.655 43.793C143.227 43.793 142.069 44.9509 142.069 46.3792C142.069 47.8075 143.227 48.9654 144.655 48.9654Z" fill="#28166F"/>
</g>
<defs>
<clipPath id="clip0">
<rect width="150" height="150" fill="white" transform="translate(552 552)"/>
</clipPath>
<clipPath id="clip1">
<rect width="150" height="150" fill="white" transform="translate(5 5)"/>
</clipPath>
</defs>
</svg>
