<svg width="707" height="707" viewBox="0 0 707 707" fill="none" xmlns="http://www.w3.org/2000/svg">
<g clip-path="url(#clip0)">
<path d="M417.981 293.878H379.447C377.228 289.591 373.925 285.869 369.75 283.117C368.861 282.532 367.728 282.482 366.791 282.988C365.852 283.494 365.268 284.47 365.268 285.536V293.879H342.732V285.534C342.732 284.468 342.148 283.492 341.209 282.986C340.272 282.482 339.14 282.531 338.253 283.116C334.075 285.868 330.772 289.59 328.552 293.878H290.019C283.943 293.878 279 298.821 279 304.897V313.039C279 314.256 279.986 315.242 281.204 315.242C282.421 315.242 283.407 314.256 283.407 313.039V304.897C283.407 301.251 286.373 298.285 290.019 298.285H326.718C325.819 301.09 325.348 304.055 325.352 307.09C325.361 314.496 328.215 321.533 333.386 326.906C335.55 329.153 338.022 331 340.704 332.415V369.001H283.407V323.323C283.407 322.105 282.421 321.119 281.204 321.119C279.986 321.119 279 322.105 279 323.323V381.489C279 387.565 283.943 392.508 290.019 392.508H337.619V404.849H320.944C316.813 404.849 313.452 408.21 313.452 412.341V415.867C313.452 419.999 316.813 423.36 320.944 423.36H387.056C391.187 423.36 394.548 419.999 394.548 415.867V412.341C394.548 408.21 391.187 404.849 387.056 404.849H370.381V392.508H392.662C393.879 392.508 394.866 391.521 394.866 390.304C394.866 389.087 393.879 388.1 392.662 388.1H290.019C286.373 388.1 283.407 385.134 283.407 381.489V373.409H424.593V381.489C424.593 385.134 421.627 388.1 417.981 388.1H402.946C401.729 388.1 400.742 389.087 400.742 390.304C400.742 391.521 401.729 392.508 402.946 392.508H417.981C424.057 392.508 429 387.565 429 381.489V304.897C429 298.821 424.057 293.878 417.981 293.878ZM390.141 412.342V415.868C390.141 417.569 388.757 418.953 387.056 418.953H320.944C319.243 418.953 317.859 417.569 317.859 415.868V412.342C317.859 410.64 319.243 409.256 320.944 409.256H387.056C388.757 409.256 390.141 410.64 390.141 412.342ZM365.974 404.849H342.026V392.508H365.974V404.849ZM365.268 298.286V308.482C365.268 308.557 365.233 308.622 365.168 308.66L354.104 315.326C354.041 315.364 353.959 315.364 353.894 315.325L342.827 308.658C342.767 308.622 342.732 308.557 342.732 308.482V298.286H365.268ZM329.759 307.085C329.75 299.88 332.905 293.145 338.324 288.558V308.482C338.324 310.096 339.182 311.612 340.557 312.436L351.619 319.099C353.088 319.986 354.913 319.986 356.38 319.1L367.438 312.439C368.818 311.612 369.676 310.096 369.676 308.482V288.558C375.085 293.138 378.241 299.861 378.241 307.052C378.241 313.702 375.602 319.905 370.81 324.518C368.854 326.401 366.643 327.907 364.26 329.022C364.184 329.053 364.11 329.087 364.038 329.126C360.645 330.672 356.908 331.419 353.05 331.274C340.224 330.786 329.776 319.934 329.759 307.085ZM345.112 334.285C347.6 335.1 350.209 335.577 352.881 335.678C353.26 335.693 353.636 335.7 354.013 335.7C357.074 335.7 360.058 335.217 362.888 334.297V369.001H345.112V334.285ZM367.296 369.002V332.444C369.667 331.197 371.878 329.608 373.866 327.694C379.529 322.243 382.648 314.912 382.648 307.052C382.648 304.03 382.177 301.079 381.282 298.286H417.981C421.627 298.286 424.593 301.252 424.593 304.897V369.002H367.296Z" fill="#28166F"/>
</g>
<path d="M557.316 662.133H554.457C550.581 662.133 547.426 665.288 547.426 669.164V671.508C547.426 672.804 548.473 673.852 549.77 673.852H596.631C597.927 673.852 598.974 672.804 598.974 671.508V669.164C598.974 665.288 595.82 662.133 591.943 662.133H589.084L587.914 657.455H615.362C619.238 657.455 622.393 654.3 622.393 650.423V587.18C622.393 583.303 619.238 580.148 615.362 580.148H531.038C527.162 580.148 524.007 583.303 524.007 587.18V650.423C524.007 654.3 527.162 657.455 531.038 657.455H558.486L557.316 662.133ZM554.457 666.82H591.943C593.237 666.82 594.287 667.87 594.287 669.164H552.113C552.113 667.87 553.163 666.82 554.457 666.82ZM584.256 662.133H562.145L563.314 657.455H583.086L584.256 662.133ZM531.038 584.836H615.364C616.658 584.836 617.708 585.886 617.708 587.18V643.392H528.695V587.18C528.695 585.886 529.745 584.836 531.038 584.836ZM528.695 650.423V648.08H573.247C571.953 648.08 570.917 649.127 570.917 650.423C570.917 651.72 571.977 652.767 573.273 652.767C574.566 652.767 575.616 651.72 575.616 650.423C575.616 649.127 574.566 648.08 573.273 648.08H617.708V650.423C617.708 651.717 616.658 652.767 615.364 652.767H573.27H531.038C529.745 652.767 528.695 651.717 528.695 650.423Z" fill="#28166F"/>
<path d="M666.962 580.148H634.147C630.27 580.148 627.116 583.303 627.116 587.18V666.82C627.116 670.697 630.27 673.852 634.147 673.852H666.962C670.838 673.852 673.993 670.697 673.993 666.82V587.18C673.993 583.301 670.838 580.148 666.962 580.148ZM631.803 594.202H669.306V596.541H631.803V594.202ZM634.147 584.836H666.962C668.256 584.836 669.306 585.886 669.306 587.18V589.514H631.803V587.18C631.803 585.886 632.853 584.836 634.147 584.836ZM666.962 669.164H634.147C632.853 669.164 631.803 668.114 631.803 666.82V601.228H669.306V666.82C669.306 668.114 668.256 669.164 666.962 669.164Z" fill="#28166F"/>
<path d="M650.556 629.353C654.432 629.353 657.587 626.198 657.587 622.322C657.587 618.445 654.432 615.291 650.556 615.291C646.679 615.291 643.524 618.445 643.524 622.322C643.524 626.198 646.679 629.353 650.556 629.353ZM650.556 619.978C651.849 619.978 652.899 621.028 652.899 622.322C652.899 623.616 651.849 624.666 650.556 624.666C649.262 624.666 648.212 623.616 648.212 622.322C648.212 621.028 649.262 619.978 650.556 619.978Z" fill="#28166F"/>
<path d="M659.93 643.42H641.18C639.884 643.42 638.837 644.468 638.837 645.764C638.837 647.06 639.884 648.108 641.18 648.108H659.93C661.227 648.108 662.274 647.06 662.274 645.764C662.274 644.468 661.227 643.42 659.93 643.42Z" fill="#28166F"/>
<path d="M659.93 650.452H641.18C639.884 650.452 638.837 651.499 638.837 652.795C638.837 654.091 639.884 655.139 641.18 655.139H659.93C661.227 655.139 662.274 654.091 662.274 652.795C662.274 651.499 661.227 650.452 659.93 650.452Z" fill="#28166F"/>
<path d="M659.93 657.483H641.18C639.884 657.483 638.837 658.53 638.837 659.827C638.837 661.123 639.884 662.17 641.18 662.17H659.93C661.227 662.17 662.274 661.123 662.274 659.827C662.274 658.53 661.227 657.483 659.93 657.483Z" fill="#28166F"/>
<mask id="path-8-outside-1" maskUnits="userSpaceOnUse" x="0.757353" y="0.757359" width="705.693" height="705.693" fill="black">
<rect fill="white" x="0.757353" y="0.757359" width="705.693" height="705.693"/>
<path d="M676.002 313.878C678.793 308.654 680.614 302.966 681.376 297.092C681.651 294.996 681.793 292.884 681.8 290.77C681.822 284.289 680.56 277.867 678.088 271.875C675.616 265.884 671.982 260.441 667.396 255.86L451.347 39.8109C442.108 30.5907 429.589 25.4124 416.536 25.4124C403.484 25.4124 390.964 30.5907 381.725 39.8109L39.8108 381.725C30.5907 390.964 25.4124 403.484 25.4124 416.536C25.4124 429.589 30.5907 442.108 39.8109 451.347L255.86 667.396C265.099 676.617 277.619 681.795 290.671 681.795C303.724 681.795 316.243 676.617 325.482 667.396L667.396 325.482C670.824 322.062 673.724 318.151 676.002 313.878ZM324.068 665.982C315.203 674.826 303.193 679.792 290.671 679.792C278.15 679.792 266.139 674.826 257.274 665.982L41.2251 449.933C32.3817 441.068 27.4153 429.058 27.4153 416.536C27.4153 404.015 32.3817 392.004 41.2251 383.14L383.139 41.2251C392.004 32.3817 404.015 27.4153 416.536 27.4153C429.058 27.4153 441.068 32.3817 449.933 41.2251L665.982 257.275C670.518 261.806 674.081 267.216 676.453 273.172C678.825 279.129 679.956 285.507 679.778 291.916C679.757 292.63 679.721 293.344 679.672 294.058C678.873 305.384 674.012 316.041 665.982 324.068L324.068 665.982Z"/>
</mask>
<path d="M676.002 313.878C678.793 308.654 680.614 302.966 681.376 297.092C681.651 294.996 681.793 292.884 681.8 290.77C681.822 284.289 680.56 277.867 678.088 271.875C675.616 265.884 671.982 260.441 667.396 255.86L451.347 39.8109C442.108 30.5907 429.589 25.4124 416.536 25.4124C403.484 25.4124 390.964 30.5907 381.725 39.8109L39.8108 381.725C30.5907 390.964 25.4124 403.484 25.4124 416.536C25.4124 429.589 30.5907 442.108 39.8109 451.347L255.86 667.396C265.099 676.617 277.619 681.795 290.671 681.795C303.724 681.795 316.243 676.617 325.482 667.396L667.396 325.482C670.824 322.062 673.724 318.151 676.002 313.878ZM324.068 665.982C315.203 674.826 303.193 679.792 290.671 679.792C278.15 679.792 266.139 674.826 257.274 665.982L41.2251 449.933C32.3817 441.068 27.4153 429.058 27.4153 416.536C27.4153 404.015 32.3817 392.004 41.2251 383.14L383.139 41.2251C392.004 32.3817 404.015 27.4153 416.536 27.4153C429.058 27.4153 441.068 32.3817 449.933 41.2251L665.982 257.275C670.518 261.806 674.081 267.216 676.453 273.172C678.825 279.129 679.956 285.507 679.778 291.916C679.757 292.63 679.721 293.344 679.672 294.058C678.873 305.384 674.012 316.041 665.982 324.068L324.068 665.982Z" fill="#28166F"/>
<path d="M676.002 313.878C678.793 308.654 680.614 302.966 681.376 297.092C681.651 294.996 681.793 292.884 681.8 290.77C681.822 284.289 680.56 277.867 678.088 271.875C675.616 265.884 671.982 260.441 667.396 255.86L451.347 39.8109C442.108 30.5907 429.589 25.4124 416.536 25.4124C403.484 25.4124 390.964 30.5907 381.725 39.8109L39.8108 381.725C30.5907 390.964 25.4124 403.484 25.4124 416.536C25.4124 429.589 30.5907 442.108 39.8109 451.347L255.86 667.396C265.099 676.617 277.619 681.795 290.671 681.795C303.724 681.795 316.243 676.617 325.482 667.396L667.396 325.482C670.824 322.062 673.724 318.151 676.002 313.878ZM324.068 665.982C315.203 674.826 303.193 679.792 290.671 679.792C278.15 679.792 266.139 674.826 257.274 665.982L41.2251 449.933C32.3817 441.068 27.4153 429.058 27.4153 416.536C27.4153 404.015 32.3817 392.004 41.2251 383.14L383.139 41.2251C392.004 32.3817 404.015 27.4153 416.536 27.4153C429.058 27.4153 441.068 32.3817 449.933 41.2251L665.982 257.275C670.518 261.806 674.081 267.216 676.453 273.172C678.825 279.129 679.956 285.507 679.778 291.916C679.757 292.63 679.721 293.344 679.672 294.058C678.873 305.384 674.012 316.041 665.982 324.068L324.068 665.982Z" stroke="#28166F" stroke-width="6" mask="url(#path-8-outside-1)"/>
<mask id="path-9-outside-2" maskUnits="userSpaceOnUse" x="97.0662" y="96.4279" width="513.36" height="513.36" fill="black">
<rect fill="white" x="97.0662" y="96.4279" width="513.36" height="513.36"/>
<path d="M239.895 548.262C239.584 548.884 239.244 549.492 238.891 550.086L244.137 555.333C245.005 555.314 245.869 555.233 246.725 555.093L239.895 548.262ZM411.729 99.2564L99.8947 411.09L295.41 606.605L607.244 294.771L411.729 99.2564ZM295.41 603.777L102.723 411.09L411.729 102.085L604.415 294.771L295.41 603.777ZM239.895 548.262C239.584 548.884 239.244 549.492 238.891 550.086L244.137 555.333C245.005 555.314 245.869 555.233 246.725 555.093L239.895 548.262Z"/>
</mask>
<path d="M239.895 548.262C239.584 548.884 239.244 549.492 238.891 550.086L244.137 555.333C245.005 555.314 245.869 555.233 246.725 555.093L239.895 548.262ZM411.729 99.2564L99.8947 411.09L295.41 606.605L607.244 294.771L411.729 99.2564ZM295.41 603.777L102.723 411.09L411.729 102.085L604.415 294.771L295.41 603.777ZM239.895 548.262C239.584 548.884 239.244 549.492 238.891 550.086L244.137 555.333C245.005 555.314 245.869 555.233 246.725 555.093L239.895 548.262Z" fill="#28166F"/>
<path d="M239.895 548.262C239.584 548.884 239.244 549.492 238.891 550.086L244.137 555.333C245.005 555.314 245.869 555.233 246.725 555.093L239.895 548.262ZM411.729 99.2564L99.8947 411.09L295.41 606.605L607.244 294.771L411.729 99.2564ZM295.41 603.777L102.723 411.09L411.729 102.085L604.415 294.771L295.41 603.777ZM239.895 548.262C239.584 548.884 239.244 549.492 238.891 550.086L244.137 555.333C245.005 555.314 245.869 555.233 246.725 555.093L239.895 548.262Z" stroke="#28166F" stroke-width="4" mask="url(#path-9-outside-2)"/>
<g clip-path="url(#clip1)">
<path d="M80.353 136.443C90.0311 136.443 97.8768 128.598 97.8768 118.919C97.8768 109.241 90.0311 101.396 80.353 101.396C70.6748 101.396 62.8291 109.241 62.8291 118.919C62.8291 128.598 70.6748 136.443 80.353 136.443Z" fill="#28166F"/>
<path d="M122.234 76.6988C121.974 76.4316 121.699 76.1932 121.432 75.9476L120.645 75.2036C120.515 75.0664 120.37 74.9652 120.204 74.8352C97.5444 54.2487 62.8652 55.0649 41.2385 76.6916L38.7031 79.2342L35.1925 82.7448C30.9163 87.021 30.938 93.9915 35.2214 98.275C39.5121 102.573 46.4826 102.58 50.7516 98.3039L56.8048 92.2507C70.558 78.5047 92.9287 78.5047 106.675 92.2435L111.045 96.4764C115.278 100.709 122.183 100.702 126.438 96.4402C128.496 94.3888 129.631 91.6512 129.638 88.7402C129.645 85.8436 128.525 83.1059 126.467 81.0617L122.234 76.6988Z" fill="#28166F"/>
<path d="M152.088 55.036L148.448 51.3955C148.433 51.381 148.426 51.3594 148.397 51.3521L145.522 48.4628C145.017 47.9644 144.468 47.531 143.89 47.1554C106.957 14.7298 50.781 15.7266 15.0255 50.1242C14.8521 50.2831 14.6571 50.3914 14.4837 50.5648L7.9105 57.1453C4.00989 61.0386 4.03156 67.3735 7.95384 71.2958C11.8689 75.2109 18.2038 75.2397 22.1044 71.3319L28.6776 64.7659C28.721 64.7081 28.7571 64.6575 28.8004 64.6214C57.7155 36.6887 103.584 36.5154 132.73 64.0508L137.902 69.2299C141.795 73.1233 148.145 73.1089 152.06 69.1938C155.967 65.2715 155.982 58.9294 152.088 55.036Z" fill="#28166F"/>
</g>
<defs>
<clipPath id="clip0">
<rect width="150" height="150" fill="white" transform="translate(279 278)"/>
</clipPath>
<clipPath id="clip1">
<rect width="150" height="150" fill="white" transform="translate(5 5)"/>
</clipPath>
</defs>
</svg>
