<svg width="707" height="707" viewBox="0 0 707 707" fill="none" xmlns="http://www.w3.org/2000/svg">
<mask id="path-1-outside-1" maskUnits="userSpaceOnUse" x="0.757367" y="0.757359" width="705.693" height="705.693" fill="black">
<rect fill="white" x="0.757367" y="0.757359" width="705.693" height="705.693"/>
<path d="M31.2054 313.878C28.4142 308.654 26.5934 302.966 25.8314 297.092C25.5559 294.996 25.4142 292.884 25.4071 290.77C25.3853 284.289 26.6468 277.867 29.119 271.875C31.5911 265.884 35.2249 260.441 39.8109 255.86L255.86 39.8109C265.099 30.5907 277.619 25.4124 290.671 25.4124C303.724 25.4124 316.243 30.5907 325.482 39.8109L667.396 381.725C676.617 390.964 681.795 403.484 681.795 416.536C681.795 429.589 676.617 442.108 667.396 451.347L451.347 667.396C442.108 676.617 429.589 681.795 416.536 681.795C403.484 681.795 390.964 676.617 381.725 667.396L39.8109 325.482C36.3834 322.062 33.4832 318.151 31.2054 313.878V313.878ZM383.14 665.982C392.004 674.826 404.015 679.792 416.536 679.792C429.058 679.792 441.068 674.826 449.933 665.982L665.982 449.933C674.826 441.068 679.792 429.058 679.792 416.536C679.792 404.015 674.826 392.004 665.982 383.14L324.068 41.2251C315.203 32.3817 303.193 27.4153 290.671 27.4153C278.15 27.4153 266.139 32.3817 257.274 41.2251L41.2251 257.275C36.6895 261.806 33.1265 267.216 30.7544 273.172C28.3822 279.129 27.2508 285.507 27.4294 291.916C27.4506 292.63 27.486 293.344 27.5355 294.058C28.3342 305.384 33.1954 316.041 41.2251 324.068L383.14 665.982Z"/>
</mask>
<path d="M31.2054 313.878C28.4142 308.654 26.5934 302.966 25.8314 297.092C25.5559 294.996 25.4142 292.884 25.4071 290.77C25.3853 284.289 26.6468 277.867 29.119 271.875C31.5911 265.884 35.2249 260.441 39.8109 255.86L255.86 39.8109C265.099 30.5907 277.619 25.4124 290.671 25.4124C303.724 25.4124 316.243 30.5907 325.482 39.8109L667.396 381.725C676.617 390.964 681.795 403.484 681.795 416.536C681.795 429.589 676.617 442.108 667.396 451.347L451.347 667.396C442.108 676.617 429.589 681.795 416.536 681.795C403.484 681.795 390.964 676.617 381.725 667.396L39.8109 325.482C36.3834 322.062 33.4832 318.151 31.2054 313.878V313.878ZM383.14 665.982C392.004 674.826 404.015 679.792 416.536 679.792C429.058 679.792 441.068 674.826 449.933 665.982L665.982 449.933C674.826 441.068 679.792 429.058 679.792 416.536C679.792 404.015 674.826 392.004 665.982 383.14L324.068 41.2251C315.203 32.3817 303.193 27.4153 290.671 27.4153C278.15 27.4153 266.139 32.3817 257.274 41.2251L41.2251 257.275C36.6895 261.806 33.1265 267.216 30.7544 273.172C28.3822 279.129 27.2508 285.507 27.4294 291.916C27.4506 292.63 27.486 293.344 27.5355 294.058C28.3342 305.384 33.1954 316.041 41.2251 324.068L383.14 665.982Z" fill="#28166F"/>
<path d="M31.2054 313.878C28.4142 308.654 26.5934 302.966 25.8314 297.092C25.5559 294.996 25.4142 292.884 25.4071 290.77C25.3853 284.289 26.6468 277.867 29.119 271.875C31.5911 265.884 35.2249 260.441 39.8109 255.86L255.86 39.8109C265.099 30.5907 277.619 25.4124 290.671 25.4124C303.724 25.4124 316.243 30.5907 325.482 39.8109L667.396 381.725C676.617 390.964 681.795 403.484 681.795 416.536C681.795 429.589 676.617 442.108 667.396 451.347L451.347 667.396C442.108 676.617 429.589 681.795 416.536 681.795C403.484 681.795 390.964 676.617 381.725 667.396L39.8109 325.482C36.3834 322.062 33.4832 318.151 31.2054 313.878V313.878ZM383.14 665.982C392.004 674.826 404.015 679.792 416.536 679.792C429.058 679.792 441.068 674.826 449.933 665.982L665.982 449.933C674.826 441.068 679.792 429.058 679.792 416.536C679.792 404.015 674.826 392.004 665.982 383.14L324.068 41.2251C315.203 32.3817 303.193 27.4153 290.671 27.4153C278.15 27.4153 266.139 32.3817 257.274 41.2251L41.2251 257.275C36.6895 261.806 33.1265 267.216 30.7544 273.172C28.3822 279.129 27.2508 285.507 27.4294 291.916C27.4506 292.63 27.486 293.344 27.5355 294.058C28.3342 305.384 33.1954 316.041 41.2251 324.068L383.14 665.982Z" stroke="#28166F" stroke-width="6" mask="url(#path-1-outside-1)"/>
<mask id="path-2-outside-2" maskUnits="userSpaceOnUse" x="96.7815" y="96.4279" width="513.36" height="513.36" fill="black">
<rect fill="white" x="96.7815" y="96.4279" width="513.36" height="513.36"/>
<path d="M467.313 548.262C467.624 548.884 467.963 549.492 468.317 550.086L463.07 555.333C462.203 555.314 461.338 555.233 460.482 555.093L467.313 548.262ZM295.479 99.2563L607.313 411.09L411.798 606.605L99.9635 294.771L295.479 99.2563ZM411.798 603.777L604.484 411.09L295.479 102.085L102.792 294.771L411.798 603.777ZM467.313 548.262C467.624 548.884 467.963 549.492 468.317 550.086L463.07 555.333C462.203 555.314 461.338 555.233 460.482 555.093L467.313 548.262Z"/>
</mask>
<path d="M467.313 548.262C467.624 548.884 467.963 549.492 468.317 550.086L463.07 555.333C462.203 555.314 461.338 555.233 460.482 555.093L467.313 548.262ZM295.479 99.2563L607.313 411.09L411.798 606.605L99.9635 294.771L295.479 99.2563ZM411.798 603.777L604.484 411.09L295.479 102.085L102.792 294.771L411.798 603.777ZM467.313 548.262C467.624 548.884 467.963 549.492 468.317 550.086L463.07 555.333C462.203 555.314 461.338 555.233 460.482 555.093L467.313 548.262Z" fill="#28166F"/>
<path d="M467.313 548.262C467.624 548.884 467.963 549.492 468.317 550.086L463.07 555.333C462.203 555.314 461.338 555.233 460.482 555.093L467.313 548.262ZM295.479 99.2563L607.313 411.09L411.798 606.605L99.9635 294.771L295.479 99.2563ZM411.798 603.777L604.484 411.09L295.479 102.085L102.792 294.771L411.798 603.777ZM467.313 548.262C467.624 548.884 467.963 549.492 468.317 550.086L463.07 555.333C462.203 555.314 461.338 555.233 460.482 555.093L467.313 548.262Z" stroke="#28166F" stroke-width="4" mask="url(#path-2-outside-2)"/>
<path d="M676.266 67.6953H676.294C677.276 67.699 678.216 68.0922 678.909 68.7886C679.601 69.485 679.989 70.4278 679.988 71.41C679.986 72.3922 679.594 73.3335 678.899 74.0274C678.204 74.7212 677.262 75.1109 676.28 75.1109C675.298 75.1109 674.356 74.7212 673.66 74.0274C672.965 73.3335 672.574 72.3922 672.572 71.41C672.57 70.4278 672.958 69.485 673.651 68.7886C674.343 68.0922 675.284 67.699 676.266 67.6953V67.6953Z" fill="#28166F"/>
<path d="M680.821 103.491L672.405 103.429C672.214 103.427 672.032 103.35 671.898 103.214C671.764 103.078 671.689 102.894 671.69 102.703L671.749 94.6548L681.605 94.7301L681.546 102.776C681.546 102.87 681.527 102.964 681.49 103.051C681.453 103.138 681.399 103.217 681.332 103.283C681.194 103.415 681.011 103.489 680.821 103.491V103.491Z" fill="#28166F"/>
<path d="M681.409 41.9795C683.885 41.9933 687.116 42.012 689.145 42.027C691.886 42.0469 694.124 43.282 694.716 45.0999C694.899 45.6694 695.051 46.2487 695.171 46.8352L684.049 46.7391L681.409 41.9795Z" fill="#28166F"/>
<path d="M605.875 40.1562H605.947C608.163 40.1725 610.302 40.9682 611.99 42.4038C613.678 43.8394 614.806 45.8234 615.178 48.0078L596.6 47.878C597.004 45.7118 598.152 43.7546 599.845 42.3448C601.539 40.9349 603.672 40.1608 605.875 40.1562V40.1562Z" fill="#28166F"/>
<path d="M605.977 36.084C602.675 36.0588 599.478 37.2416 596.987 39.4095C594.497 41.5774 592.885 44.5811 592.454 47.8549L582.651 47.7828L591.963 30.969C595.901 24.033 599.437 21.1133 603.763 21.1133H603.833L659.007 21.4648C665.199 21.5105 669.08 27.703 670.843 31.407C670.862 31.4454 670.881 31.4691 670.902 31.5063L680.335 48.5111L619.323 48.0579C618.936 44.7798 617.368 41.7551 614.911 39.5508C612.454 37.3465 609.278 36.1139 605.977 36.084V36.084Z" fill="#28166F"/>
<path d="M567.764 45.9002C567.892 45.3144 568.053 44.7361 568.246 44.1682C568.864 42.3591 571.125 41.1471 573.861 41.1776C575.885 41.1925 579.119 41.2069 581.592 41.2162L578.958 45.9869L567.764 45.9002Z" fill="#28166F"/>
<path d="M600.152 74.9731C604.643 74.9731 609.033 76.3048 612.767 78.7999C616.501 81.295 619.412 84.8414 621.131 88.9907C622.849 93.1399 623.299 97.7056 622.422 102.11C621.546 106.515 619.383 110.561 616.208 113.737C613.032 116.912 608.986 119.075 604.581 119.951C600.176 120.827 595.61 120.377 591.461 118.658C587.312 116.939 583.766 114.028 581.271 110.294C578.776 106.56 577.445 102.169 577.445 97.6782C577.452 91.6584 579.847 85.8873 584.104 81.6308C588.361 77.3743 594.132 74.98 600.152 74.9731V74.9731ZM587.779 92.2434L601.922 106.051C602.305 106.425 602.819 106.634 603.355 106.634C603.89 106.634 604.404 106.425 604.787 106.051L612.637 98.3869C612.833 98.1993 612.989 97.975 613.097 97.7268C613.204 97.4787 613.262 97.2116 613.267 96.941C613.271 96.6705 613.221 96.4017 613.121 96.1503C613.021 95.8988 612.872 95.6697 612.683 95.476C612.494 95.2824 612.269 95.1281 612.02 95.022C611.771 94.916 611.503 94.8602 611.233 94.858C610.962 94.8558 610.694 94.9071 610.443 95.0091C610.192 95.1111 609.964 95.2617 609.772 95.4522L603.356 101.717L590.645 89.3084C590.256 88.9284 589.731 88.7186 589.188 88.7251C588.644 88.7316 588.125 88.9539 587.745 89.3431C587.365 89.7323 587.155 90.2565 587.161 90.8004C587.168 91.3443 587.39 91.8634 587.779 92.2434V92.2434Z" fill="#28166F"/>
<path d="M568.323 90.8469C569.162 86.9684 570.717 83.2802 572.906 79.9707C573.151 79.6037 573.271 79.1675 573.248 78.727C573.225 78.2865 573.061 77.865 572.78 77.5253L567.946 71.6879L574.178 65.3759L579.997 70.1943C580.332 70.4724 580.748 70.6362 581.183 70.6621C581.618 70.688 582.05 70.5745 582.416 70.3382C585.743 68.1599 589.437 66.6016 593.319 65.7386C593.747 65.6368 594.132 65.4032 594.421 65.0708C594.709 64.7383 594.886 64.3238 594.927 63.8855L595.656 56.2695H604.647L605.376 63.8844C605.418 64.32 605.595 64.7314 605.884 65.0601C606.173 65.3888 606.558 65.6179 606.985 65.7148C610.864 66.5583 614.552 68.1164 617.862 70.3098C618.228 70.5552 618.664 70.676 619.104 70.6541C619.545 70.6323 619.967 70.469 620.307 70.1885L626.135 65.365L632.463 71.6952L627.637 77.5253C627.359 77.861 627.195 78.2767 627.169 78.7119C627.143 79.1471 627.257 79.5792 627.493 79.9455C629.672 83.2725 631.23 86.9662 632.093 90.8481C632.195 91.2762 632.428 91.6616 632.761 91.95C633.093 92.2384 633.508 92.4153 633.946 92.4559L641.563 93.1836V102.174L633.947 102.904C633.512 102.945 633.1 103.123 632.772 103.411C632.443 103.7 632.214 104.085 632.117 104.512C631.273 108.392 629.715 112.081 627.522 115.391C627.276 115.757 627.155 116.193 627.177 116.634C627.199 117.074 627.362 117.496 627.643 117.836L632.466 123.664L626.136 129.992L620.306 125.166C619.97 124.888 619.555 124.724 619.12 124.698C618.684 124.672 618.252 124.786 617.886 125.022C614.559 127.2 610.865 128.759 606.983 129.622C606.562 129.701 606.178 129.915 605.889 130.23C605.599 130.546 605.419 130.947 605.376 131.373L604.647 138.887H595.656L594.927 131.374C594.884 130.944 594.705 130.539 594.416 130.219C594.126 129.899 593.742 129.68 593.319 129.594C589.441 128.759 585.752 127.209 582.442 125.024C582.074 124.78 581.638 124.661 581.197 124.686C580.757 124.71 580.335 124.875 579.997 125.158L574.168 129.988L567.84 123.66L572.667 117.833C572.945 117.497 573.109 117.081 573.135 116.646C573.161 116.211 573.047 115.779 572.811 115.413C570.633 112.086 569.074 108.393 568.211 104.511C568.119 104.086 567.895 103.702 567.571 103.413C567.246 103.124 566.838 102.946 566.406 102.903L558.946 102.178V93.1836L566.515 92.4541C566.948 92.4124 567.356 92.2342 567.681 91.9454C568.006 91.6565 568.231 91.2718 568.323 90.8469V90.8469ZM600.152 124.488C605.454 124.488 610.637 122.916 615.046 119.97C619.454 117.025 622.89 112.838 624.92 107.939C626.949 103.041 627.48 97.6502 626.445 92.4499C625.411 87.2496 622.858 82.4727 619.108 78.7235C615.359 74.9742 610.582 72.421 605.382 71.3865C600.182 70.3521 594.791 70.883 589.893 72.912C584.994 74.9411 580.807 78.3772 577.862 82.7858C574.916 87.1944 573.343 92.3776 573.343 97.6798C573.352 104.787 576.179 111.601 581.204 116.627C586.23 121.653 593.044 124.48 600.152 124.488V124.488Z" fill="#28166F"/>
<path d="M636.211 64.1797H636.195C635.929 64.1764 635.664 64.2257 635.417 64.3248C635.169 64.4239 634.944 64.5708 634.754 64.7572C634.563 64.9435 634.411 65.1656 634.307 65.4107C634.202 65.6558 634.147 65.9192 634.144 66.1857L634.134 67.5816L627.715 61.1548C627.354 60.7931 626.871 60.579 626.361 60.5544C625.851 60.5298 625.35 60.6965 624.956 61.0218L618.838 66.0869C615.872 64.3037 612.667 62.9542 609.318 62.0797L608.551 54.0676C608.504 53.5554 608.269 53.0785 607.893 52.728C607.516 52.3776 607.024 52.1782 606.51 52.168H593.795C593.281 52.1781 592.788 52.3774 592.411 52.7277C592.035 53.0781 591.801 53.555 591.754 54.0673L590.986 62.0568C587.644 62.949 584.444 64.3046 581.478 66.084L575.347 61.0121C574.951 60.6854 574.448 60.5187 573.936 60.5449C573.423 60.5711 572.94 60.7883 572.58 61.1536L571.549 62.1986L571.336 60.49C571.372 58.2548 572.191 56.103 573.65 54.4095C574.338 53.6134 575.189 52.975 576.145 52.5376C577.102 52.1002 578.141 51.8742 579.193 51.875H579.209C579.225 51.875 579.24 51.9283 579.256 51.928L683.818 52.7539H683.834C683.946 52.732 684.057 52.7012 684.165 52.6619C687.782 52.9054 691.369 56.1272 691.386 61.4111L687.961 86.9434C687.949 87.0088 687.943 87.075 687.942 87.1414C687.937 87.5944 687.843 88.0419 687.664 88.4583C687.486 88.8747 687.227 89.2518 686.903 89.5681C686.579 89.8844 686.195 90.1337 685.775 90.3016C685.354 90.4696 684.904 90.5529 684.451 90.5469H684.424L645.326 90.3002C645.166 90.0064 644.935 89.7571 644.654 89.5746C644.373 89.3922 644.052 89.2823 643.718 89.2549L635.751 88.4999C634.863 85.1612 633.511 81.9634 631.735 78.9998L636.289 73.5055C636.806 73.4728 637.292 73.2454 637.648 72.8693C638.004 72.4931 638.204 71.996 638.208 71.4781L638.247 66.2152C638.249 65.9473 638.198 65.6815 638.096 65.4335C637.995 65.1855 637.845 64.9602 637.655 64.7708C637.466 64.5813 637.24 64.4315 636.992 64.33C636.744 64.2285 636.479 64.1774 636.211 64.1797V64.1797ZM676.209 79.1211H676.267C678.325 79.1133 680.295 78.2895 681.746 76.8305C683.197 75.3714 684.01 73.3963 684.006 71.3387C684.002 69.2811 683.182 67.3091 681.726 65.8556C680.269 64.402 678.296 63.5856 676.238 63.5856C674.18 63.5856 672.207 64.402 670.751 65.8556C669.294 67.3091 668.474 69.2811 668.47 71.3387C668.466 73.3963 669.279 75.3714 670.73 76.8305C672.181 78.2895 674.151 79.1133 676.209 79.1211V79.1211ZM655.75 73.5547H655.766C656.031 73.5605 656.295 73.5137 656.542 73.4169C656.789 73.3202 657.014 73.1754 657.205 72.991C657.396 72.8066 657.548 72.5862 657.653 72.3425C657.758 72.0989 657.814 71.8369 657.817 71.5716L657.856 66.2618C657.862 65.7158 657.651 65.1896 657.269 64.7992C656.887 64.4087 656.366 64.1859 655.82 64.1797H655.804C655.259 64.1893 654.739 64.4123 654.355 64.8007C653.972 65.1892 653.756 65.7123 653.754 66.258L653.715 71.52C653.713 71.7879 653.764 72.0535 653.865 72.3014C653.967 72.5492 654.117 72.7744 654.306 72.9638C654.496 73.1531 654.721 73.3029 654.969 73.4044C655.217 73.5058 655.483 73.5569 655.75 73.5547V73.5547ZM645.946 73.5547H645.962C646.501 73.5584 647.02 73.3478 647.405 72.9692C647.789 72.5906 648.008 72.0749 648.012 71.5353L648.051 66.2437C648.054 65.9743 648.003 65.7071 647.902 65.4574C647.801 65.2076 647.652 64.9803 647.463 64.7885C647.274 64.5967 647.048 64.4442 646.8 64.3397C646.552 64.2352 646.285 64.1808 646.016 64.1797H646.001C645.459 64.1811 644.939 64.3964 644.555 64.7789C644.171 65.1613 643.954 65.68 643.95 66.222L643.911 71.5022C643.909 71.7709 643.959 72.0375 644.061 72.2864C644.162 72.5354 644.311 72.7619 644.501 72.9527C644.69 73.1436 644.915 73.295 645.163 73.3984C645.411 73.5017 645.677 73.5548 645.946 73.5547V73.5547Z" fill="#28166F"/>
<g clip-path="url(#clip0)">
<path d="M62.0259 680.564C62.0259 682.044 60.8268 683.243 59.3475 683.243H40.599C39.1197 683.243 37.9206 682.044 37.9206 680.564V672.529H62.0259V680.564Z" fill="#28166F"/>
<path d="M142.377 660.048C139.244 661.855 136.51 664.279 134.342 667.173H35.2421C33.7629 667.173 32.5638 665.974 32.5638 664.494V659.137H142.377V660.048Z" fill="#28166F"/>
<path d="M146.242 664.05C147.157 663.596 147.735 662.661 147.731 661.639V592.345C147.735 591.323 147.157 590.388 146.242 589.934C139.173 586.409 134.611 579.287 134.363 571.393C134.115 563.498 138.222 556.104 145.055 552.143V565.395C145.052 568.332 146.254 571.141 148.38 573.166C150.507 575.192 153.371 576.255 156.305 576.108C162.114 575.683 166.58 570.796 166.482 564.972V552.142C173.338 556.101 177.456 563.514 177.196 571.426C176.843 579.274 172.288 586.323 165.277 589.867C164.373 590.323 163.803 591.249 163.804 592.261V661.733C163.804 662.743 164.373 663.667 165.274 664.122C172.287 667.666 176.844 674.716 177.196 682.565C177.457 690.478 173.338 697.891 166.482 701.849V689.02C166.589 683.207 162.14 678.321 156.342 677.886C153.403 677.728 150.528 678.787 148.393 680.814C146.258 682.84 145.051 685.656 145.056 688.6V701.857C138.217 697.897 134.106 690.5 134.355 682.601C134.603 674.702 139.17 667.578 146.245 664.055L146.242 664.05Z" fill="#28166F"/>
<path d="M142.377 593.946V604.303C130.592 603.371 117.112 602.892 102.201 602.892C84.1464 602.699 66.0971 603.64 48.16 605.71L57.5073 581.352C58.209 579.534 59.8453 578.243 61.7765 577.983C75.1986 576.511 88.7002 575.885 102.201 576.108C112.548 576.108 121.753 576.355 129.716 576.823C131.361 584.048 135.951 590.256 142.377 593.946V593.946ZM105.667 582.25C104.621 583.296 104.621 584.991 105.667 586.037L116.38 596.75C117.431 597.765 119.102 597.751 120.135 596.718C121.168 595.685 121.183 594.014 120.168 592.963L109.454 582.25C108.952 581.747 108.27 581.464 107.559 581.464C106.848 581.464 106.167 581.747 105.664 582.25H105.667ZM125.525 584.928L122.846 582.25C121.795 581.235 120.125 581.249 119.092 582.282C118.058 583.316 118.044 584.986 119.059 586.037L121.737 588.715C122.788 589.73 124.459 589.716 125.492 588.683C126.525 587.65 126.54 585.979 125.525 584.928Z" fill="#28166F"/>
<path d="M36.97 607.461C36.7748 607.352 36.5899 607.225 36.4183 607.081C35.2626 605.933 34.9151 604.2 35.5379 602.695C36.1606 601.19 37.631 600.21 39.2601 600.214H44.531L42.0911 606.572C40.2322 606.867 38.5179 607.178 36.97 607.461V607.461Z" fill="#28166F"/>
<path d="M29.1169 614.811C35.7405 612.84 56.1122 608.249 102.201 608.249C117.152 608.249 130.635 608.734 142.377 609.679V631.848C141.153 629.829 139.651 627.992 137.914 626.392C136.428 625.054 134.498 624.316 132.499 624.319H71.9036C69.9038 624.317 67.974 625.056 66.4881 626.395C61.9824 631.033 58.7938 636.788 57.2503 643.067H27.2072V617.379C27.1998 616.193 27.9788 615.145 29.1169 614.811V614.811ZM96.8447 618.962H107.558C109.037 618.962 110.236 617.763 110.236 616.284C110.236 614.805 109.037 613.606 107.558 613.606H96.8447C95.3654 613.606 94.1663 614.805 94.1663 616.284C94.1663 617.763 95.3654 618.962 96.8447 618.962ZM40.5992 637.711H45.9557C50.3933 637.711 53.9909 634.114 53.9909 629.676V626.997C53.9909 624.039 51.5927 621.641 48.6341 621.641H40.5989C36.1613 621.641 32.5637 625.238 32.5637 629.676C32.5637 634.114 36.1613 637.711 40.5992 637.711Z" fill="#28166F"/>
<path d="M40.5991 626.997H48.6343V629.675C48.6343 631.155 47.4352 632.354 45.9559 632.354H40.5991C39.1198 632.354 37.9207 631.155 37.9207 629.675C37.9207 628.196 39.1198 626.997 40.5991 626.997Z" fill="#28166F"/>
<path d="M142.377 648.424V653.781H29.8856C28.4063 653.781 27.2072 652.582 27.2072 651.102V648.424H142.377Z" fill="#28166F"/>
<path d="M71.9036 629.676H132.499C133.175 629.675 133.828 629.925 134.331 630.377C137.767 633.936 140.257 638.299 141.573 643.067H62.8295C64.1422 638.3 66.6285 633.938 70.061 630.38C70.566 629.924 71.2231 629.673 71.9036 629.676Z" fill="#28166F"/>
</g>
<path d="M361.99 349.904C363.718 349.02 365.643 348.553 367.641 348.553C370.951 348.553 374.062 349.838 376.408 352.171L381.458 347.122C393.954 351.502 408.407 348.698 418.397 338.709C426.802 330.303 430.117 318.739 428.348 307.837C428.153 306.637 427.303 305.647 426.146 305.273C424.989 304.899 423.719 305.203 422.859 306.063L415.361 313.561C409.255 319.667 399.355 319.667 393.249 313.561C387.143 307.455 387.143 297.555 393.249 291.449L400.747 283.951C401.607 283.091 401.914 281.821 401.539 280.663C401.165 279.505 400.173 278.658 398.972 278.463C388.072 276.693 376.506 280.008 368.101 288.413C357.963 298.552 355.235 313.285 359.897 325.907L348.946 336.859L361.99 349.904Z" fill="#28166F"/>
<path d="M342.033 369.749L329.043 356.759L283.62 402.182C277.714 408.088 277.714 417.664 283.62 423.57C289.527 429.476 299.102 429.476 305.009 423.57L344.166 384.413C340.217 380.443 339.505 374.448 342.033 369.749Z" fill="#28166F"/>
<path d="M371.005 357.622C370.076 356.693 368.858 356.229 367.641 356.229C366.423 356.229 365.205 356.693 364.277 357.622L361.565 360.334L313.263 312.031L315.521 309.774C317.578 307.717 317.322 304.305 314.978 302.579L295.27 288.065C293.376 286.671 290.748 286.869 289.085 288.532L280.717 296.9C279.054 298.563 278.856 301.192 280.251 303.085L294.764 322.792C296.491 325.137 299.9 325.394 301.959 323.335L304.217 321.077L352.519 369.379L349.616 372.282C347.758 374.14 347.758 377.152 349.616 379.01L394.177 423.57C400.083 429.476 409.659 429.476 415.565 423.57C421.471 417.664 421.471 408.088 415.565 402.182L371.005 357.622Z" fill="#28166F"/>
<defs>
<clipPath id="clip0">
<rect width="150" height="150" fill="white" transform="matrix(-1 0 0 1 177.207 552)"/>
</clipPath>
</defs>
</svg>
