<svg width="707" height="707" viewBox="0 0 707 707" fill="none" xmlns="http://www.w3.org/2000/svg">
<mask id="path-1-outside-1" maskUnits="userSpaceOnUse" x="0.757353" y="0.757359" width="705.693" height="705.693" fill="black">
<rect fill="white" x="0.757353" y="0.757359" width="705.693" height="705.693"/>
<path d="M676.002 313.878C678.793 308.654 680.614 302.966 681.376 297.092C681.651 294.996 681.793 292.884 681.8 290.77C681.822 284.289 680.56 277.867 678.088 271.875C675.616 265.884 671.982 260.441 667.396 255.86L451.347 39.8109C442.108 30.5907 429.589 25.4124 416.536 25.4124C403.484 25.4124 390.964 30.5907 381.725 39.8109L39.8108 381.725C30.5907 390.964 25.4124 403.484 25.4124 416.536C25.4124 429.589 30.5907 442.108 39.8109 451.347L255.86 667.396C265.099 676.617 277.619 681.795 290.671 681.795C303.724 681.795 316.243 676.617 325.482 667.396L667.396 325.482C670.824 322.062 673.724 318.151 676.002 313.878V313.878ZM324.068 665.982C315.203 674.826 303.193 679.792 290.671 679.792C278.15 679.792 266.139 674.826 257.274 665.982L41.2251 449.933C32.3817 441.068 27.4153 429.058 27.4153 416.536C27.4153 404.015 32.3817 392.004 41.2251 383.14L383.139 41.2251C392.004 32.3817 404.015 27.4153 416.536 27.4153C429.058 27.4153 441.068 32.3817 449.933 41.2251L665.982 257.275C670.518 261.806 674.081 267.216 676.453 273.172C678.825 279.129 679.956 285.507 679.778 291.916C679.757 292.63 679.721 293.344 679.672 294.058C678.873 305.384 674.012 316.041 665.982 324.068L324.068 665.982Z"/>
</mask>
<path d="M676.002 313.878C678.793 308.654 680.614 302.966 681.376 297.092C681.651 294.996 681.793 292.884 681.8 290.77C681.822 284.289 680.56 277.867 678.088 271.875C675.616 265.884 671.982 260.441 667.396 255.86L451.347 39.8109C442.108 30.5907 429.589 25.4124 416.536 25.4124C403.484 25.4124 390.964 30.5907 381.725 39.8109L39.8108 381.725C30.5907 390.964 25.4124 403.484 25.4124 416.536C25.4124 429.589 30.5907 442.108 39.8109 451.347L255.86 667.396C265.099 676.617 277.619 681.795 290.671 681.795C303.724 681.795 316.243 676.617 325.482 667.396L667.396 325.482C670.824 322.062 673.724 318.151 676.002 313.878V313.878ZM324.068 665.982C315.203 674.826 303.193 679.792 290.671 679.792C278.15 679.792 266.139 674.826 257.274 665.982L41.2251 449.933C32.3817 441.068 27.4153 429.058 27.4153 416.536C27.4153 404.015 32.3817 392.004 41.2251 383.14L383.139 41.2251C392.004 32.3817 404.015 27.4153 416.536 27.4153C429.058 27.4153 441.068 32.3817 449.933 41.2251L665.982 257.275C670.518 261.806 674.081 267.216 676.453 273.172C678.825 279.129 679.956 285.507 679.778 291.916C679.757 292.63 679.721 293.344 679.672 294.058C678.873 305.384 674.012 316.041 665.982 324.068L324.068 665.982Z" fill="#28166F"/>
<path d="M676.002 313.878C678.793 308.654 680.614 302.966 681.376 297.092C681.651 294.996 681.793 292.884 681.8 290.77C681.822 284.289 680.56 277.867 678.088 271.875C675.616 265.884 671.982 260.441 667.396 255.86L451.347 39.8109C442.108 30.5907 429.589 25.4124 416.536 25.4124C403.484 25.4124 390.964 30.5907 381.725 39.8109L39.8108 381.725C30.5907 390.964 25.4124 403.484 25.4124 416.536C25.4124 429.589 30.5907 442.108 39.8109 451.347L255.86 667.396C265.099 676.617 277.619 681.795 290.671 681.795C303.724 681.795 316.243 676.617 325.482 667.396L667.396 325.482C670.824 322.062 673.724 318.151 676.002 313.878V313.878ZM324.068 665.982C315.203 674.826 303.193 679.792 290.671 679.792C278.15 679.792 266.139 674.826 257.274 665.982L41.2251 449.933C32.3817 441.068 27.4153 429.058 27.4153 416.536C27.4153 404.015 32.3817 392.004 41.2251 383.14L383.139 41.2251C392.004 32.3817 404.015 27.4153 416.536 27.4153C429.058 27.4153 441.068 32.3817 449.933 41.2251L665.982 257.275C670.518 261.806 674.081 267.216 676.453 273.172C678.825 279.129 679.956 285.507 679.778 291.916C679.757 292.63 679.721 293.344 679.672 294.058C678.873 305.384 674.012 316.041 665.982 324.068L324.068 665.982Z" stroke="#28166F" stroke-width="6" mask="url(#path-1-outside-1)"/>
<mask id="path-2-outside-2" maskUnits="userSpaceOnUse" x="97.0662" y="96.4279" width="513.36" height="513.36" fill="black">
<rect fill="white" x="97.0662" y="96.4279" width="513.36" height="513.36"/>
<path d="M239.895 548.262C239.584 548.884 239.244 549.492 238.891 550.086L244.137 555.333C245.005 555.314 245.869 555.233 246.725 555.093L239.895 548.262ZM411.729 99.2563L99.8947 411.09L295.41 606.605L607.244 294.771L411.729 99.2563ZM295.41 603.777L102.723 411.09L411.729 102.085L604.415 294.771L295.41 603.777ZM239.895 548.262C239.584 548.884 239.244 549.492 238.891 550.086L244.137 555.333C245.005 555.314 245.869 555.233 246.725 555.093L239.895 548.262Z"/>
</mask>
<path d="M239.895 548.262C239.584 548.884 239.244 549.492 238.891 550.086L244.137 555.333C245.005 555.314 245.869 555.233 246.725 555.093L239.895 548.262ZM411.729 99.2563L99.8947 411.09L295.41 606.605L607.244 294.771L411.729 99.2563ZM295.41 603.777L102.723 411.09L411.729 102.085L604.415 294.771L295.41 603.777ZM239.895 548.262C239.584 548.884 239.244 549.492 238.891 550.086L244.137 555.333C245.005 555.314 245.869 555.233 246.725 555.093L239.895 548.262Z" fill="#28166F"/>
<path d="M239.895 548.262C239.584 548.884 239.244 549.492 238.891 550.086L244.137 555.333C245.005 555.314 245.869 555.233 246.725 555.093L239.895 548.262ZM411.729 99.2563L99.8947 411.09L295.41 606.605L607.244 294.771L411.729 99.2563ZM295.41 603.777L102.723 411.09L411.729 102.085L604.415 294.771L295.41 603.777ZM239.895 548.262C239.584 548.884 239.244 549.492 238.891 550.086L244.137 555.333C245.005 555.314 245.869 555.233 246.725 555.093L239.895 548.262Z" stroke="#28166F" stroke-width="4" mask="url(#path-2-outside-2)"/>
<g clip-path="url(#clip0)">
<path d="M392.105 353.646L400.188 345.56L383.081 328.453L374.995 336.536C372.174 334.978 369.189 333.761 366.094 332.869V321.652C373.909 317.448 378.191 310.543 378.191 302.063C378.191 291.846 371.71 282.689 362.064 279.273L358.839 278.131V297.899L354 299.513L349.161 297.899V278.131L345.934 279.273C336.288 282.689 329.806 291.846 329.806 302.063C329.806 310.543 334.089 317.448 341.903 321.652V332.869C338.809 333.764 335.823 334.978 333.002 336.536L324.917 328.453L307.81 345.56L315.893 353.646C314.332 356.469 313.096 359.45 312.203 362.547H300.774V386.74H312.203C313.098 389.837 314.332 392.818 315.893 395.641L307.81 403.727L324.917 420.834L333.002 412.751C335.826 414.311 338.806 415.548 341.903 416.44V427.869H366.097V416.44C369.194 415.545 372.174 414.311 374.998 412.751L383.083 420.834L400.19 403.727L392.107 395.641C393.668 392.818 394.904 389.837 395.797 386.74H407.226V362.547H395.797C394.902 359.45 393.668 356.469 392.105 353.646ZM334.645 302.063C334.645 295.093 338.422 288.737 344.323 285.323V301.388L354 304.613L363.677 301.388V285.323C369.578 288.737 373.355 295.093 373.355 302.063C373.355 309.159 369.651 314.663 362.642 317.98L361.258 318.635V357.708H366.097V353.677C373.546 357.95 378.194 365.835 378.194 374.644C378.194 383.576 373.316 391.373 366.097 395.564V362.547H361.258V397.722C358.964 398.445 356.528 398.837 354 398.837C351.472 398.837 349.035 398.445 346.742 397.722V318.635L345.358 317.98C338.349 314.663 334.645 309.159 334.645 302.063ZM402.387 381.902H392.032L391.585 383.752C390.644 387.645 389.107 391.354 387.014 394.773L386.02 396.398L393.348 403.724L383.083 413.989L375.757 406.661L374.131 407.656C370.71 409.748 367.004 411.285 363.111 412.226L361.258 412.676V423.031H346.742V412.676L344.891 412.228C340.998 411.287 337.289 409.751 333.871 407.658L332.245 406.664L324.919 413.992L314.654 403.727L321.982 396.401L320.988 394.775C318.895 391.354 317.359 387.648 316.418 383.755L315.968 381.902H305.613V367.385H315.968L316.415 365.535C317.356 361.642 318.893 357.933 320.985 354.514L321.98 352.889L314.652 345.563L324.917 335.298L332.243 342.626L333.869 341.631C336.402 340.081 339.094 338.839 341.901 337.918V348.263C331.563 352.988 324.965 363.159 324.965 374.646C324.965 390.655 337.989 403.678 353.998 403.678C370.006 403.678 383.03 390.655 383.03 374.646C383.03 363.156 376.432 352.985 366.094 348.263V337.918C368.901 338.842 371.594 340.083 374.127 341.631L375.752 342.626L383.078 335.298L393.344 345.563L386.015 352.889L387.01 354.514C389.102 357.935 390.639 361.642 391.58 365.535L392.032 367.385H402.387V381.902ZM341.903 353.68V395.564C334.684 391.373 329.806 383.576 329.806 374.644C329.806 365.837 334.454 357.952 341.903 353.68Z" fill="#28166F"/>
<path d="M288.677 396.863V309.321C288.677 307.988 289.764 306.902 291.097 306.902H310.897C311.898 309.71 314.56 311.74 317.71 311.74C321.711 311.74 324.968 308.484 324.968 304.482C324.968 300.481 321.711 297.224 317.71 297.224C314.56 297.224 311.898 299.254 310.897 302.063H291.097C287.095 302.063 283.839 305.319 283.839 309.321V396.863C281.03 397.864 279 400.526 279 403.676C279 407.677 282.256 410.934 286.258 410.934C290.26 410.934 293.516 407.677 293.516 403.676C293.516 400.526 291.486 397.864 288.677 396.863ZM317.71 302.063C319.043 302.063 320.129 303.149 320.129 304.482C320.129 305.815 319.043 306.902 317.71 306.902C316.377 306.902 315.29 305.815 315.29 304.482C315.29 303.149 316.377 302.063 317.71 302.063ZM286.258 406.095C284.925 406.095 283.839 405.009 283.839 403.676C283.839 402.343 284.925 401.256 286.258 401.256C287.591 401.256 288.677 402.343 288.677 403.676C288.677 405.009 287.591 406.095 286.258 406.095Z" fill="#28166F"/>
<path d="M298.355 311.74H293.516V316.579H298.355V311.74Z" fill="#28166F"/>
<path d="M298.355 321.418H293.516V326.256H298.355V321.418Z" fill="#28166F"/>
<path d="M298.355 331.095H293.516V335.934H298.355V331.095Z" fill="#28166F"/>
<path d="M424.161 396.863V309.321C424.161 305.319 420.905 302.063 416.903 302.063H397.103C396.102 299.254 393.44 297.224 390.29 297.224C386.289 297.224 383.032 300.481 383.032 304.482C383.032 308.484 386.289 311.74 390.29 311.74C393.44 311.74 396.102 309.71 397.103 306.902H416.903C418.236 306.902 419.323 307.988 419.323 309.321V396.863C416.514 397.864 414.484 400.526 414.484 403.676C414.484 407.677 417.74 410.934 421.742 410.934C425.744 410.934 429 407.677 429 403.676C429 400.526 426.97 397.864 424.161 396.863ZM390.29 306.902C388.957 306.902 387.871 305.815 387.871 304.482C387.871 303.149 388.957 302.063 390.29 302.063C391.623 302.063 392.71 303.149 392.71 304.482C392.71 305.815 391.623 306.902 390.29 306.902ZM421.742 406.095C420.409 406.095 419.323 405.009 419.323 403.676C419.323 402.343 420.409 401.256 421.742 401.256C423.075 401.256 424.161 402.343 424.161 403.676C424.161 405.009 423.075 406.095 421.742 406.095Z" fill="#28166F"/>
<path d="M414.484 311.74H409.645V316.579H414.484V311.74Z" fill="#28166F"/>
<path d="M414.484 321.418H409.645V326.256H414.484V321.418Z" fill="#28166F"/>
<path d="M414.484 331.095H409.645V335.934H414.484V331.095Z" fill="#28166F"/>
<path d="M356.419 389.16H351.581V393.998H356.419V389.16Z" fill="#28166F"/>
<path d="M356.419 379.482H351.581V384.321H356.419V379.482Z" fill="#28166F"/>
<path d="M356.419 369.805H351.581V374.643H356.419V369.805Z" fill="#28166F"/>
</g>
<g clip-path="url(#clip1)">
<path d="M130.917 74.2976H29.3852C20.9518 74.2976 14.0908 67.4365 14.0908 59.0031C14.0908 50.5697 20.9518 43.7087 29.3852 43.7087H94.2227C93.925 42.2898 93.7666 40.8203 93.7666 39.3142C93.7666 37.808 93.925 36.3388 94.2227 34.9199H29.3852C16.1055 34.9199 5.302 45.7237 5.302 59.0031C5.302 72.2825 16.1058 83.0863 29.3852 83.0863H130.917C139.351 83.0863 146.212 89.9474 146.212 98.3808V100.454C146.212 108.888 139.351 115.749 130.917 115.749H65.6134C65.9899 117.335 66.1953 118.987 66.1953 120.687C66.1953 122.002 66.0696 123.287 65.8411 124.538H130.917C144.197 124.538 155 113.734 155 100.455V98.381C155 85.1011 144.197 74.2976 130.917 74.2976V74.2976Z" fill="#28166F"/>
<path d="M17.5637 133.576H44.8086C51.9163 133.576 57.6989 127.793 57.6989 120.686C57.6989 113.578 51.9163 107.795 44.8086 107.795H17.5637V116.852H5V125.64H17.5637V133.576Z" fill="#28166F"/>
<path d="M142.397 26.4241H115.153C108.045 26.4241 102.262 32.2067 102.262 39.3144C102.262 46.4221 108.045 52.2047 115.153 52.2047H142.397V43.1485H154.961V34.3597H142.397V26.4241Z" fill="#28166F"/>
</g>
<path d="M669.266 603.445C668.856 602.565 667.973 602 667.001 602H637.376L666.614 555.838C667.101 555.068 667.131 554.093 666.691 553.295C666.251 552.495 665.411 552 664.501 552H624.501C623.554 552 622.688 552.535 622.264 553.383L584.764 628.383C584.376 629.155 584.418 630.075 584.873 630.812C585.331 631.55 586.134 632 587.001 632H612.708L584.696 698.53C584.218 699.667 584.643 700.987 585.696 701.632C586.101 701.88 586.551 702 586.998 702C587.716 702 588.423 701.692 588.914 701.112L668.914 606.112C669.541 605.367 669.676 604.327 669.266 603.445Z" fill="#28166F"/>
<defs>
<clipPath id="clip0">
<rect width="150" height="150" fill="white" transform="translate(279 278)"/>
</clipPath>
<clipPath id="clip1">
<rect width="150" height="150" fill="white" transform="translate(5 5)"/>
</clipPath>
</defs>
</svg>
