<svg width="707" height="707" viewBox="0 0 707 707" fill="none" xmlns="http://www.w3.org/2000/svg">
<mask id="path-1-outside-1" maskUnits="userSpaceOnUse" x="0.757353" y="0.757359" width="705.693" height="705.693" fill="black">
<rect fill="white" x="0.757353" y="0.757359" width="705.693" height="705.693"/>
<path d="M676.002 313.878C678.793 308.654 680.614 302.966 681.376 297.092C681.651 294.996 681.793 292.884 681.8 290.77C681.822 284.289 680.56 277.867 678.088 271.875C675.616 265.884 671.982 260.441 667.396 255.86L451.347 39.8109C442.108 30.5907 429.589 25.4124 416.536 25.4124C403.484 25.4124 390.964 30.5907 381.725 39.8109L39.8108 381.725C30.5907 390.964 25.4124 403.484 25.4124 416.536C25.4124 429.589 30.5907 442.108 39.8109 451.347L255.86 667.396C265.099 676.617 277.619 681.795 290.671 681.795C303.724 681.795 316.243 676.617 325.482 667.396L667.396 325.482C670.824 322.062 673.724 318.151 676.002 313.878V313.878ZM324.068 665.982C315.203 674.826 303.193 679.792 290.671 679.792C278.15 679.792 266.139 674.826 257.274 665.982L41.2251 449.933C32.3817 441.068 27.4153 429.058 27.4153 416.536C27.4153 404.015 32.3817 392.004 41.2251 383.14L383.139 41.2251C392.004 32.3817 404.015 27.4153 416.536 27.4153C429.058 27.4153 441.068 32.3817 449.933 41.2251L665.982 257.275C670.518 261.806 674.081 267.216 676.453 273.172C678.825 279.129 679.956 285.507 679.778 291.916C679.757 292.63 679.721 293.344 679.672 294.058C678.873 305.384 674.012 316.041 665.982 324.068L324.068 665.982Z"/>
</mask>
<path d="M676.002 313.878C678.793 308.654 680.614 302.966 681.376 297.092C681.651 294.996 681.793 292.884 681.8 290.77C681.822 284.289 680.56 277.867 678.088 271.875C675.616 265.884 671.982 260.441 667.396 255.86L451.347 39.8109C442.108 30.5907 429.589 25.4124 416.536 25.4124C403.484 25.4124 390.964 30.5907 381.725 39.8109L39.8108 381.725C30.5907 390.964 25.4124 403.484 25.4124 416.536C25.4124 429.589 30.5907 442.108 39.8109 451.347L255.86 667.396C265.099 676.617 277.619 681.795 290.671 681.795C303.724 681.795 316.243 676.617 325.482 667.396L667.396 325.482C670.824 322.062 673.724 318.151 676.002 313.878V313.878ZM324.068 665.982C315.203 674.826 303.193 679.792 290.671 679.792C278.15 679.792 266.139 674.826 257.274 665.982L41.2251 449.933C32.3817 441.068 27.4153 429.058 27.4153 416.536C27.4153 404.015 32.3817 392.004 41.2251 383.14L383.139 41.2251C392.004 32.3817 404.015 27.4153 416.536 27.4153C429.058 27.4153 441.068 32.3817 449.933 41.2251L665.982 257.275C670.518 261.806 674.081 267.216 676.453 273.172C678.825 279.129 679.956 285.507 679.778 291.916C679.757 292.63 679.721 293.344 679.672 294.058C678.873 305.384 674.012 316.041 665.982 324.068L324.068 665.982Z" fill="#28166F"/>
<path d="M676.002 313.878C678.793 308.654 680.614 302.966 681.376 297.092C681.651 294.996 681.793 292.884 681.8 290.77C681.822 284.289 680.56 277.867 678.088 271.875C675.616 265.884 671.982 260.441 667.396 255.86L451.347 39.8109C442.108 30.5907 429.589 25.4124 416.536 25.4124C403.484 25.4124 390.964 30.5907 381.725 39.8109L39.8108 381.725C30.5907 390.964 25.4124 403.484 25.4124 416.536C25.4124 429.589 30.5907 442.108 39.8109 451.347L255.86 667.396C265.099 676.617 277.619 681.795 290.671 681.795C303.724 681.795 316.243 676.617 325.482 667.396L667.396 325.482C670.824 322.062 673.724 318.151 676.002 313.878V313.878ZM324.068 665.982C315.203 674.826 303.193 679.792 290.671 679.792C278.15 679.792 266.139 674.826 257.274 665.982L41.2251 449.933C32.3817 441.068 27.4153 429.058 27.4153 416.536C27.4153 404.015 32.3817 392.004 41.2251 383.14L383.139 41.2251C392.004 32.3817 404.015 27.4153 416.536 27.4153C429.058 27.4153 441.068 32.3817 449.933 41.2251L665.982 257.275C670.518 261.806 674.081 267.216 676.453 273.172C678.825 279.129 679.956 285.507 679.778 291.916C679.757 292.63 679.721 293.344 679.672 294.058C678.873 305.384 674.012 316.041 665.982 324.068L324.068 665.982Z" stroke="#28166F" stroke-width="6" mask="url(#path-1-outside-1)"/>
<mask id="path-2-outside-2" maskUnits="userSpaceOnUse" x="97.0662" y="96.4279" width="513.36" height="513.36" fill="black">
<rect fill="white" x="97.0662" y="96.4279" width="513.36" height="513.36"/>
<path d="M239.895 548.262C239.584 548.884 239.244 549.492 238.891 550.086L244.137 555.333C245.005 555.314 245.869 555.233 246.725 555.093L239.895 548.262ZM411.729 99.2563L99.8947 411.09L295.41 606.605L607.244 294.771L411.729 99.2563ZM295.41 603.777L102.723 411.09L411.729 102.085L604.415 294.771L295.41 603.777ZM239.895 548.262C239.584 548.884 239.244 549.492 238.891 550.086L244.137 555.333C245.005 555.314 245.869 555.233 246.725 555.093L239.895 548.262Z"/>
</mask>
<path d="M239.895 548.262C239.584 548.884 239.244 549.492 238.891 550.086L244.137 555.333C245.005 555.314 245.869 555.233 246.725 555.093L239.895 548.262ZM411.729 99.2563L99.8947 411.09L295.41 606.605L607.244 294.771L411.729 99.2563ZM295.41 603.777L102.723 411.09L411.729 102.085L604.415 294.771L295.41 603.777ZM239.895 548.262C239.584 548.884 239.244 549.492 238.891 550.086L244.137 555.333C245.005 555.314 245.869 555.233 246.725 555.093L239.895 548.262Z" fill="#28166F"/>
<path d="M239.895 548.262C239.584 548.884 239.244 549.492 238.891 550.086L244.137 555.333C245.005 555.314 245.869 555.233 246.725 555.093L239.895 548.262ZM411.729 99.2563L99.8947 411.09L295.41 606.605L607.244 294.771L411.729 99.2563ZM295.41 603.777L102.723 411.09L411.729 102.085L604.415 294.771L295.41 603.777ZM239.895 548.262C239.584 548.884 239.244 549.492 238.891 550.086L244.137 555.333C245.005 555.314 245.869 555.233 246.725 555.093L239.895 548.262Z" stroke="#28166F" stroke-width="4" mask="url(#path-2-outside-2)"/>
<path d="M365.22 382.114C364.837 384.453 364.23 386.712 363.412 388.873L370.751 395.523C369.722 397.688 368.55 399.77 367.198 401.724L357.776 398.687C356.29 400.503 354.626 402.165 352.809 403.651L355.847 413.073C353.892 414.425 351.811 415.595 349.645 416.626L342.996 409.287C340.835 410.105 338.578 410.712 336.237 411.095L334.144 420.788C332.96 420.882 331.772 420.969 330.562 420.969C329.353 420.969 328.165 420.882 326.979 420.788L324.886 411.095C322.547 410.712 320.288 410.105 318.127 409.287L311.477 416.626C309.312 415.597 307.23 414.425 305.276 413.073L308.313 403.651C306.497 402.165 304.835 400.501 303.349 398.687L293.927 401.724C292.575 399.77 291.405 397.688 290.374 395.523L297.713 388.873C296.895 386.712 296.287 384.455 295.905 382.114L286.212 380.021C286.118 378.835 286.031 377.647 286.031 376.438C286.031 375.228 286.118 374.04 286.212 372.854L295.905 370.761C296.287 368.422 296.895 366.163 297.713 364.002L290.374 357.352C291.403 355.187 292.575 353.105 293.927 351.151L303.349 354.188C304.835 352.372 306.499 350.71 308.316 349.224L305.278 339.802C307.233 338.45 309.314 337.28 311.48 336.249L318.129 343.587C320.29 342.77 322.547 342.162 324.888 341.78L326.981 332.087C328.165 331.993 329.353 331.906 330.562 331.906C331.772 331.906 332.96 331.993 334.146 332.087L336.239 341.78C338.578 342.162 340.837 342.77 342.998 343.587L349.648 336.249C351.813 337.278 353.895 338.45 355.849 339.802L352.812 349.224C354.628 350.71 356.29 352.374 357.776 354.191L367.198 351.153C368.55 353.108 369.72 355.189 370.751 357.355L363.412 364.004C364.23 366.165 364.837 368.422 365.22 370.763L374.913 372.856C375.007 374.04 375.094 375.228 375.094 376.438C375.094 377.647 375.007 378.835 374.913 380.021L365.22 382.114ZM330.562 353C317.618 353 307.125 363.493 307.125 376.438C307.125 389.382 317.618 399.875 330.562 399.875C343.507 399.875 354 389.382 354 376.438C354 363.493 343.507 353 330.562 353V353Z" fill="#28166F"/>
<path d="M397.732 316.215C397.366 317.427 396.888 318.589 396.3 319.684L400.001 326.776C398.752 328.355 397.327 329.78 395.747 331.03L388.655 327.329C387.56 327.92 386.398 328.398 385.186 328.761L382.786 336.402C381.797 336.519 380.798 336.594 379.781 336.594C378.764 336.594 377.766 336.519 376.779 336.404L374.379 328.763C373.167 328.4 372.005 327.92 370.91 327.331L363.818 331.032C362.238 329.783 360.813 328.358 359.564 326.778L363.265 319.686C362.674 318.591 362.196 317.429 361.833 316.217L354.192 313.817C354.075 312.828 354 311.83 354 310.812C354 309.795 354.075 308.797 354.19 307.81L361.83 305.41C362.194 304.198 362.674 303.036 363.262 301.941L359.562 294.849C360.811 293.27 362.236 291.845 363.816 290.595L370.908 294.296C372.002 293.705 373.165 293.227 374.377 292.864L376.777 285.223C377.766 285.106 378.764 285.031 379.781 285.031C380.798 285.031 381.797 285.106 382.784 285.221L385.184 292.862C386.395 293.225 387.558 293.705 388.652 294.294L395.745 290.593C397.324 291.842 398.749 293.267 399.998 294.847L396.298 301.939C396.888 303.034 397.366 304.196 397.73 305.408L405.37 307.808C405.487 308.797 405.562 309.795 405.562 310.812C405.562 311.83 405.487 312.828 405.373 313.815L397.732 316.215ZM379.781 301.438C374.604 301.438 370.406 305.635 370.406 310.812C370.406 315.99 374.604 320.188 379.781 320.188C384.959 320.188 389.156 315.99 389.156 310.812C389.156 305.635 384.959 301.438 379.781 301.438Z" fill="#28166F"/>
<path d="M416.67 369.104C416.309 370.405 415.8 371.638 415.148 372.788L417.48 377.696C416.421 379.048 415.205 380.265 413.852 381.324L408.945 378.992C407.796 379.644 406.561 380.152 405.26 380.513L403.437 385.641C402.595 385.745 401.745 385.812 400.875 385.812C400.005 385.812 399.155 385.745 398.313 385.641L396.49 380.513C395.189 380.152 393.956 379.644 392.805 378.992L387.898 381.324C386.545 380.265 385.329 379.048 384.27 377.696L386.602 372.788C385.95 371.64 385.441 370.405 385.08 369.106L379.952 367.283C379.849 366.439 379.781 365.588 379.781 364.719C379.781 363.849 379.849 362.998 379.952 362.157L385.08 360.334C385.441 359.033 385.95 357.8 386.602 356.652L384.27 351.744C385.329 350.391 386.545 349.175 387.898 348.116L392.805 350.448C393.954 349.796 395.189 349.287 396.49 348.927L398.313 343.798C399.155 343.693 400.005 343.625 400.875 343.625C401.745 343.625 402.595 343.693 403.437 343.796L405.26 348.924C406.561 349.285 407.794 349.794 408.945 350.445L413.852 348.113C415.205 349.173 416.421 350.389 417.48 351.741L415.148 356.649C415.8 357.798 416.309 359.033 416.67 360.334L421.798 362.157C421.901 362.998 421.969 363.849 421.969 364.719C421.969 365.588 421.901 366.439 421.798 367.28L416.67 369.104ZM400.875 357.688C396.991 357.688 393.844 360.835 393.844 364.719C393.844 368.602 396.991 371.75 400.875 371.75C404.759 371.75 407.906 368.602 407.906 364.719C407.906 360.835 404.759 357.688 400.875 357.688Z" fill="#28166F"/>
<path d="M422.428 289.766L408.41 286.962L405.607 300.978L410.203 301.899L411.466 295.59C413.737 300.315 414.937 305.523 414.937 310.812C414.937 318.894 412.27 326.492 407.226 332.785L410.885 335.717C416.522 328.683 419.625 319.841 419.625 310.812C419.625 304.674 418.207 298.623 415.509 293.162L421.509 294.362L422.428 289.766Z" fill="#28166F"/>
<path d="M334.563 309.156L331.249 312.47L334.434 315.655C333.145 315.573 331.854 315.5 330.562 315.5C312.431 315.5 295.364 323.495 283.739 337.435L287.339 340.438C298.071 327.568 313.823 320.188 330.562 320.188C331.755 320.188 332.946 320.256 334.137 320.331L331.249 323.218L334.563 326.532L343.252 317.844L334.563 309.156Z" fill="#28166F"/>
<path d="M656.948 574.192H650.656C650.054 572.919 649.353 571.702 648.556 570.548L651.7 565.102C652.734 563.312 652.12 561.022 650.329 559.988L637.362 552.502C636.502 552.005 635.48 551.871 634.521 552.127C633.562 552.385 632.745 553.012 632.248 553.872L629.109 559.308C627.693 559.188 626.307 559.188 624.891 559.308L621.752 553.872C621.255 553.012 620.438 552.385 619.479 552.127C618.52 551.871 617.498 552.005 616.638 552.502L603.671 559.989C601.88 561.022 601.267 563.312 602.3 565.102L605.444 570.548C604.647 571.703 603.946 572.92 603.344 574.193H597.052C594.985 574.193 593.309 575.869 593.309 577.936V592.91C593.309 594.978 594.985 596.654 597.052 596.654H603.344C603.946 597.926 604.647 599.143 605.444 600.298L602.3 605.744C601.267 607.534 601.88 609.824 603.671 610.857L616.638 618.345C617.498 618.841 618.52 618.975 619.479 618.719C620.438 618.461 621.255 617.834 621.752 616.974L624.891 611.537C626.307 611.658 627.693 611.658 629.109 611.537L632.248 616.974C632.745 617.834 633.562 618.461 634.521 618.718C634.84 618.803 635.166 618.845 635.49 618.845C636.142 618.845 636.788 618.675 637.362 618.344L650.33 610.857C652.12 609.823 652.734 607.534 651.7 605.743L648.556 600.298C649.353 599.143 650.054 597.926 650.657 596.653H656.948C659.016 596.653 660.692 594.977 660.692 592.91V589.166V581.679V577.936C660.691 575.868 659.015 574.192 656.948 574.192ZM627 596.409C620.942 596.409 616.014 591.481 616.014 585.423C616.014 579.364 620.942 574.436 627 574.436C633.058 574.436 637.986 579.364 637.986 585.423C637.986 591.481 633.058 596.409 627 596.409Z" fill="#28166F"/>
<path d="M575.438 599.433V589.817H584.52V581.028H571.043C568.616 581.028 566.648 582.995 566.648 585.422V599.433C563.242 600.234 560.114 601.962 557.578 604.499C553.981 608.096 552 612.878 552 617.964C552 623.051 553.981 627.833 557.578 631.43C559.293 633.146 562.076 633.146 563.792 631.43C565.508 629.714 565.508 626.931 563.792 625.215C559.794 621.217 559.794 614.712 563.792 610.714C565.729 608.777 568.304 607.711 571.043 607.711C573.782 607.711 576.357 608.777 578.294 610.714C582.292 614.712 582.292 621.217 578.294 625.215C576.577 626.931 576.577 629.714 578.294 631.43C579.152 632.288 580.276 632.717 581.401 632.717C582.525 632.717 583.65 632.288 584.508 631.43C588.105 627.833 590.086 623.051 590.086 617.964C590.086 612.878 588.105 608.096 584.508 604.499C581.972 601.963 578.844 600.234 575.438 599.433Z" fill="#28166F"/>
<path d="M696.422 604.499C693.886 601.962 690.758 600.234 687.352 599.433V585.422C687.352 582.995 685.384 581.028 682.957 581.028H669.48V589.817H678.563V599.433C675.156 600.234 672.028 601.962 669.492 604.499C665.895 608.096 663.914 612.878 663.914 617.965C663.914 623.051 665.895 627.833 669.492 631.43C671.208 633.146 673.99 633.146 675.706 631.43C677.423 629.714 677.423 626.931 675.706 625.215C671.708 621.217 671.708 614.712 675.706 610.714C677.643 608.777 680.218 607.711 682.957 607.711C685.696 607.711 688.271 608.777 690.208 610.714C694.206 614.712 694.206 621.217 690.208 625.215C688.492 626.931 688.492 629.714 690.208 631.43C691.066 632.288 692.191 632.717 693.315 632.717C694.439 632.717 695.564 632.288 696.422 631.43C700.019 627.833 702 623.051 702 617.965C702 612.878 700.019 608.096 696.422 604.499V604.499Z" fill="#28166F"/>
<path d="M564.012 702C570.484 702 575.73 696.753 575.73 690.281C575.73 683.809 570.484 678.562 564.012 678.562C557.54 678.562 552.293 683.809 552.293 690.281C552.293 696.753 557.54 702 564.012 702Z" fill="#28166F"/>
<path d="M627 702C633.472 702 638.719 696.753 638.719 690.281C638.719 683.809 633.472 678.562 627 678.562C620.528 678.562 615.281 683.809 615.281 690.281C615.281 696.753 620.528 702 627 702Z" fill="#28166F"/>
<path d="M643.815 678.562C646.139 681.887 647.508 685.926 647.508 690.281C647.508 694.636 646.139 698.675 643.815 702H673.173C670.849 698.675 669.48 694.636 669.48 690.281C669.48 685.926 670.849 681.887 673.173 678.562H643.815Z" fill="#28166F"/>
<path d="M580.827 678.562C583.151 681.887 584.519 685.926 584.519 690.281C584.519 694.636 583.151 698.675 580.827 702H610.185C607.861 698.675 606.492 694.636 606.492 690.281C606.492 685.926 607.861 681.887 610.185 678.562H580.827Z" fill="#28166F"/>
<path d="M689.988 702C696.46 702 701.707 696.753 701.707 690.281C701.707 683.809 696.46 678.562 689.988 678.562C683.516 678.562 678.27 683.809 678.27 690.281C678.27 696.753 683.516 702 689.988 702Z" fill="#28166F"/>
<path d="M637.986 643.406H616.014C613.587 643.406 611.619 645.374 611.619 647.801V669.773H642.381V647.801C642.381 645.374 640.413 643.406 637.986 643.406Z" fill="#28166F"/>
<path d="M594.041 643.406H572.068C569.641 643.406 567.674 645.374 567.674 647.801V669.773H598.436V647.801C598.436 645.374 596.468 643.406 594.041 643.406Z" fill="#28166F"/>
<path d="M659.959 643.406C657.532 643.406 655.564 645.374 655.564 647.801V669.773H686.326V647.801C686.326 645.374 684.359 643.406 681.932 643.406H659.959Z" fill="#28166F"/>
<path d="M35.4688 87.0312H40.1562V96.4062H35.4688V87.0312Z" fill="#28166F"/>
<path d="M35.4688 77.6562H40.1562V82.3438H35.4688V77.6562Z" fill="#28166F"/>
<path d="M42.5 55.5008V49.5312H14.375C13.0836 49.5312 12.0312 50.5836 12.0312 51.875V72.9688H22.5711C25.3648 64.618 32.9891 58.1258 42.5 55.5008Z" fill="#28166F"/>
<path d="M56.5625 54.5445V49.5312H47.1875V54.5445C48.7227 54.3406 50.2859 54.2188 51.875 54.2188C53.4664 54.2188 55.0273 54.3406 56.5625 54.5445Z" fill="#28166F"/>
<path d="M21.4062 134.239V124.531H16.7188V134.239C17.4734 134.042 18.2492 133.906 19.0625 133.906C19.8758 133.906 20.6516 134.042 21.4062 134.239Z" fill="#28166F"/>
<path d="M57.7344 44.8438L77.6562 18.282V12.0312H26.0938V18.282L46.0156 44.8438H57.7344Z" fill="#28166F"/>
<path d="M42.5001 60.3757C35.6258 62.5859 30.111 67.1515 27.5891 72.9687H42.5001V60.3757Z" fill="#28166F"/>
<path d="M12.0312 77.6562H30.7812V82.3438H12.0312V77.6562Z" fill="#28166F"/>
<path d="M61.25 60.3733V72.9686H76.1609C73.6391 67.1491 68.1266 62.5834 61.25 60.3733Z" fill="#28166F"/>
<path d="M63.5938 87.0312H68.2812V96.4062H63.5938V87.0312Z" fill="#28166F"/>
<path d="M63.5938 77.6562H68.2812V82.3438H63.5938V77.6562Z" fill="#28166F"/>
<path d="M47.1875 72.9688H56.5625V59.2648C55.0367 59.0328 53.4711 58.9062 51.875 58.9062C50.2789 58.9062 48.7133 59.0328 47.1875 59.2648V72.9688Z" fill="#28166F"/>
<path d="M44.8438 77.6562H58.9062V82.3438H44.8438V77.6562Z" fill="#28166F"/>
<path d="M44.8438 87.0312H58.9062V96.4062H44.8438V87.0312Z" fill="#28166F"/>
<path d="M19.0625 147.969C21.6513 147.969 23.75 145.87 23.75 143.281C23.75 140.692 21.6513 138.594 19.0625 138.594C16.4737 138.594 14.375 140.692 14.375 143.281C14.375 145.87 16.4737 147.969 19.0625 147.969Z" fill="#28166F"/>
<path d="M140.938 147.969C143.526 147.969 145.625 145.87 145.625 143.281C145.625 140.692 143.526 138.594 140.938 138.594C138.349 138.594 136.25 140.692 136.25 143.281C136.25 145.87 138.349 147.969 140.938 147.969Z" fill="#28166F"/>
<path d="M143.281 134.239V124.531H138.594V134.239C139.348 134.042 140.124 133.906 140.938 133.906C141.751 133.906 142.527 134.042 143.281 134.239Z" fill="#28166F"/>
<path d="M30.7812 87.0312H12.0312V117.5C12.0312 118.794 13.0836 119.844 14.375 119.844H26.0938V96.4062H30.7812V87.0312Z" fill="#28166F"/>
<path d="M145.625 35.4688H98.75C97.4586 35.4688 96.4062 36.5211 96.4062 37.8125V40.1562H147.969V37.8125C147.969 36.5211 146.916 35.4688 145.625 35.4688Z" fill="#28166F"/>
<path d="M96.4062 119.844H145.625C146.916 119.844 147.969 118.794 147.969 117.5V44.8438H96.4062V119.844ZM117.5 98.75C114.91 98.75 112.812 96.6523 112.812 94.0625C112.812 91.4727 114.91 89.375 117.5 89.375C120.09 89.375 122.188 91.4727 122.188 94.0625C122.188 96.6523 120.09 98.75 117.5 98.75ZM136.25 98.75C133.66 98.75 131.562 96.6523 131.562 94.0625C131.562 91.4727 133.66 89.375 136.25 89.375C138.84 89.375 140.938 91.4727 140.938 94.0625C140.938 96.6523 138.84 98.75 136.25 98.75ZM103.438 51.875H140.938V61.25H120.934L117.791 65.9656L114.261 58.9062H103.438V51.875ZM103.438 63.5938H111.364L117.209 75.2844L123.441 65.9375H140.938V80H103.438V63.5938Z" fill="#28166F"/>
<path d="M61.25 55.5008C70.7656 58.1258 78.3875 64.6156 81.1789 72.9688H91.7188V49.5312H61.25V55.5008Z" fill="#28166F"/>
<path d="M72.9688 77.6562H91.7188V82.3438H72.9688V77.6562Z" fill="#28166F"/>
<path d="M72.9688 134.239C73.7234 134.042 74.4992 133.906 75.3125 133.906C76.1258 133.906 76.9016 134.042 77.6562 134.239V124.531H72.9688V134.239Z" fill="#28166F"/>
<path d="M30.7812 101.094H72.9688V119.844H30.7812V101.094Z" fill="#28166F"/>
<path d="M72.9688 96.4062H77.6562V119.844H91.7188V87.0312H72.9688V96.4062Z" fill="#28166F"/>
<path d="M75.3125 147.969C77.9013 147.969 80 145.87 80 143.281C80 140.692 77.9013 138.594 75.3125 138.594C72.7237 138.594 70.625 140.692 70.625 143.281C70.625 145.87 72.7237 147.969 75.3125 147.969Z" fill="#28166F"/>
</svg>
