<?xml version="1.0"?>
<svg xmlns="http://www.w3.org/2000/svg" xmlns:xlink="http://www.w3.org/1999/xlink" xmlns:svgjs="http://svgjs.com/svgjs" version="1.1" width="512" height="512" x="0" y="0" viewBox="0 0 511.955 511.955" style="enable-background:new 0 0 512 512" xml:space="preserve" class=""><g><g xmlns="http://www.w3.org/2000/svg"><path d="m197.605 224.495c0-17.176 4.978-34.039 14.164-48.413-28.083 15.593-47.129 45.562-47.129 79.896 1.098 94.647 125.505 125.521 171.211 44.187-58.728 38.325-138.836-5.456-138.246-75.67z" fill="#28166f" data-original="#000000" style="" class=""/><path d="m436.981 181.003v-106.029h-106.029l-74.974-74.974-74.974 74.974h-106.03v106.029l-74.974 74.975 74.974 74.974v106.029h106.029l74.974 74.974 74.974-74.974h106.029v-106.029l74.974-74.974zm-119.713-16.339h30.002v30h-30.002zm-61.313 212.629c-66.894 0-121.315-54.422-121.315-121.315-.585-72.978 66.209-130.864 138.33-120.122l12.909 1.817v25.827l-11.694 2.642c-26.596 5.69-47.062 31.021-46.58 58.353-.232 49.871 58.871 78.13 97.426 46.545 10.447-8.454 17.819-20.277 20.759-33.292l2.642-11.694h25.827l1.817 12.909c10.741 72.125-47.143 138.912-120.121 138.33z" fill="#28166f" data-original="#000000" style="" class=""/></g></g></svg>
