<?xml version="1.0"?>
<svg xmlns="http://www.w3.org/2000/svg" xmlns:xlink="http://www.w3.org/1999/xlink" xmlns:svgjs="http://svgjs.com/svgjs" version="1.1" width="512" height="512" x="0" y="0" viewBox="0 0 56 56" style="enable-background:new 0 0 512 512" xml:space="preserve" class=""><g><!-- Generator: Sketch 51.3 (57544) - http://www.bohemiancoding.com/sketch --><title xmlns="http://www.w3.org/2000/svg">009 - Molten Metal Mould</title><desc xmlns="http://www.w3.org/2000/svg">Created with Sketch.</desc><defs xmlns="http://www.w3.org/2000/svg"/><g xmlns="http://www.w3.org/2000/svg" id="Page-1" stroke="none" stroke-width="1" fill="none" fill-rule="evenodd"><g id="009---Molten-Metal-Mould" fill="#000000" fill-rule="nonzero"><path d="M38.154,18.206 C38.4828106,17.4629366 38.7611093,16.6985338 38.987,15.918 C40.595,10.244 39.339,4.704 36.245,3.818 C33.156,2.953 29.171,7 27.562,12.673 C27.1761985,14.0392056 26.950682,15.4456636 26.89,16.864 C28.064,16.248 31.11,15.6 38.154,18.206 Z" id="Shape" fill="#28166f" data-original="#000000" style="" class=""/><path d="M24.021,7.134 L6.761,0 L0,0 L0,1.521 L22.539,10.843 C22.9320859,9.56869442 23.4277053,8.32830842 24.021,7.134 Z" id="Shape" fill="#28166f" data-original="#000000" style="" class=""/><path d="M44.062,17.663 C42.516,23.11 39.4,27.434 35.8,29.585 L39.2,29.914 C39.5828072,29.5949553 39.9411457,29.2476478 40.272,28.875 C42.4195256,26.3006899 44.1216453,23.3855225 45.308,20.25 C46.8272571,16.7910182 47.7992099,13.11676 48.189,9.359 C48.3036021,8.10589734 48.2362372,6.84280457 47.989,5.609 L43.245,3.238 C45.153,6.958 45.593,12.253 44.062,17.663 Z" id="Shape" fill="#28166f" data-original="#000000" style="" class=""/><path d="M24.271,42.085 C24.1595806,42.6949626 24.0814649,43.310541 24.037,43.929 C25.6397961,43.8878964 27.2238413,43.5737252 28.721,43 C27.3000717,42.4455851 25.7953989,42.1361973 24.271,42.085 Z" id="Shape" fill="#28166f" data-original="#000000" style="" class=""/><path d="M50.182,9.528 C49.7760979,13.4922321 48.7541399,17.3688572 47.153,21.018 C45.8674962,24.3520267 44.0484272,27.4548465 41.767,30.205 C41.579,30.416 41.322,30.689 41.015,30.98 L43.01,31 L43.039,31 C44.228,31 45.426,29.323 46.222,28.209 C46.348,28.034 46.466,27.868 46.575,27.72 C48.2821936,25.3472933 49.6519197,22.7491887 50.645,20 C51.7830803,17.1664452 52.4977445,14.1807592 52.766,11.139 C52.8843095,9.95660611 52.8344809,8.7634128 52.618,7.595 C52.607,7.561 52.597,7.527 52.589,7.495 C52.496596,6.91247174 52.1379502,6.40630047 51.619,6.126 C51.613,6.126 51.609,6.118 51.603,6.116 C51.5966753,6.11553296 51.5903247,6.11553296 51.584,6.116 L50,5.4 C50.2453208,6.7616333 50.3065354,8.15006005 50.182,9.528 Z" id="Shape" fill="#28166f" data-original="#000000" style="" class=""/><path d="M23.667,21.327 C24.0535244,20.563291 24.4790869,19.819975 24.942,19.1 C24.746015,16.7527393 24.9832932,14.3894483 25.642,12.128 C27.606,5.183 32.506,0.688 36.791,1.9 C41.076,3.112 42.88,9.519 40.912,16.465 C40.5842523,17.6251747 40.1525022,18.7534145 39.622,19.836 C39.61,19.862 39.6,19.889 39.588,19.915 C38.5652287,22.1548052 36.9928549,24.0997192 35.017,25.569 C34.0536078,26.1972948 33.159603,26.9260411 32.35,27.743 C31.9413333,28.1756667 31.5446667,28.6136667 31.16,29.057 C35.643,28.763 40.236,23.822 42.139,17.118 C44.366,9.249 42.168,1.71 37.239,0.318 C34.927,-0.336 32.324,0.468 29.901,2.585 C27.1561714,5.14144885 25.1972463,8.42760038 24.254,12.058 C23.3683588,15.0650199 23.1677783,18.2322776 23.667,21.327 Z" id="Shape" fill="#28166f" data-original="#000000" style="" class=""/><path d="M42.844,49 L33.836,38.354 C33.6458462,38.1293072 33.3663557,37.999805 33.072,38 L25.472,38 C25.1915715,38.6917369 24.9465869,39.3973191 24.738,40.114 C27.494,40.352 31,41.04 31,43 C31,45.443 25.557,45.9 23.118,45.976 C23.0792377,45.986588 23.0398186,45.9946054 23,46 C22.9697134,45.9955346 22.9396743,45.9895268 22.91,45.982 C22.61,45.991 22.31,46 22,46 C21.365,46 20.8,45.979 20.266,45.946 C20.18039,45.9766926 20.0908014,45.9948798 20,46 C19.8553634,45.9975328 19.7130247,45.9633988 19.583,45.9 C16.983,45.7 13,45.068 13,43 C13,41.04 16.532,40.362 19.159,40.129 C19.2043333,39.409 19.259,38.6993333 19.323,38 L10.928,38 C10.6332949,37.9995104 10.3533794,38.1290399 10.163,38.354 L1.156,49 L42.844,49 Z" id="Shape" fill="#28166f" data-original="#000000" style="" class=""/><path d="M48.183,28.911 L47.849,29.373 C47.596,29.726 47.311,30.124 46.993,30.523 C50.371,29.823 53.739,25.907 55.168,20.867 C56.2471672,17.4886885 56.1192067,13.840401 54.806,10.546 C54.792,10.823 54.776,11.069 54.762,11.272 C54.4801568,14.5094917 53.7233818,17.6878793 52.516,20.705 C51.4575719,23.6273159 49.9993763,26.3889022 48.183,28.911 Z" id="Shape" fill="#28166f" data-original="#000000" style="" class=""/><rect id="Rectangle-path" x="0" y="51" width="44" height="5" fill="#28166f" data-original="#000000" style="" class=""/><path d="M24.357,24.634 C22.227,29.948 21.112,36.461 21.018,43.98 C21.3513333,43.9913333 21.696,43.9963333 22.052,43.995 C22.2148317,41.4470547 22.8329337,38.9489066 23.877,36.619 L23.885,36.601 C25.0587325,33.9731253 26.5683227,31.5085706 28.376,29.269 C29.15,28.294 29.998,27.318 30.896,26.369 C31.8014006,25.4483918 32.8027754,24.6273785 33.883,23.92 C35.2868313,22.8817433 36.4440528,21.5462777 37.272,20.009 C29.729,17.256 27.747,18.678 27.693,18.719 C27.3648605,19.097101 27.0640979,19.4981178 26.793,19.919 C25.8202911,21.4022895 25.0039301,22.9823972 24.357,24.634 Z" id="Shape" fill="#28166f" data-original="#000000" style="" class=""/><path d="M19.052,42.15 C17.7580041,42.2308874 16.4852682,42.5181813 15.282,43.001 C16.4749148,43.4811626 17.7374544,43.7658165 19.021,43.844 C19.029,43.277 19.032,42.706 19.052,42.15 Z" id="Shape" fill="#28166f" data-original="#000000" style="" class=""/><path d="M14,30 C15.6568542,30 17,28.6568542 17,27 C17,25.3431458 15.6568542,24 14,24 C12.3431458,24 11,25.3431458 11,27 C11,28.6568542 12.3431458,30 14,30 Z M14,26 C14.5522847,26 15,26.4477153 15,27 C15,27.5522847 14.5522847,28 14,28 C13.4477153,28 13,27.5522847 13,27 C13,26.4477153 13.4477153,26 14,26 Z" id="Shape" fill="#28166f" data-original="#000000" style="" class=""/><circle id="Oval" cx="8" cy="22" r="1" fill="#28166f" data-original="#000000" style="" class=""/><circle id="Oval" cx="11" cy="17" r="1" fill="#28166f" data-original="#000000" style="" class=""/></g></g></g></svg>
