<svg width="150" height="150" viewBox="0 0 150 150" fill="none" xmlns="http://www.w3.org/2000/svg">
<path d="M75 0C33.6451 0 0 33.6451 0 75C0 116.355 33.6451 150 75 150C116.355 150 150 116.355 150 75C150 33.6451 116.355 0 75 0ZM75 145C36.4025 145 5.0001 113.597 5.0001 75C5.0001 36.4025 36.4025 5.0001 75 5.0001C113.597 5.0001 145 36.4025 145 75C145 113.597 113.597 145 75 145Z" fill="#28166F"/>
<path d="M144.515 97.5452C133.025 90.3578 125 68.7502 125 45.0001C125 37.3577 125.788 29.9476 127.343 22.9776C127.643 21.6303 126.793 20.2926 125.445 19.9926C124.092 19.6975 122.76 20.5425 122.46 21.8901C120.828 29.2176 120 36.9927 120 45.0001C120 70.7851 128.788 93.6051 141.865 101.783C142.278 102.04 142.735 102.163 143.188 102.163C144.02 102.163 144.835 101.748 145.31 100.99C146.04 99.8201 145.685 98.275 144.515 97.5452Z" fill="#28166F"/>
<path d="M56.3801 2.8699C55.8677 2.66746 55.3052 2.6323 54.7726 2.7823C22.5249 11.7975 0 41.4949 0 75C0 116.355 33.6451 150 75 150C87.3349 150 99.5751 146.933 110.397 141.127C111.055 140.775 111.52 140.145 111.667 139.415L112.47 135.393L112.522 135.065C113.74 127.415 115 119.508 115 111.25C115 60.535 91.4426 16.9799 56.3801 2.8699ZM107.585 134.278L106.998 137.268C97.1578 142.33 86.1202 145 75.0003 145C36.4025 145 5.0001 113.597 5.0001 75C5.0001 44.0124 25.64 16.5149 55.3002 7.82986C88.0526 21.525 110 62.9399 110 111.25C110 119.113 108.773 126.823 107.585 134.278Z" fill="#28166F"/>
<path d="M58.3049 130.135C53.6025 128.53 48.8798 126.168 43.8625 122.905C42.7026 122.152 41.1549 122.48 40.4025 123.637C39.6502 124.795 39.9774 126.342 41.1349 127.095C46.505 130.585 51.5924 133.128 56.6924 134.865C56.9599 134.955 57.2324 135 57.4999 135C58.5399 135 59.5123 134.345 59.865 133.31C60.31 132.003 59.6125 130.58 58.3049 130.135Z" fill="#28166F"/>
<path d="M31.9499 113.435C31.3648 112.708 30.725 111.943 30.0623 111.155C28.1173 108.838 25.9098 106.213 24.7323 103.873C24.1098 102.64 22.6074 102.14 21.3749 102.765C20.1424 103.388 19.6449 104.89 20.2675 106.123C21.7074 108.983 24.1124 111.845 26.235 114.373C26.8725 115.13 27.49 115.865 28.0499 116.563C28.545 117.18 29.2698 117.5 30.0025 117.5C30.5501 117.5 31.1026 117.32 31.5649 116.95C32.6425 116.085 32.815 114.512 31.9499 113.435Z" fill="#28166F"/>
<path d="M145 53.5351C71.8125 52.9527 28.6474 77.4826 5.31239 98.25C4.28232 99.1676 4.19003 100.748 5.10732 101.78C5.5998 102.335 6.2874 102.618 6.9747 102.618C7.56474 102.618 8.15976 102.408 8.63466 101.985C31.3122 81.8025 73.4048 57.9425 144.952 58.5352C144.962 58.5352 144.97 58.5352 144.977 58.5352C146.347 58.5352 147.465 57.4301 147.477 56.0575C147.49 54.6777 146.38 53.5477 145 53.5351Z" fill="#28166F"/>
<path d="M22.7525 24.9999C21.9899 24.9999 21.2326 24.9674 20.475 24.9299C19.0875 24.905 17.925 25.9298 17.86 27.31C17.7926 28.6875 18.8575 29.86 20.2374 29.925C21.0724 29.9651 21.91 30 22.7525 30C55.8375 30 82.7525 61.9626 82.7525 101.25C82.7525 118.745 78.5051 134.23 70.4701 146.03C69.6926 147.173 69.9876 148.727 71.1302 149.505C71.5603 149.797 72.0501 149.937 72.5353 149.937C73.3354 149.937 74.1202 149.555 74.6054 148.845C83.2055 136.21 87.7529 119.752 87.7529 101.25C87.7526 59.2049 58.5926 24.9999 22.7525 24.9999Z" fill="#28166F"/>
</svg>
