<svg width="150" height="150" viewBox="0 0 150 150" fill="none" xmlns="http://www.w3.org/2000/svg">
<g clip-path="url(#clip0)">
<path d="M135.384 57.614H50.9768C49.5319 55.8496 47.8802 54.2616 46.0585 52.8868L128.997 22.146C129.512 21.9548 129.931 21.5667 130.161 21.0668C130.39 20.567 130.412 19.9959 130.221 19.4802L123.501 1.35402C123.104 0.280009 121.911 -0.267885 120.836 0.129986L13.8945 39.7688C12.8212 40.1671 12.2737 41.3603 12.6715 42.4343C12.6715 42.4343 14.6782 48.9161 14.6782 49.2255V80.9024C14.6782 82.0476 15.607 82.9764 16.7522 82.9764H21.4468V147.926C21.4468 149.072 22.3757 150 23.5209 150H133.197C134.342 150 135.271 149.072 135.271 147.926V81.0939H135.384C136.53 81.0939 137.458 80.1651 137.458 79.0199V59.688C137.458 58.5428 136.53 57.614 135.384 57.614ZM133.31 76.9458H117.162L132.346 61.762H133.31V76.9458ZM67.2325 76.9458L82.4163 61.762H90.0156L74.8318 76.9458H67.2325ZM95.8813 61.762H113.015L97.8313 76.9458H80.6976L95.8813 61.762ZM118.881 61.762H126.48L111.296 76.9458H103.697L118.881 61.762ZM76.5505 61.762L61.3667 76.9458H57.4157V75.6257C57.4157 70.5951 56.099 65.868 53.8003 61.7624H76.5505V61.762ZM106.579 26.0317L90.514 31.986L70.9993 23.0257L87.0638 17.0712L106.579 26.0317ZM92.5649 15.0324L99.6896 12.3914L119.205 21.3516L112.08 23.9926L92.5649 15.0324ZM85.0126 34.0251L77.8879 36.6657L58.3735 27.7058L65.4982 25.0649L85.0126 34.0251ZM72.3868 38.7049L56.322 44.6595L36.8079 35.6996L52.8725 29.745L72.3868 38.7049ZM50.8205 46.6982L43.6958 49.3392L24.1822 40.3793L31.3069 37.7387L50.8205 46.6982ZM125.61 18.9776L124.706 19.3129L105.19 10.3526L120.332 4.74025L125.61 18.9776ZM18.6801 42.4177L28.9926 47.1528C28.9756 47.1528 28.9587 47.1514 28.9418 47.1514H18.8453L17.2821 42.9366L18.6801 42.4177ZM18.8263 51.2995H28.9418C42.3553 51.2995 53.2679 62.2121 53.2679 75.6257V78.8283H18.8263V51.2995ZM131.123 145.852H25.5949V82.9764H55.342C56.4226 82.9764 57.3096 82.1496 57.4063 81.0942H131.123V145.852H131.123Z" fill="#28166F"/>
<path d="M123.042 101.868H33.2261V106.016H123.042V101.868Z" fill="#28166F"/>
<path d="M123.042 125.111H33.2261V129.26H123.042V125.111Z" fill="#28166F"/>
<path d="M65.434 89.1613H61.2859V100.223H65.434V89.1613Z" fill="#28166F"/>
<path d="M97.2362 89.1613H93.0881V100.223H97.2362V89.1613Z" fill="#28166F"/>
<path d="M27.0398 54.9149C23.9903 54.9149 21.509 57.3962 21.509 60.4457C21.509 63.4953 23.9903 65.9765 27.0398 65.9765C30.0894 65.9765 32.5706 63.4953 32.5706 60.4457C32.5706 57.3962 30.0894 54.9149 27.0398 54.9149ZM27.0398 61.8284C26.2773 61.8284 25.6571 61.2083 25.6571 60.4457C25.6571 59.6832 26.2773 59.063 27.0398 59.063C27.8024 59.063 28.4225 59.6832 28.4225 60.4457C28.4225 61.2083 27.8024 61.8284 27.0398 61.8284Z" fill="#28166F"/>
</g>
<defs>
<clipPath id="clip0">
<rect width="150" height="150" fill="white"/>
</clipPath>
</defs>
</svg>
