<svg width="150" height="150" viewBox="0 0 150 150" fill="none" xmlns="http://www.w3.org/2000/svg">
<path d="M138.072 125.065L97.5 115.52V100.957C101.226 97.0384 103.06 91.691 102.525 86.31C103.797 85.56 105.045 84.79 106.22 83.9575C110.166 81.1446 112.506 76.5957 112.5 71.75V20C112.488 8.95944 103.541 0.0123997 92.5 0H57.5C46.4594 0.0123997 37.5124 8.95944 37.5 20V71.75C37.4926 76.5975 39.8328 81.1486 43.78 83.9625C44.955 84.795 46.2025 85.5725 47.4775 86.315C46.9805 91.6342 48.7642 96.9144 52.385 100.843C52.6025 101.093 52.5 99.79 52.5 115.525C8.5625 125.86 11.8325 125.075 11.4775 125.205C9.405 125.963 0 130.033 0 147.5C0 148.881 1.11929 150 2.5 150H147.5C148.881 150 150 148.881 150 147.5C150 128.27 138.592 125.198 138.072 125.065ZM105 122.423L120 125.95V132.5L105 128.75V122.423ZM107.5 71.75C107.508 74.976 105.954 78.0065 103.33 79.8825C103.005 80.1125 102.66 80.3275 102.33 80.55C102.369 78.552 102.607 76.5629 103.042 74.6125C103.387 72.775 103.792 70.535 104.082 67.505H107.5L107.5 71.75ZM42.5 20C42.5083 11.7192 49.2192 5.00827 57.5 5H92.5C100.781 5.00827 107.492 11.7192 107.5 20V62.5H42.5V20ZM46.67 79.8775C44.047 78.0025 42.4933 74.9743 42.5 71.75L42.5 67.5H45.9225C46.535 73.955 47.6725 76.5375 47.6725 80.545C47.34 80.32 47 80.1075 46.67 79.8775ZM52.56 84.25C52.9925 74.9875 51.765 75.64 50.9375 67.5H99.0625C98.535 72.69 97.3125 76.1875 97.3125 80.575C97.3125 87.6125 98.8275 91.995 93.8125 97.575C90.7241 100.423 88.0129 103.654 85.745 107.19C81.5225 113.53 81.6825 112.5 71.175 112.5C65.3725 112.5 65.13 105.98 57.6075 99.0475C52.52 94.155 52.25 90.8175 52.56 84.25ZM92.5 106.32V116.263C88.0694 119.478 82.9201 121.563 77.5 122.335V117.5H78.825C86.525 117.5 88.305 111.695 92.5 106.32ZM72.5 117.5V122.335C67.0799 121.563 61.9306 119.478 57.5 116.263V106.318C61.6975 111.7 63.48 117.5 71.175 117.5H72.5ZM30 125.952L45 122.423V128.75L30 132.5V125.952ZM5.075 145C5.685 135.22 9.825 131.652 11.905 130.467C12.905 131.967 14.6825 135.863 14.96 145H5.075ZM57.5 135V145H19.9525C20.0848 139.52 19.0236 134.077 16.8425 129.048L25 127.128V132.5C25.0004 134.039 25.7095 135.492 26.9224 136.439C28.1353 137.386 29.7168 137.722 31.21 137.35L46.21 133.6C48.4366 133.045 49.9994 131.045 50 128.75V121.25L54.415 120.212C56.9946 122.087 59.7833 123.655 62.725 124.885C59.4551 127.218 57.5099 130.983 57.5 135ZM130.048 145H62.5V135C62.5 130.858 65.8579 127.5 70 127.5H75C82.4421 127.211 89.6208 124.668 95.585 120.208L100 121.25V128.75C100.001 131.045 101.563 133.045 103.79 133.6C120.012 137.655 119.132 137.5 120.013 137.5C122.769 137.493 125 135.257 125 132.5V127.128L133.16 129.048C130.976 134.076 129.914 139.52 130.048 145ZM135.048 145C135.325 135.865 137.1 131.96 138.107 130.463C140.195 131.648 144.327 135.212 144.935 145H135.048Z" fill="#28166F"/>
<path d="M72.5 140C73.8807 140 75 138.881 75 137.5C75 136.119 73.8807 135 72.5 135C71.1193 135 70 136.119 70 137.5C70 138.881 71.1193 140 72.5 140Z" fill="#28166F"/>
</svg>
