<svg width="150" height="150" viewBox="0 0 150 150" fill="none" xmlns="http://www.w3.org/2000/svg">
<path d="M87.4394 68.5993C86.984 67.787 86.2253 67.1883 85.3294 66.9343C84.4334 66.6802 83.4733 66.7916 82.6594 67.244C82.6201 67.2657 78.6756 69.4337 75 69.4337C71.3575 69.4337 67.4511 67.305 67.3427 67.2452C66.5299 66.7931 65.571 66.6815 64.6761 66.9349C63.7812 67.1882 63.0232 67.7859 62.568 68.597C62.1128 69.408 61.9976 70.3664 62.2475 71.2623C62.4974 72.1581 63.0921 72.9185 63.9015 73.3768C64.4634 73.6929 69.549 76.4649 75 76.4649C80.451 76.4649 85.5366 73.6929 86.0985 73.3768C86.9092 72.9204 87.5058 72.1611 87.7572 71.2654C88.0086 70.3697 87.8943 69.4108 87.4394 68.5993Z" fill="#28166F"/>
<path d="M126.211 108.094C123.705 104.978 120.215 102.807 116.313 101.934L114.266 101.479L114.363 101.419C114.948 101.053 115.413 100.523 115.699 99.8956C115.985 99.2679 116.08 98.5698 115.973 97.8883C115.865 97.2069 115.559 96.5722 115.093 96.0634C114.627 95.5545 114.022 95.194 113.353 95.0267L94.6026 90.3392C93.9496 90.176 93.2635 90.2037 92.6257 90.4189C91.988 90.6342 91.4254 91.028 91.0049 91.5536L87.8907 95.4463V90.2021C92.7709 88.3586 97.1953 85.4826 100.861 81.7709C104.527 78.0592 107.348 73.5995 109.131 68.6967C112.362 69.5722 115.806 69.1565 118.736 67.5378C121.666 65.919 123.851 63.2241 124.83 60.023C125.808 56.8219 125.503 53.3657 123.979 50.3855C122.455 47.4053 119.832 45.1348 116.663 44.0542C123.016 42.3758 127.233 40.9833 127.674 40.8363C128.396 40.5956 129.021 40.1273 129.454 39.5015C129.887 38.8758 130.105 38.1264 130.076 37.3661C130.046 36.6057 129.771 35.8753 129.291 35.2846C128.812 34.694 128.153 34.2749 127.415 34.0904L111.328 30.0676V18.7526C111.328 16.2341 110.787 13.7449 109.742 11.4537C108.696 9.16252 107.17 7.12275 105.268 5.47256C103.365 3.82237 101.13 2.60028 98.7141 1.88906C96.298 1.17783 93.7574 0.994082 91.2642 1.35024L75 3.67436L58.7359 1.35112C56.2427 0.994971 53.7022 1.1787 51.2862 1.88988C48.8703 2.60105 46.6354 3.82306 44.7328 5.47315C42.8302 7.12325 41.3044 9.1629 40.2588 11.454C39.2131 13.7451 38.6719 16.2341 38.6719 18.7526V30.0676L22.585 34.0892C21.8468 34.2737 21.1883 34.6928 20.7086 35.2835C20.2288 35.8741 19.9537 36.6045 19.9245 37.3649C19.8952 38.1253 20.1135 38.8746 20.5465 39.5004C20.9795 40.1261 21.6038 40.5945 22.3257 40.8351C22.7652 40.9816 26.9839 42.3747 33.3367 44.0531C30.1686 45.1336 27.545 47.4041 26.0209 50.3843C24.4969 53.3645 24.1918 56.8207 25.1703 60.0218C26.1488 63.2229 28.3341 65.9178 31.2639 67.5366C34.1937 69.1554 37.6384 69.571 40.8692 68.6956C42.652 73.5984 45.4728 78.0582 49.1387 81.7698C52.8046 85.4815 57.2291 88.3575 62.1094 90.2009V95.4451L58.9952 91.5527C58.5746 91.0271 58.0121 90.6333 57.3744 90.418C56.7366 90.2028 56.0505 90.1751 55.3975 90.3383L36.6475 95.0258C35.9782 95.1931 35.3729 95.5536 34.907 96.0625C34.4411 96.5713 34.1352 97.206 34.0275 97.8875C33.9197 98.5689 34.0149 99.267 34.301 99.8947C34.5872 100.522 35.0517 101.052 35.6368 101.418L35.7337 101.478L33.6873 101.933C29.7832 102.801 26.2916 104.974 23.789 108.093C21.2863 111.213 19.9222 115.092 19.9219 119.092V145.312C19.9219 146.245 20.2923 147.139 20.9516 147.798C21.6109 148.458 22.5051 148.828 23.4375 148.828C24.3699 148.828 25.2642 148.458 25.9235 147.798C26.5828 147.139 26.9532 146.245 26.9532 145.312V119.092C26.9419 116.689 27.7563 114.356 29.2598 112.482C30.7634 110.608 32.865 109.308 35.2128 108.798L44.2363 106.793L62.623 118.285C62.2829 119.451 62.11 120.66 62.1094 121.875C62.1094 122.089 62.1153 122.301 62.1255 122.512C56.9936 126.352 50.9997 133.074 48.1509 144.459C47.9247 145.364 48.067 146.321 48.5466 147.121C49.0263 147.921 49.804 148.497 50.7085 148.723C51.6131 148.949 52.5705 148.807 53.3702 148.327C54.1698 147.848 54.7461 147.07 54.9724 146.166C57.0121 138.009 60.9261 132.799 64.6284 129.531C64.7846 129.742 64.9465 129.948 65.1141 130.149C62.2061 136.224 62.1094 144.282 62.1094 145.312C62.1094 146.245 62.4798 147.139 63.1391 147.798C63.7984 148.458 64.6926 148.828 65.625 148.828C66.5574 148.828 67.4516 148.458 68.111 147.798C68.7703 147.139 69.1407 146.245 69.1407 145.312C69.1407 143.367 69.525 138.015 71.0417 134.141C73.6167 134.974 76.3888 134.974 78.9633 134.14C80.473 137.971 80.8553 143.227 80.8594 145.316C80.8599 146.248 81.2307 147.142 81.8904 147.801C82.55 148.46 83.4444 148.83 84.3768 148.83C85.3092 148.829 86.2032 148.459 86.8622 147.799C87.5212 147.139 87.8911 146.245 87.8907 145.312C87.8907 144.282 87.794 136.224 84.8851 130.149C85.0535 129.948 85.2154 129.742 85.3708 129.531C89.0731 132.799 92.988 138.009 95.0268 146.166C95.1388 146.613 95.338 147.035 95.6129 147.406C95.8878 147.777 96.2331 148.09 96.629 148.327C97.025 148.565 97.4638 148.722 97.9205 148.79C98.3772 148.858 98.8428 148.835 99.2907 148.723C99.7386 148.611 100.16 148.412 100.531 148.137C100.902 147.862 101.215 147.517 101.453 147.121C101.69 146.725 101.847 146.286 101.915 145.83C101.983 145.373 101.96 144.907 101.848 144.459C99.0003 133.074 93.0065 126.352 87.8737 122.512C87.8839 122.301 87.8898 122.089 87.8898 121.875C87.8896 120.66 87.7171 119.451 87.3774 118.285L105.764 106.793L114.788 108.798C117.135 109.308 119.237 110.608 120.74 112.482C122.244 114.356 123.058 116.689 123.047 119.092V145.312C123.047 146.245 123.417 147.139 124.077 147.798C124.736 148.458 125.63 148.828 126.563 148.828C127.495 148.828 128.389 148.458 129.048 147.798C129.708 147.139 130.078 146.245 130.078 145.312V119.092C130.073 115.093 128.71 111.216 126.211 108.094ZM112.5 62.1093C111.955 62.1086 111.413 62.0321 110.889 61.882C111.18 60.0188 111.327 58.1358 111.328 56.25V50.5092C112.13 50.3463 112.958 50.3533 113.757 50.5298C114.557 50.7063 115.31 51.0483 115.969 51.5338C116.628 52.0194 117.178 52.6376 117.584 53.3487C117.99 54.0599 118.242 54.8481 118.324 55.6626C118.406 56.4771 118.317 57.2997 118.062 58.0776C117.807 58.8554 117.391 59.5712 116.843 60.1787C116.294 60.7863 115.624 61.2721 114.876 61.6048C114.128 61.9376 113.319 62.11 112.5 62.1108V62.1093ZM45.7032 18.7526C45.7032 17.2415 46.0279 15.7481 46.6553 14.3735C47.2827 12.9988 48.1982 11.775 49.3397 10.785C50.4813 9.79492 51.8222 9.06172 53.2718 8.63501C54.7213 8.20831 56.2457 8.09808 57.7415 8.31177L74.502 10.7062C74.8318 10.7534 75.1666 10.7534 75.4963 10.7062L92.2577 8.31177C93.7536 8.09794 95.278 8.20807 96.7277 8.63471C98.1774 9.06135 99.5184 9.79452 100.66 10.7846C101.802 11.7747 102.717 12.9985 103.345 14.3732C103.972 15.7479 104.297 17.2414 104.297 18.7526V29.2968H45.7032V18.7526ZM42.6205 36.3281H107.38L112.969 37.7255C102.809 40.3125 88.0635 43.3593 75 43.3593C61.9366 43.3593 47.1914 40.3125 37.0313 37.7255L42.6205 36.3281ZM37.5 62.1093C36.6808 62.1095 35.8706 61.9379 35.1218 61.6056C34.373 61.2732 33.7022 60.7876 33.1527 60.1799C32.6032 59.5723 32.1873 58.8561 31.9317 58.0778C31.6762 57.2994 31.5867 56.4761 31.669 55.661C31.7514 54.8459 32.0037 54.0572 32.4098 53.3456C32.8159 52.6341 33.3666 52.0156 34.0265 51.5302C34.6865 51.0447 35.4408 50.703 36.241 50.5272C37.0411 50.3513 37.8693 50.3452 38.6719 50.5092V56.25C38.6731 58.1358 38.8201 60.0188 39.1114 61.882C38.5874 62.0322 38.0451 62.1087 37.5 62.1093ZM66.3493 112.324L46.3796 99.8437L54.9141 97.71L66.4995 112.191C66.4492 112.234 66.3991 112.278 66.3493 112.324ZM80.6277 123.491C80.2152 124.912 79.2794 126.123 78.009 126.881C76.7385 127.639 75.2279 127.887 73.7818 127.575C72.3357 127.263 71.0617 126.415 70.2167 125.2C69.3717 123.986 69.0186 122.497 69.2286 121.032C69.4385 119.568 70.1959 118.237 71.3481 117.31C72.5002 116.382 73.9614 115.925 75.4368 116.032C76.9123 116.139 78.2924 116.801 79.2987 117.886C80.305 118.97 80.8628 120.396 80.8594 121.875C80.8579 122.422 80.7799 122.965 80.6277 123.49V123.491ZM76.9427 109.131C75.6551 108.936 74.3453 108.936 73.0577 109.131L67.0659 101.641C67.6835 101.364 68.2079 100.914 68.5759 100.346C68.944 99.7771 69.1401 99.1146 69.1407 98.4375V92.0947C73.0203 92.7392 76.9797 92.7392 80.8594 92.0947V98.4375C80.8597 99.1147 81.0558 99.7774 81.4239 100.346C81.7921 100.914 82.3166 101.364 82.9345 101.641L76.9427 109.131ZM75 85.5468C72.0662 85.5443 69.1487 85.11 66.3413 84.2578C61.4574 82.764 57.052 80.0127 53.5665 76.2797C50.0811 72.5466 47.6381 67.963 46.4825 62.9882V62.9838C46.4807 62.9765 46.4792 62.9692 46.4775 62.9619C45.9623 60.7617 45.7025 58.5096 45.7032 56.25V46.9672C48.4881 47.5423 51.4122 48.0881 54.4137 48.5689C53.9009 48.8823 53.4772 49.3222 53.1831 49.8464C52.8891 50.3705 52.7346 50.9614 52.7344 51.5625V56.25C52.7344 57.1824 53.1048 58.0766 53.7641 58.7359C54.4234 59.3952 55.3176 59.7656 56.25 59.7656C57.1824 59.7656 58.0766 59.3952 58.736 58.7359C59.3953 58.0766 59.7657 57.1824 59.7657 56.25V51.5625C59.7659 50.6985 59.4463 49.8651 58.8686 49.2228C63.1099 49.7868 67.4373 50.1896 71.6839 50.3334L67.1681 59.3651C66.9001 59.9011 66.7735 60.4967 66.8004 61.0954C66.8274 61.694 67.0069 62.2759 67.3219 62.7857C67.637 63.2955 68.0771 63.7162 68.6005 64.0081C69.1239 64.2999 69.7133 64.4531 70.3125 64.4531H75C75.851 64.4537 76.6732 64.1457 77.3144 63.5862C77.9555 63.0267 78.3719 62.2537 78.4864 61.4105C78.6009 60.5673 78.4057 59.7112 77.9369 59.001C77.4682 58.2908 76.7578 57.7747 75.9375 57.5484L78.1445 53.1348C78.3606 52.7033 78.4852 52.2317 78.5104 51.7497C78.5356 51.2678 78.4609 50.7858 78.291 50.334C82.5457 50.1919 86.8826 49.7879 91.1324 49.2228C90.5543 49.865 90.2345 50.6984 90.2344 51.5625V56.25C90.2344 57.1824 90.6048 58.0766 91.2641 58.7359C91.9234 59.3952 92.8176 59.7656 93.75 59.7656C94.6824 59.7656 95.5767 59.3952 96.236 58.7359C96.8953 58.0766 97.2657 57.1824 97.2657 56.25V51.5625C97.2655 50.9615 97.111 50.3706 96.817 49.8464C96.5231 49.3223 96.0994 48.8824 95.5867 48.5689C98.5878 48.0881 101.512 47.5435 104.297 46.9672V56.25C104.298 58.5106 104.038 60.7639 103.523 62.9651L103.519 62.9809L103.517 62.9917C102.361 67.9659 99.9182 72.5489 96.4329 76.2813C92.9476 80.0137 88.5425 82.7644 83.659 84.2578C80.8516 85.1101 77.934 85.5445 75 85.5468ZM83.6485 112.324C83.599 112.279 83.5471 112.236 83.497 112.193L95.086 97.7074L103.62 99.8411L83.6485 112.324Z" fill="#28166F"/>
</svg>
