<svg width="150" height="150" viewBox="0 0 150 150" fill="none" xmlns="http://www.w3.org/2000/svg">
<g clip-path="url(#clip0)">
<path d="M85.3936 150H64.6061C59.5311 150 55.2124 146.531 54.0999 141.569L51.4624 129.863C47.1686 128.044 43.0811 125.669 39.2499 122.775L27.8624 126.369C22.9749 127.875 17.6624 125.806 15.2124 121.444L4.84989 103.519C2.36864 99.0812 3.20614 93.6125 6.86239 90.175L15.6874 82.0625C15.4186 79.6875 15.2811 77.3187 15.2811 75C15.2811 72.6813 15.4124 70.3125 15.6811 67.9375L6.89989 59.8625C3.20614 56.3875 2.36239 50.925 4.81864 46.5438L15.2436 28.5125C17.6686 24.2 22.9749 22.1125 27.8499 23.6312L39.2499 27.225C43.0811 24.3312 47.1749 21.9562 51.4624 20.1375L54.0999 8.425C55.2124 3.46875 59.5311 0 64.6061 0H85.3936C90.4686 0 94.7874 3.46875 95.8999 8.43125L98.5374 20.1375C102.831 21.9562 106.919 24.3312 110.75 27.225L122.137 23.6312C127.012 22.1062 132.331 24.1937 134.787 28.5562L145.15 46.4812C147.631 50.9187 146.794 56.3875 143.137 59.825L134.312 67.9375C134.581 70.3125 134.712 72.6813 134.712 75C134.712 77.3187 134.581 79.6875 134.312 82.0625L143.1 90.1375C143.112 90.15 143.125 90.1625 143.137 90.175C146.794 93.6125 147.637 99.075 145.181 103.456L134.756 121.487C132.325 125.8 127.019 127.887 122.15 126.369L110.744 122.769C106.912 125.662 102.819 128.038 98.5311 129.856L95.8936 141.569C94.7874 146.531 90.4686 150 85.3936 150ZM40.2124 112.869C41.2874 112.869 42.3436 113.237 43.1999 113.938C47.4811 117.469 52.1686 120.188 57.1249 122.019C58.6124 122.569 59.7249 123.838 60.0749 125.388L63.2561 139.512C63.3999 140.156 63.9749 140.625 64.6186 140.625H85.4061C86.0499 140.625 86.6186 140.156 86.7686 139.519L89.9499 125.394C90.2999 123.844 91.4061 122.575 92.8999 122.025C97.8561 120.194 102.544 117.469 106.825 113.944C108.05 112.931 109.694 112.606 111.219 113.088L124.975 117.431C125.625 117.631 126.325 117.406 126.631 116.85L137.056 98.825C137.369 98.2688 137.256 97.5062 136.75 97.0187L126.2 87.3187C125.05 86.2625 124.506 84.7125 124.744 83.1688C125.156 80.4188 125.369 77.6687 125.369 75C125.369 72.3313 125.162 69.5875 124.744 66.8312C124.512 65.2875 125.056 63.7375 126.2 62.6813L136.775 52.9562C137.25 52.5062 137.375 51.7375 137.025 51.1187L126.662 33.2C126.325 32.6062 125.65 32.375 124.962 32.575L111.225 36.9125C109.7 37.3937 108.056 37.0687 106.831 36.0563C102.55 32.525 97.8624 29.8062 92.9061 27.975C91.4186 27.425 90.3061 26.1562 89.9561 24.6063L86.7749 10.4813C86.6061 9.84375 86.0374 9.375 85.3936 9.375H64.6061C63.9624 9.375 63.3936 9.84375 63.2436 10.4813L60.0624 24.6125C59.7186 26.1625 58.6061 27.425 57.1186 27.9813C52.1624 29.8125 47.4749 32.5312 43.1936 36.0625C41.9686 37.075 40.3249 37.3937 38.7999 36.9188L25.0436 32.575C24.3936 32.375 23.6936 32.6063 23.3874 33.1562L12.9624 51.175C12.6436 51.7375 12.7686 52.5063 13.2811 52.9938L23.8249 62.6813C24.9749 63.7375 25.5186 65.2875 25.2811 66.8312C24.8686 69.5812 24.6561 72.3313 24.6561 75C24.6561 77.6687 24.8624 80.4125 25.2811 83.1688C25.5124 84.7125 24.9686 86.2625 23.8249 87.3187L13.2499 97.0438C12.7749 97.4938 12.6499 98.2625 12.9999 98.8812L23.3624 116.8C23.7061 117.4 24.3874 117.644 25.0624 117.425L38.7999 113.088C39.2624 112.938 39.7374 112.869 40.2124 112.869Z" fill="#28166F"/>
<path d="M70.3187 100C69.9625 100 69.6125 99.9625 69.2562 99.8813C66.7375 99.3 65.1625 96.7813 65.7437 94.2625L75.1187 53.6375C75.7 51.1063 78.25 49.55 80.7375 50.1188C83.2562 50.7 84.8312 53.2188 84.25 55.7375L74.875 96.3625C74.375 98.5375 72.45 100 70.3187 100Z" fill="#28166F"/>
<path d="M95.3125 93.7501C94.0312 93.7501 92.7562 93.2313 91.825 92.2001C90.0937 90.2751 90.25 87.3126 92.175 85.5751L103.931 75.0001L92.175 64.4251C90.25 62.6938 90.0937 59.7313 91.825 57.8001C93.5625 55.8813 96.525 55.7251 98.45 57.4501L114.075 71.5126C115.062 72.4063 115.625 73.6751 115.625 75.0001C115.625 76.3251 115.062 77.5938 114.075 78.4876L98.45 92.5501C97.55 93.3563 96.4312 93.7501 95.3125 93.7501Z" fill="#28166F"/>
<path d="M54.6875 93.75C53.5688 93.75 52.45 93.3562 51.55 92.55L35.925 78.4875C34.9375 77.5937 34.375 76.325 34.375 75C34.375 73.675 34.9375 72.4062 35.925 71.5125L51.55 57.45C53.475 55.7187 56.4312 55.875 58.175 57.8C59.9062 59.725 59.75 62.6875 57.825 64.425L46.0687 75L57.825 85.575C59.75 87.3062 59.9062 90.2687 58.175 92.2C57.2437 93.2312 55.9688 93.75 54.6875 93.75Z" fill="#28166F"/>
</g>
<defs>
<clipPath id="clip0">
<rect width="150" height="150" fill="white"/>
</clipPath>
</defs>
</svg>
