<svg width="150" height="150" viewBox="0 0 150 150" fill="none" xmlns="http://www.w3.org/2000/svg">
<g clip-path="url(#clip0)">
<path d="M30.2479 113.626C30.2479 112.413 29.2641 111.429 28.0506 111.429C15.0064 111.429 4.39453 100.824 4.39453 87.7903C4.39453 78.5439 9.83877 70.0938 18.264 66.2626C19.3687 65.7605 19.8571 64.4576 19.3547 63.3529C18.8525 62.2481 17.5494 61.7597 16.4449 62.2621C6.45498 66.8049 0 76.825 0 87.7903C0 103.248 12.5833 115.823 28.0506 115.823C29.2641 115.823 30.2479 114.839 30.2479 113.626Z" fill="#28166F"/>
<path d="M46.011 67.725C49.1791 50.0317 64.5565 37.19 82.5747 37.19C96.3533 37.19 108.932 44.7507 115.402 56.9218C115.972 57.9932 117.302 58.4001 118.374 57.8306C119.445 57.261 119.852 55.9307 119.282 54.859C118.052 52.5442 116.624 50.3786 115.025 48.3785V19.089L120.341 12.755C121.06 13.0245 121.837 13.1719 122.65 13.1719C126.284 13.1719 129.241 10.2176 129.241 6.58594C129.241 2.9543 126.284 0 122.65 0C119.015 0 116.058 2.9543 116.058 6.58594C116.058 7.80644 116.392 8.95049 116.973 9.93135L111.145 16.8765C110.813 17.2723 110.631 17.7724 110.631 18.2889V43.6781C106.773 40.1461 102.284 37.3784 97.4027 35.5181V20.1817C99.9603 19.2756 101.797 16.834 101.797 13.972C101.797 10.3403 98.8403 7.38603 95.2054 7.38603C91.5706 7.38603 88.6136 10.3403 88.6136 13.972C88.6136 16.834 90.4505 19.2756 93.0081 20.1817V34.1183C89.6481 33.2502 86.1474 32.7955 82.5747 32.7955C80.7556 32.7955 78.9603 32.9127 77.1972 33.1403V12.7957C79.7548 11.8895 81.5917 9.44795 81.5917 6.58594C81.5917 2.9543 78.6348 0 75 0C71.3651 0 68.4082 2.9543 68.4082 6.58594C68.4082 9.44795 70.2451 11.8895 72.8027 12.7957V33.9495C66.9758 35.3502 61.6004 37.979 56.9917 41.5723V20.1817C59.5494 19.2756 61.3863 16.834 61.3863 13.972C61.3863 10.3403 58.4293 7.38603 54.7945 7.38603C51.1596 7.38603 48.2027 10.3403 48.2027 13.972C48.2027 16.834 50.0396 19.2756 52.5972 20.1817V45.5323C47.8083 50.5099 44.2371 56.7091 42.4022 63.6964C41.3759 63.0823 40.3168 62.538 39.2299 62.0645V18.2892C39.2299 17.7724 39.0477 17.2723 38.7158 16.8768L32.8875 9.93164C33.469 8.95049 33.803 7.80644 33.803 6.58594C33.803 2.9543 30.846 0 27.2112 0C23.5763 0 20.6194 2.9543 20.6194 6.58594C20.6194 10.2176 23.5763 13.1719 27.2112 13.1719C28.023 13.1719 28.8011 13.0245 29.5198 12.755L34.8354 19.089V60.5763C32.6417 60.034 30.3691 59.7574 28.0502 59.7574C26.8368 59.7574 25.853 60.7412 25.853 61.9547C25.853 63.1682 26.8368 64.1519 28.0502 64.1519C33.3357 64.1519 38.3337 65.855 42.5044 69.0768C42.895 69.3785 43.369 69.5352 43.848 69.5352C44.1143 69.5352 44.3821 69.4869 44.6381 69.3882C45.355 69.1116 45.8753 68.4811 46.011 67.725ZM122.65 4.39453C123.861 4.39453 124.847 5.37744 124.847 6.58594C124.847 7.79443 123.861 8.77734 122.65 8.77734C121.438 8.77734 120.452 7.79443 120.452 6.58594C120.452 5.37744 121.438 4.39453 122.65 4.39453ZM95.2054 11.7803C96.4171 11.7803 97.4027 12.7635 97.4027 13.9717C97.4027 15.1799 96.4171 16.1631 95.2054 16.1631C93.9937 16.1631 93.0081 15.1802 93.0081 13.9717C93.0081 12.7632 93.9937 11.7803 95.2054 11.7803ZM75 4.39453C76.2117 4.39453 77.1972 5.37744 77.1972 6.58594C77.1972 7.79443 76.2117 8.77734 75 8.77734C73.7882 8.77734 72.8027 7.79443 72.8027 6.58594C72.8027 5.37744 73.7882 4.39453 75 4.39453ZM54.7945 11.7803C56.0062 11.7803 56.9917 12.7635 56.9917 13.9717C56.9917 15.1799 56.0062 16.1631 54.7945 16.1631C53.5828 16.1631 52.5972 15.1802 52.5972 13.9717C52.5972 12.7632 53.5828 11.7803 54.7945 11.7803ZM25.0139 6.58594C25.0139 5.37744 25.9995 4.39453 27.2112 4.39453C28.4229 4.39453 29.4084 5.37744 29.4084 6.58594C29.4084 7.79443 28.4229 8.77734 27.2112 8.77734C25.9995 8.77734 25.0139 7.79414 25.0139 6.58594Z" fill="#28166F"/>
<path d="M128.839 73.5256C127.235 73.5256 125.655 73.7028 124.115 74.0544C124.096 70.9946 123.743 67.9463 123.064 64.9897C122.792 63.8067 121.613 63.0681 120.431 63.3397C119.248 63.6112 118.509 64.7902 118.781 65.9729C119.405 68.6896 119.721 71.4947 119.721 74.3096C119.721 75.1683 119.69 76.0437 119.63 76.9111C119.578 77.6647 119.917 78.3924 120.527 78.8377C121.137 79.2833 121.933 79.3835 122.635 79.1043C124.608 78.3189 126.695 77.9204 128.838 77.9204C138.084 77.9204 145.605 85.4362 145.605 94.6747C145.605 103.913 138.084 111.429 128.838 111.429H121.633C120.419 111.429 119.435 112.413 119.435 113.626C119.435 114.84 120.419 115.824 121.633 115.824H128.838C140.507 115.824 150 106.336 150 94.6747C150 83.0131 140.507 73.5256 128.839 73.5256Z" fill="#28166F"/>
<path d="M104.157 111.428H83.7932C82.5797 111.428 81.5959 112.412 81.5959 113.626C81.5959 114.839 82.5797 115.823 83.7932 115.823H93.0079V137.204C90.4503 138.11 88.6134 140.552 88.6134 143.414C88.6134 147.046 91.5703 150 95.2052 150C98.8401 150 101.797 147.046 101.797 143.414C101.797 140.552 99.9601 138.11 97.4025 137.204V115.823H104.157C105.37 115.823 106.354 114.839 106.354 113.626C106.354 112.412 105.37 111.428 104.157 111.428ZM95.2052 145.605C93.9935 145.605 93.0079 144.622 93.0079 143.414C93.0079 142.205 93.9935 141.223 95.2052 141.223C96.4169 141.223 97.4025 142.206 97.4025 143.414C97.4025 144.622 96.4169 145.605 95.2052 145.605Z" fill="#28166F"/>
<path d="M66.2004 111.428H46.1924C44.9789 111.428 43.9951 112.412 43.9951 113.626C43.9951 114.839 44.9789 115.823 46.1924 115.823H52.5979V137.204C50.0402 138.11 48.2033 140.552 48.2033 143.414C48.2033 147.046 51.1603 150 54.7951 150C58.43 150 61.3869 147.046 61.3869 143.414C61.3869 140.552 59.55 138.11 56.9924 137.204V115.823H66.2004C67.4139 115.823 68.3977 114.839 68.3977 113.626C68.3977 112.412 67.4139 111.428 66.2004 111.428ZM54.7951 145.605C53.5834 145.605 52.5979 144.622 52.5979 143.414C52.5979 142.205 53.5834 141.223 54.7951 141.223C56.0068 141.223 56.9924 142.206 56.9924 143.414C56.9924 144.622 56.0068 145.605 54.7951 145.605Z" fill="#28166F"/>
<path d="M37.1717 92.4719C33.5368 92.4719 30.5799 95.4262 30.5799 99.0579C30.5799 101.92 32.4168 104.361 34.9744 105.268V135.3L25.6668 146.39C24.8866 147.32 25.0079 148.706 25.9375 149.486C26.3491 149.831 26.8504 150 27.3487 150C27.9757 150 28.5985 149.733 29.033 149.215L38.8548 137.512C39.1867 137.116 39.369 136.616 39.369 136.099V105.267C41.9266 104.361 43.7635 101.92 43.7635 99.0576C43.7635 95.4262 40.8066 92.4719 37.1717 92.4719ZM37.1717 101.249C35.96 101.249 34.9744 100.266 34.9744 99.0579C34.9744 97.8494 35.96 96.8665 37.1717 96.8665C38.3834 96.8665 39.369 97.8497 39.369 99.0579C39.369 100.266 38.3834 101.249 37.1717 101.249Z" fill="#28166F"/>
<path d="M75 92.4719C71.3651 92.4719 68.4082 95.4262 68.4082 99.0579C68.4082 101.92 70.2451 104.361 72.8027 105.268V147.803C72.8027 149.016 73.7865 150 75 150C76.2135 150 77.1973 149.016 77.1973 147.803V105.268C79.7549 104.361 81.5918 101.92 81.5918 99.0579C81.5918 95.4262 78.6349 92.4719 75 92.4719ZM75 101.249C73.7883 101.249 72.8027 100.266 72.8027 99.0579C72.8027 97.8494 73.7883 96.8665 75 96.8665C76.2117 96.8665 77.1973 97.8497 77.1973 99.0579C77.1973 100.266 76.2117 101.249 75 101.249Z" fill="#28166F"/>
<path d="M115.025 135.3V105.268C117.583 104.361 119.42 101.92 119.42 99.0579C119.42 95.4262 116.463 92.4719 112.828 92.4719C109.193 92.4719 106.236 95.4262 106.236 99.0579C106.236 101.92 108.073 104.361 110.631 105.268V136.1C110.631 136.616 110.813 137.117 111.145 137.512L120.967 149.215C121.402 149.733 122.024 150 122.651 150C123.149 150 123.651 149.831 124.062 149.486C124.992 148.706 125.113 147.32 124.333 146.39L115.025 135.3ZM112.828 96.8665C114.04 96.8665 115.025 97.8497 115.025 99.0579C115.025 100.266 114.04 101.249 112.828 101.249C111.616 101.249 110.631 100.266 110.631 99.0579C110.631 97.8494 111.616 96.8665 112.828 96.8665Z" fill="#28166F"/>
</g>
<defs>
<clipPath id="clip0">
<rect width="150" height="150" fill="white"/>
</clipPath>
</defs>
</svg>
