<svg width="150" height="150" viewBox="0 0 150 150" fill="none" xmlns="http://www.w3.org/2000/svg">
<g clip-path="url(#clip0)">
<path d="M138.981 15.8783H100.447C98.2275 11.591 94.9249 7.86911 90.7496 5.11739C89.8613 4.53238 88.7277 4.48243 87.791 4.98782C86.8519 5.49379 86.2684 6.46989 86.2684 7.53561V15.8786H63.7316V7.53414C63.7316 6.46842 63.1484 5.49232 62.209 4.98635C61.2723 4.48184 60.1399 4.5312 59.2531 5.11563C55.0751 7.86793 51.7716 11.5902 49.5523 15.878H11.0186C4.9428 15.878 0 20.8208 0 26.8966V35.0387C0 36.256 0.986386 37.2424 2.20372 37.2424C3.42106 37.2424 4.40744 36.256 4.40744 35.0387V26.8966C4.40744 23.2514 7.37336 20.2855 11.0186 20.2855H47.7179C46.8194 23.0898 46.3475 26.0548 46.3516 29.0904C46.3613 36.4958 49.2147 43.533 54.3861 48.9056C56.5496 51.1534 59.0221 52.9999 61.7042 54.4152V91.0014H4.40744V45.3227C4.40744 44.1053 3.42106 43.119 2.20372 43.119C0.986386 43.119 0 44.1053 0 45.3227V103.489C0 109.565 4.9428 114.508 11.0186 114.508H58.619V126.849H41.9442C37.8126 126.849 34.4515 130.21 34.4515 134.341V137.867C34.4515 141.999 37.8126 145.36 41.9442 145.36H108.056C112.187 145.36 115.548 141.999 115.548 137.867V134.341C115.548 130.21 112.187 126.849 108.056 126.849H91.381V114.508H113.662C114.879 114.508 115.866 113.521 115.866 112.304C115.866 111.087 114.879 110.1 113.662 110.1H11.0186C7.37336 110.1 4.40744 107.134 4.40744 103.489V95.4089H145.593V103.489C145.593 107.134 142.627 110.1 138.981 110.1H123.946C122.729 110.1 121.742 111.087 121.742 112.304C121.742 113.521 122.729 114.508 123.946 114.508H138.981C145.057 114.508 150 109.565 150 103.489V26.8969C150 20.8211 145.057 15.8783 138.981 15.8783ZM111.141 134.342V137.868C111.141 139.569 109.757 140.953 108.056 140.953H41.9442C40.2429 140.953 38.859 139.569 38.859 137.868V134.342C38.859 132.64 40.2429 131.256 41.9442 131.256H108.056C109.757 131.256 111.141 132.64 111.141 134.342ZM86.9736 126.849H63.0264V114.508H86.9736V126.849ZM86.2684 20.2858V30.4825C86.2684 30.5566 86.2328 30.6221 86.1685 30.6603L75.104 37.3258C75.0411 37.364 74.9595 37.3643 74.8942 37.3246L63.8271 30.6579C63.7675 30.6221 63.7319 30.5566 63.7319 30.4825V20.2858H86.2684ZM50.7591 29.0848C50.7497 21.8798 53.9051 15.1455 59.3242 10.5576V30.4825C59.3242 32.0959 60.1816 33.6118 61.5573 34.436L72.6185 41.0992C74.088 41.9862 75.9129 41.9857 77.38 41.1004L88.4383 34.4387C89.8184 33.6121 90.6758 32.0959 90.6758 30.4825V10.5576C96.0852 15.1382 99.2409 21.861 99.2409 29.0516C99.2409 35.7024 96.6018 41.9054 91.8097 46.5183C89.854 48.4008 87.6426 49.9073 85.2599 51.0221C85.1841 51.0529 85.1098 51.0873 85.0384 51.1261C81.6447 52.6719 77.9083 53.4194 74.0498 53.2743C61.2241 52.7857 50.7761 41.9339 50.7591 29.0848ZM66.1117 56.2855C68.6001 57.1 71.209 57.5768 73.8814 57.6785C74.2601 57.6932 74.6362 57.7003 75.0129 57.7003C78.0738 57.7003 81.0579 57.2169 83.8884 56.2969V91.0014H66.1117V56.2855ZM88.2958 91.0017V54.4437C90.667 53.1973 92.8778 51.6083 94.8661 49.6943C100.529 44.2426 103.648 36.9118 103.648 29.0519C103.648 26.0301 103.177 23.0786 102.282 20.2858H138.981C142.627 20.2858 145.593 23.2517 145.593 26.8969V91.0017H88.2958Z" fill="#28166F"/>
</g>
<defs>
<clipPath id="clip0">
<rect width="150" height="150" fill="white"/>
</clipPath>
</defs>
</svg>
