<?xml version="1.0"?>
<svg xmlns="http://www.w3.org/2000/svg" xmlns:xlink="http://www.w3.org/1999/xlink" xmlns:svgjs="http://svgjs.com/svgjs" version="1.1" width="512" height="512" x="0" y="0" viewBox="0 0 510.5 510.5" style="enable-background:new 0 0 512 512" xml:space="preserve" class=""><g><g xmlns="http://www.w3.org/2000/svg"><path d="m473 54.039h-131.146c-7.553-14.591-18.793-27.258-33.003-36.623-3.023-1.991-6.881-2.161-10.069-.441-3.196 1.722-5.182 5.044-5.182 8.671v28.394h-76.7v-28.399c0-3.627-1.985-6.949-5.182-8.671-3.188-1.717-7.042-1.549-10.06.44-14.219 9.367-25.462 22.035-33.015 36.628h-131.143c-20.678 0-37.5 16.822-37.5 37.5v27.71c0 4.143 3.357 7.5 7.5 7.5s7.5-3.357 7.5-7.5v-27.71c0-12.406 10.094-22.5 22.5-22.5h124.9c-3.058 9.544-4.664 19.635-4.65 29.966.033 25.203 9.744 49.153 27.344 67.438 7.363 7.65 15.778 13.934 24.906 18.751v124.515h-195v-155.46c0-4.143-3.357-7.5-7.5-7.5s-7.5 3.357-7.5 7.5v197.96c0 20.678 16.822 37.5 37.5 37.5h162v42h-56.75c-14.061 0-25.5 11.439-25.5 25.5v12c0 14.061 11.439 25.5 25.5 25.5h225c14.061 0 25.5-11.439 25.5-25.5v-12c0-14.061-11.439-25.5-25.5-25.5h-56.75v-42h75.83c4.143 0 7.5-3.357 7.5-7.5s-3.357-7.5-7.5-7.5h-349.33c-12.406 0-22.5-10.094-22.5-22.5v-27.5h480.5v27.5c0 12.406-10.094 22.5-22.5 22.5h-51.17c-4.143 0-7.5 3.357-7.5 7.5s3.357 7.5 7.5 7.5h51.17c20.678 0 37.5-16.822 37.5-37.5v-260.669c0-20.678-16.822-37.5-37.5-37.5zm-94.75 403.17v12c0 5.79-4.71 10.5-10.5 10.5h-225c-5.79 0-10.5-4.71-10.5-10.5v-12c0-5.79 4.71-10.5 10.5-10.5h225c5.79 0 10.5 4.71 10.5 10.5zm-82.25-25.5h-81.5v-42h81.5zm-2.4-362.67v34.703c0 .252-.121.475-.34.605l-37.656 22.685c-.214.13-.492.131-.714-.004l-37.665-22.689c-.203-.122-.324-.345-.324-.597v-34.703zm-120.85 29.946c-.032-24.521 10.707-47.44 29.15-63.054v67.811c0 5.491 2.918 10.65 7.6 13.455l37.645 22.677c5.001 3.019 11.212 3.017 16.205.004l37.635-22.672c4.697-2.813 7.615-7.973 7.615-13.464v-67.811c18.41 15.589 29.15 38.469 29.15 62.941 0 22.635-8.982 43.746-25.291 59.445-6.656 6.407-14.182 11.534-22.291 15.328-.258.105-.511.222-.754.354-11.55 5.261-24.266 7.805-37.398 7.311-43.65-1.663-79.208-38.595-79.266-82.325zm52.25 92.573c8.469 2.772 17.348 4.395 26.443 4.741 1.289.05 2.569.074 3.851.074 10.417 0 20.573-1.645 30.206-4.776v118.111h-60.5zm75.5 118.151v-124.419c8.07-4.242 15.594-9.65 22.361-16.164 19.274-18.554 29.889-43.503 29.889-70.253 0-10.284-1.605-20.329-4.651-29.834h124.901c12.406 0 22.5 10.094 22.5 22.5v218.17z" fill="#28166f" data-original="#000000" style=""/></g></g></svg>
