<?xml version="1.0"?>
<svg xmlns="http://www.w3.org/2000/svg" xmlns:xlink="http://www.w3.org/1999/xlink" xmlns:svgjs="http://svgjs.com/svgjs" version="1.1" width="512" height="512" x="0" y="0" viewBox="0 0 511.834 511.834" style="enable-background:new 0 0 512 512" xml:space="preserve" class=""><g><g xmlns="http://www.w3.org/2000/svg"><path d="m355.965 390.105c-47.982 33.203-104.725 50.923-163.011 50.923-6.422 0-12.859-.215-19.31-.648-46.238-3.105-90.51-17.204-129.393-40.72 8.937 13.053 19.135 25.381 30.563 36.81 48.352 48.352 112.639 74.98 181.019 74.98 42.731 0 83.864-10.399 120.508-29.999-1.171-31.435-8.11-62.451-20.376-91.346z" fill="#28166f" data-original="#000000" style="" class=""/><path d="m302.683 3.721c-57.504 16.837-107.324 53.331-140.959 103.496-33.449 49.887-48.238 109.529-42.152 169.07 42.161 0 84.267-10.512 121.584-30.518 1.577-47.946 15.11-94.767 39.38-135.969 20.381-34.599 47.871-64.592 80.395-87.916-18.547-8.356-38.076-14.453-58.248-18.163z" fill="#28166f" data-original="#000000" style="" class=""/><path d="m431.294 246.768c-26.475-53.904-70.723-96.529-125.321-121.03-21.52 36.806-33.496 78.589-34.843 121.375 40.733 25.338 74.514 60.468 98.061 102.088 19.878 35.135 32.128 74.165 35.999 114.215 11.153-8.046 21.748-17.031 31.663-26.946 4.594-4.594 8.989-9.333 13.186-14.205 14.711-58.714 8.137-120.766-18.745-175.497z" fill="#28166f" data-original="#000000" style="" class=""/><path d="m89.278 274.437c-5.516-64.862 11.087-129.577 47.529-183.928 25.202-37.588 58.557-68.296 97.179-90.126-60.138 5.05-116.006 30.884-159.171 74.048-46.271 46.271-72.63 107.137-74.815 172.214 27.818 14.618 58.14 24.039 89.278 27.792z" fill="#28166f" data-original="#000000" style="" class=""/><path d="m254.978 272.4c-41.579 22.216-87.996 33.889-134.968 33.889v-.011c-47.635 0-82.462-9.187-118.966-25.736 1.91 19.765 6.085 39.044 12.374 57.546 43.602 42.606 100.989 68.248 162.236 72.36 59.639 4.005 118.423-12.823 166.816-47.532-21.106-36.889-51.226-68.027-87.492-90.516z" fill="#28166f" data-original="#000000" style="" class=""/><path d="m322.823 100.476c58.874 27.661 106.571 74.372 135.399 133.067 20.185 41.096 30.104 85.898 29.448 130.784 15.819-33.628 24.164-70.61 24.164-108.876 0-68.38-26.629-132.667-74.98-181.02-14.071-14.071-29.499-26.288-45.978-36.558-26.266 16.603-49.353 37.866-68.053 62.603z" fill="#28166f" data-original="#000000" style="" class=""/></g></g></svg>
